<svg width="20" height="20" viewBox="0 0 20 20" fill="none" xmlns="http://www.w3.org/2000/svg">
<path fill-rule="evenodd" clip-rule="evenodd" d="M10.044 3.502L10.087 3.508L10.129 3.517L10.171 3.53L10.211 3.547L10.25 3.567L10.287 3.59L10.321 3.617L10.354 3.646L10.383 3.679L10.41 3.713L10.433 3.75L10.453 3.789L10.47 3.829L10.483 3.871L10.492 3.913L10.498 3.956L10.5 4V9.5H16L16.044 9.502L16.087 9.508L16.129 9.517L16.171 9.53L16.211 9.547L16.25 9.567L16.287 9.59L16.321 9.617L16.354 9.646L16.383 9.679L16.41 9.713L16.433 9.75L16.453 9.789L16.47 9.829L16.483 9.871L16.492 9.913L16.498 9.956L16.5 10L16.498 10.044L16.492 10.087L16.483 10.129L16.47 10.171L16.453 10.211L16.433 10.25L16.41 10.287L16.383 10.321L16.354 10.354L16.321 10.383L16.287 10.41L16.25 10.433L16.211 10.453L16.171 10.47L16.129 10.483L16.087 10.492L16.044 10.498L16 10.5H10.5V16L10.498 16.044L10.492 16.087L10.483 16.129L10.47 16.171L10.453 16.211L10.433 16.25L10.41 16.287L10.383 16.321L10.354 16.354L10.321 16.383L10.287 16.41L10.25 16.433L10.211 16.453L10.171 16.47L10.129 16.483L10.087 16.492L10.044 16.498L10 16.5L9.95599 16.498L9.91302 16.492L9.87097 16.483L9.82898 16.47L9.789 16.453L9.75 16.433L9.71301 16.41L9.67902 16.383L9.646 16.354L9.617 16.321L9.59003 16.287L9.56702 16.25L9.547 16.211L9.53003 16.171L9.51703 16.129L9.508 16.087L9.50201 16.044L9.5 16V10.5H4L3.95599 10.498L3.91302 10.492L3.87097 10.483L3.82898 10.47L3.789 10.453L3.75 10.433L3.71301 10.41L3.67902 10.383L3.646 10.354L3.617 10.321L3.59003 10.287L3.56702 10.25L3.547 10.211L3.53003 10.171L3.51703 10.129L3.508 10.087L3.50201 10.044L3.5 10L3.50201 9.956L3.508 9.913L3.51703 9.871L3.53003 9.829L3.547 9.789L3.56702 9.75L3.59003 9.713L3.617 9.679L3.646 9.646L3.67902 9.617L3.71301 9.59L3.75 9.567L3.789 9.547L3.82898 9.53L3.87097 9.517L3.91302 9.508L3.95599 9.502L4 9.5H9.5V4L9.50201 3.956L9.508 3.913L9.51703 3.871L9.53003 3.829L9.547 3.789L9.56702 3.75L9.59003 3.713L9.617 3.679L9.646 3.646L9.67902 3.617L9.71301 3.59L9.75 3.567L9.789 3.547L9.82898 3.53L9.87097 3.517L9.91302 3.508L9.95599 3.502L10 3.5L10.044 3.502Z" fill="#3D3D3D"/>
</svg>
