<svg width="20" height="20" viewBox="0 0 20 20" fill="none" xmlns="http://www.w3.org/2000/svg">
<path d="M12.5 3C12.7761 3 13 2.77614 13 2.5C13 2.22386 12.7761 2 12.5 2H4C2.89543 2 2 2.89543 2 4V14C2 15.1046 2.89543 16 4 16H16C17.1046 16 18 15.1046 18 14V7.5C18 7.22386 17.7761 7 17.5 7C17.2239 7 17 7.22386 17 7.5V14C17 14.5523 16.5523 15 16 15H4C3.44772 15 3 14.5523 3 14V4C3 3.44772 3.44772 3 4 3H12.5Z" fill="currentColor"/>
<path d="M17.4655 2.29135C17.7693 2.26954 18.0218 2.52209 18 2.82588L17.8183 5.35694C17.7876 5.78422 17.2689 5.97759 16.966 5.67469L16.1449 4.85356L13.3498 7.64863C12.4819 8.51657 11.1122 8.62602 10.1174 7.90691L8.82948 6.97586C8.20047 6.52115 7.32848 6.62138 6.81905 7.20694L4.66857 9.82818C4.48731 10.0365 4.17149 10.0585 3.96316 9.87722C3.75483 9.69597 3.73287 9.38015 3.91412 9.17182L4.48936 8.3612L6.0646 6.55057C6.91366 5.57464 8.36699 5.4076 9.41533 6.16543L10.7033 7.09649C11.3001 7.52796 12.1219 7.46229 12.6427 6.94152L15.4378 4.14646L14.6167 3.32535C14.3138 3.02244 14.5071 2.50375 14.9344 2.47308L17.4655 2.29135Z" fill="currentColor"/>
<path d="M4.5 17C4.22386 17 4 17.2239 4 17.5C4 17.7761 4.22386 18 4.5 18H15.5C15.7761 18 16 17.7761 16 17.5C16 17.2239 15.7761 17 15.5 17H4.5Z" fill="currentColor"/>
<path d="M8.5 8C8.22386 8 8 8.22386 8 8.5V13.5001C8 13.7762 8.22386 14.0001 8.5 14.0001C8.77614 14.0001 9 13.7762 9 13.5001V8.5C9 8.22386 8.77614 8 8.5 8Z" fill="currentColor"/>
<path d="M11.5 10C11.2239 10 11 10.2239 11 10.5V13.5C11 13.7761 11.2239 14 11.5 14C11.7761 14 12 13.7761 12 13.5V10.5C12 10.2239 11.7761 10 11.5 10Z" fill="currentColor"/>
<path d="M14.5 9C14.2239 9 14 9.22386 14 9.5V13.5001C14 13.7762 14.2239 14.0001 14.5 14.0001C14.7761 14.0001 15 13.7762 15 13.5001V9.5C15 9.22386 14.7761 9 14.5 9Z" fill="currentColor"/>
<path d="M5.5 11C5.22386 11 5 11.2239 5 11.5V13.5C5 13.7761 5.22386 14 5.5 14C5.77614 14 6 13.7761 6 13.5V11.5C6 11.2239 5.77614 11 5.5 11Z" fill="currentColor"/>
</svg>
