<svg width="20" height="20" viewBox="0 0 20 20" fill="none" xmlns="http://www.w3.org/2000/svg">
<path d="M5.70701 7L15.4995 7C15.7755 7 15.9995 6.776 15.9995 6.5C15.9995 6.224 15.7755 6 15.4995 6L5.70752 6L7.85326 3.85426C8.04826 3.65826 8.04826 3.34225 7.85326 3.14625C7.65826 2.95125 7.34126 2.95125 7.14626 3.14625L4.14626 6.14625C3.95126 6.34225 3.95126 6.65826 4.14626 6.85426L7.14626 9.85426C7.34126 10.0493 7.65826 10.0493 7.85326 9.85426C8.04826 9.65826 8.04826 9.34225 7.85326 9.14625L5.70701 7Z" fill="#3D3D3D"/>
<path d="M14.2925 14H4.5C4.224 14 4 13.776 4 13.5C4 13.224 4.224 13 4.5 13H14.292L12.1462 10.8543C11.9513 10.6583 11.9513 10.3422 12.1462 10.1462C12.3413 9.95125 12.6583 9.95125 12.8533 10.1462L15.8533 13.1462C16.0483 13.3422 16.0483 13.6583 15.8533 13.8543L12.8533 16.8543C12.6583 17.0493 12.3413 17.0493 12.1462 16.8543C11.9513 16.6583 11.9513 16.3423 12.1462 16.1463L14.2925 14Z" fill="#3D3D3D"/>
</svg>
