<svg width="16" height="16" viewBox="0 0 16 16" fill="none" xmlns="http://www.w3.org/2000/svg">
<path fill-rule="evenodd" clip-rule="evenodd" d="M8.99867 11.0386L8.99467 11.0786L8.98667 11.1173L8.976 11.1546L8.96267 11.192L8.94667 11.2267L8.92667 11.2613L8.90534 11.2933L8.88134 11.3253L8.85467 11.3533L8.82534 11.38L8.79467 11.404L8.76134 11.4267L8.728 11.4453L8.692 11.4613L8.65467 11.476L8.61734 11.4866L8.57867 11.4933L8.54 11.4986L8.5 11.5L8.46134 11.4986L8.42267 11.4933L8.384 11.4866L8.34667 11.476L8.30934 11.4613L8.27334 11.4453L8.23867 11.4267L8.20667 11.404L8.176 11.38L8.14667 11.3533L5.14668 8.35334L5.12002 8.32531L5.09601 8.29332L5.07468 8.26134L5.05468 8.22667L5.03868 8.19201L5.02535 8.15465L5.01468 8.11734L5.00668 8.07864L5.00268 8.03864L5.00002 7.99999L5.00268 7.96133L5.00668 7.92134L5.01468 7.88264L5.02535 7.84533L5.03868 7.80797L5.05468 7.77331L5.07468 7.73864L5.09601 7.70666L5.12002 7.67467L5.14668 7.64664L8.14667 4.64665L8.176 4.61999L8.20667 4.59599L8.23867 4.57332L8.27334 4.55465L8.30934 4.53866L8.34667 4.52401L8.384 4.51335L8.42267 4.50667L8.46134 4.50134L8.5 4.5L8.54 4.50134L8.57867 4.50667L8.61734 4.51335L8.65467 4.52401L8.692 4.53866L8.728 4.55465L8.76134 4.57332L8.79467 4.59599L8.82534 4.61999L8.85467 4.64665L8.88134 4.67468L8.90534 4.70666L8.92667 4.73865L8.94667 4.77331L8.96267 4.80798L8.976 4.84534L8.98667 4.88265L8.99467 4.92135L8.99867 4.96134L9 5L8.99867 5.03865L8.99467 5.07865L8.98667 5.11735L8.976 5.15466L8.96267 5.19201L8.94667 5.22668L8.92667 5.26135L8.90534 5.29333L8.88134 5.32532L8.85467 5.35335L6.20801 7.99999L8.85467 10.6466L8.88134 10.6747L8.90534 10.7066L8.92667 10.7386L8.94667 10.7733L8.96267 10.808L8.976 10.8453L8.98667 10.8826L8.99467 10.9213L8.99867 10.9613L9 11L8.99867 11.0386Z" fill="#3D3D3D"/>
</svg>
