<svg width="20" height="20" viewBox="0 0 20 20" fill="none" xmlns="http://www.w3.org/2000/svg">
<path fill-rule="evenodd" clip-rule="evenodd" d="M5.96136 11.9986L5.92137 11.9946L5.88267 11.9866L5.84536 11.9759L5.808 11.9626L5.77334 11.9466L5.73867 11.9266L5.70669 11.9052L5.6747 11.8812L5.64667 11.8546L5.62002 11.8252L5.59601 11.7946L5.57334 11.7612L5.55467 11.7279L5.53868 11.6919L5.52403 11.6546L5.51337 11.6172L5.50669 11.5786L5.50136 11.5399L5.50002 11.4999L5.50136 11.4612L5.50669 11.4226L5.51337 11.3839L5.52403 11.3466L5.53868 11.3092L5.55467 11.2732L5.57334 11.2386L5.59601 11.2066L5.62002 11.1759L5.64667 11.1466L9.64666 7.14659L9.67469 7.11992L9.70668 7.09592L9.73866 7.07459L9.77333 7.05459L9.80799 7.03859L9.84535 7.02525L9.88266 7.01459L9.92136 7.00659L9.96135 7.00259L10 6.99992L10.0387 7.00259L10.0787 7.00659L10.1174 7.01459L10.1547 7.02525L10.192 7.03859L10.2267 7.05459L10.2614 7.07459L10.2933 7.09592L10.3253 7.11992L10.3534 7.14659L14.3534 11.1466L14.38 11.1759L14.404 11.2066L14.4267 11.2386L14.4454 11.2732L14.4613 11.3092L14.476 11.3466L14.4867 11.3839L14.4933 11.4226L14.4987 11.4612L14.5 11.4999L14.4987 11.5399L14.4933 11.5786L14.4867 11.6172L14.476 11.6546L14.4613 11.6919L14.4454 11.7279L14.4267 11.7612L14.404 11.7946L14.38 11.8252L14.3534 11.8546L14.3253 11.8812L14.2933 11.9052L14.2614 11.9266L14.2267 11.9466L14.192 11.9626L14.1547 11.9759L14.1174 11.9866L14.0787 11.9946L14.0387 11.9986L14 11.9999L13.9613 11.9986L13.9213 11.9946L13.8827 11.9866L13.8453 11.9759L13.808 11.9626L13.7733 11.9466L13.7386 11.9266L13.7067 11.9052L13.6747 11.8812L13.6466 11.8546L10 8.20792L6.35337 11.8546L6.32534 11.8812L6.29335 11.9052L6.26137 11.9266L6.2267 11.9466L6.19204 11.9626L6.15468 11.9759L6.11737 11.9866L6.07867 11.9946L6.03868 11.9986L6.00002 11.9999L5.96136 11.9986Z" fill="#3D3D3D"/>
</svg>
