<svg width="20" height="20" viewBox="0 0 20 20" fill="none" xmlns="http://www.w3.org/2000/svg">
<path fill-rule="evenodd" clip-rule="evenodd" d="M14.0386 8.00133L14.0786 8.00533L14.1173 8.01333L14.1546 8.024L14.192 8.03733L14.2267 8.05333L14.2613 8.07333L14.2933 8.09467L14.3253 8.11867L14.3533 8.14533L14.38 8.17467L14.404 8.20533L14.4267 8.23867L14.4453 8.272L14.4613 8.308L14.476 8.34533L14.4866 8.38267L14.4933 8.42133L14.4986 8.46L14.5 8.5L14.4986 8.53867L14.4933 8.57733L14.4866 8.616L14.476 8.65333L14.4613 8.69067L14.4453 8.72666L14.4267 8.76133L14.404 8.79333L14.38 8.824L14.3533 8.85333L10.3533 12.8533L10.3253 12.88L10.2933 12.904L10.2613 12.9253L10.2267 12.9453L10.192 12.9613L10.1547 12.9747L10.1173 12.9853L10.0786 12.9933L10.0386 12.9973L9.99999 13L9.96133 12.9973L9.92134 12.9933L9.88264 12.9853L9.84533 12.9747L9.80797 12.9613L9.77331 12.9453L9.73864 12.9253L9.70666 12.904L9.67467 12.88L9.64664 12.8533L5.64665 8.85333L5.61999 8.824L5.59599 8.79333L5.57332 8.76133L5.55465 8.72666L5.53866 8.69067L5.52401 8.65333L5.51335 8.616L5.50667 8.57733L5.50134 8.53867L5.5 8.5L5.50134 8.46L5.50667 8.42133L5.51335 8.38267L5.52401 8.34533L5.53866 8.308L5.55465 8.272L5.57332 8.23867L5.59599 8.20533L5.61999 8.17467L5.64665 8.14533L5.67468 8.11867L5.70666 8.09467L5.73865 8.07333L5.77331 8.05333L5.80798 8.03733L5.84534 8.024L5.88265 8.01333L5.92135 8.00533L5.96134 8.00133L6 8L6.03865 8.00133L6.07865 8.00533L6.11735 8.01333L6.15466 8.024L6.19201 8.03733L6.22668 8.05333L6.26135 8.07333L6.29333 8.09467L6.32532 8.11867L6.35335 8.14533L9.99999 11.792L13.6466 8.14533L13.6747 8.11867L13.7066 8.09467L13.7386 8.07333L13.7733 8.05333L13.808 8.03733L13.8453 8.024L13.8826 8.01333L13.9213 8.00533L13.9613 8.00133L14 8L14.0386 8.00133Z" fill="#3D3D3D"/>
</svg>
