<svg width="16" height="16" viewBox="0 0 16 16" fill="none" xmlns="http://www.w3.org/2000/svg">
<path fill-rule="evenodd" clip-rule="evenodd" d="M4.96137 8.99858L4.92137 8.99458L4.88267 8.98658L4.84536 8.97591L4.80801 8.96258L4.77334 8.94658L4.73867 8.92658L4.70669 8.90524L4.67471 8.88124L4.64667 8.85458L4.62002 8.82524L4.59601 8.79458L4.57335 8.76124L4.55467 8.72791L4.53868 8.69191L4.52403 8.65458L4.51337 8.61724L4.5067 8.57858L4.50137 8.53991L4.50002 8.49991L4.50137 8.46125L4.5067 8.42258L4.51337 8.38391L4.52403 8.34658L4.53868 8.30925L4.55467 8.27325L4.57335 8.23858L4.59601 8.20658L4.62002 8.17591L4.64667 8.14658L7.64666 5.14659L7.6747 5.11992L7.70668 5.09592L7.73866 5.07459L7.77333 5.05459L7.808 5.03859L7.84535 5.02526L7.88266 5.01459L7.92136 5.00659L7.96136 5.00259L8.00001 4.99992L8.03867 5.00259L8.07867 5.00659L8.11736 5.01459L8.15467 5.02526L8.19203 5.03859L8.2267 5.05459L8.26136 5.07459L8.29335 5.09592L8.32533 5.11992L8.35336 5.14659L11.3534 8.14658L11.38 8.17591L11.404 8.20658L11.4267 8.23858L11.4454 8.27325L11.4613 8.30925L11.476 8.34658L11.4867 8.38391L11.4933 8.42258L11.4987 8.46125L11.5 8.49991L11.4987 8.53991L11.4933 8.57858L11.4867 8.61724L11.476 8.65458L11.4613 8.69191L11.4454 8.72791L11.4267 8.76124L11.404 8.79458L11.38 8.82524L11.3534 8.85458L11.3253 8.88124L11.2933 8.90524L11.2614 8.92658L11.2267 8.94658L11.192 8.96258L11.1547 8.97591L11.1174 8.98658L11.0787 8.99458L11.0387 8.99858L11 8.99991L10.9613 8.99858L10.9213 8.99458L10.8827 8.98658L10.8453 8.97591L10.808 8.96258L10.7733 8.94658L10.7387 8.92658L10.7067 8.90524L10.6747 8.88124L10.6467 8.85458L8.00001 6.20792L5.35337 8.85458L5.32534 8.88124L5.29336 8.90524L5.26137 8.92658L5.22671 8.94658L5.19204 8.96258L5.15468 8.97591L5.11737 8.98658L5.07868 8.99458L5.03868 8.99858L5.00002 8.99991L4.96137 8.99858Z" fill="#3D3D3D"/>
</svg>
