<svg width="16" height="16" viewBox="0 0 16 16" fill="none" xmlns="http://www.w3.org/2000/svg">
<path fill-rule="evenodd" clip-rule="evenodd" d="M11.0386 7.00133L11.0786 7.00533L11.1173 7.01333L11.1546 7.024L11.192 7.03733L11.2267 7.05333L11.2613 7.07333L11.2933 7.09467L11.3253 7.11867L11.3533 7.14533L11.38 7.17467L11.404 7.20533L11.4267 7.23867L11.4453 7.272L11.4613 7.308L11.476 7.34533L11.4866 7.38267L11.4933 7.42133L11.4986 7.46L11.5 7.5L11.4986 7.53867L11.4933 7.57733L11.4866 7.616L11.476 7.65333L11.4613 7.69067L11.4453 7.72666L11.4267 7.76133L11.404 7.79333L11.38 7.824L11.3533 7.85333L8.35334 10.8533L8.32531 10.88L8.29332 10.904L8.26134 10.9253L8.22667 10.9453L8.19201 10.9613L8.15465 10.9747L8.11734 10.9853L8.07864 10.9933L8.03865 10.9973L7.99999 11L7.96133 10.9973L7.92134 10.9933L7.88264 10.9853L7.84533 10.9747L7.80797 10.9613L7.77331 10.9453L7.73864 10.9253L7.70666 10.904L7.67467 10.88L7.64664 10.8533L4.64665 7.85333L4.61999 7.824L4.59599 7.79333L4.57332 7.76133L4.55465 7.72666L4.53866 7.69067L4.52401 7.65333L4.51335 7.616L4.50667 7.57733L4.50134 7.53867L4.5 7.5L4.50134 7.46L4.50667 7.42133L4.51335 7.38267L4.52401 7.34533L4.53866 7.308L4.55465 7.272L4.57332 7.23867L4.59599 7.20533L4.61999 7.17467L4.64665 7.14533L4.67468 7.11867L4.70666 7.09467L4.73865 7.07333L4.77331 7.05333L4.80798 7.03733L4.84534 7.024L4.88265 7.01333L4.92135 7.00533L4.96134 7.00133L5 7L5.03865 7.00133L5.07865 7.00533L5.11735 7.01333L5.15466 7.024L5.19201 7.03733L5.22668 7.05333L5.26135 7.07333L5.29333 7.09467L5.32532 7.11867L5.35335 7.14533L7.99999 9.79199L10.6466 7.14533L10.6747 7.11867L10.7066 7.09467L10.7386 7.07333L10.7733 7.05333L10.808 7.03733L10.8453 7.024L10.8826 7.01333L10.9213 7.00533L10.9613 7.00133L11 7L11.0386 7.00133Z" fill="#3D3D3D"/>
</svg>
