<svg width="20" height="20" viewBox="0 0 20 20" fill="none" xmlns="http://www.w3.org/2000/svg">
<circle cx="10" cy="10" r="8" fill="#3D3D3D"/>
<path d="M10.81 13.175C10.81 13.6306 10.4407 14 9.98503 14C9.5294 14 9.16003 13.6306 9.16003 13.175C9.16003 12.7194 9.5294 12.35 9.98503 12.35C10.4407 12.35 10.81 12.7194 10.81 13.175Z" fill="white"/>
<path d="M10.0437 6C9.66368 6 9.35858 6.31353 9.36894 6.69338L9.48627 10.9956C9.49393 11.2764 9.72372 11.5 10.0046 11.5C10.2818 11.5 10.5099 11.282 10.5225 11.0051L10.718 6.70563C10.7354 6.32122 10.4285 6 10.0437 6Z" fill="white"/>
</svg>
