<svg width="20" height="20" viewBox="0 0 20 20" fill="none" xmlns="http://www.w3.org/2000/svg">
<path d="M10.81 13.175C10.81 13.6306 10.4406 14 9.985 14C9.52937 14 9.16 13.6306 9.16 13.175C9.16 12.7194 9.52937 12.35 9.985 12.35C10.4406 12.35 10.81 12.7194 10.81 13.175Z" fill="#3D3D3D"/>
<path d="M10.0436 6C9.66365 6 9.35855 6.31353 9.36891 6.69338L9.48624 10.9956C9.4939 11.2764 9.72369 11.5 10.0045 11.5C10.2817 11.5 10.5099 11.282 10.5225 11.0051L10.7179 6.70563C10.7354 6.32122 10.4285 6 10.0436 6Z" fill="#3D3D3D"/>
<path fill-rule="evenodd" clip-rule="evenodd" d="M10 18C14.4183 18 18 14.4183 18 10C18 5.58172 14.4183 2 10 2C5.58172 2 2 5.58172 2 10C2 14.4183 5.58172 18 10 18ZM10 17C13.866 17 17 13.866 17 10C17 6.13401 13.866 3 10 3C6.13401 3 3 6.13401 3 10C3 13.866 6.13401 17 10 17Z" fill="#3D3D3D"/>
</svg>
