<svg width="20" height="20" viewBox="0 0 20 20" fill="none" xmlns="http://www.w3.org/2000/svg">
<path d="M6.1297 13.1638L6.146 13.1455L9.29303 9.99954L6.146 6.85354L6.12517 6.83025L5.1482 5.85327C4.9532 5.65727 4.9532 5.34127 5.1482 5.14527C5.3442 4.95027 5.66021 4.95027 5.85621 5.14527L10.0017 9.2908L13.146 6.14554L13.164 6.12947L14.1482 5.14527C14.3442 4.95027 14.6602 4.95027 14.8562 5.14527C15.0512 5.34127 15.0512 5.65727 14.8562 5.85327L10.7102 9.99927L14.8562 14.1453C15.0512 14.3413 15.0512 14.6573 14.8562 14.8533C14.6602 15.0483 14.3442 15.0483 14.1482 14.8533L13.169 13.8741L13.146 13.8535L10.0015 10.708L5.85621 14.8533C5.66021 15.0483 5.3442 15.0483 5.1482 14.8533C4.9532 14.6573 4.9532 14.3413 5.1482 14.1453L6.1297 13.1638Z" fill="#3D3D3D"/>
</svg>
