<svg width="20" height="20" viewBox="0 0 20 20" fill="none" xmlns="http://www.w3.org/2000/svg">
<path d="M16.0737 3.005L16.022 3H5.50204L5.45534 3.00167L5.41028 3.00833L5.36532 3.01833L5.32198 3.03333L5.27865 3.05167L5.23867 3.075L5.20032 3.1L5.16532 3.13L5.13196 3.16167L5.10368 3.19833L5.07703 3.23667L5.05363 3.27667L5.03532 3.31833L5.02037 3.36333L5.01029 3.40667L5.00368 3.45333L5.00195 3.5L5.00368 3.545L5.01029 3.59167L5.02037 3.63667L5.03532 3.68L5.05363 3.72167L5.07703 3.76334L5.10368 3.8L5.13196 3.83667L5.16532 3.86834L5.20032 3.89834L5.23867 3.925L5.27865 3.94667L5.32198 3.965L5.36532 3.98L5.41028 3.99L5.45534 3.99667L5.50204 4H15.977L15.9786 4.00167H15.982L15.9837 4.00334H15.9854L15.987 4.005H15.9887L15.9903 4.00667V4.00834L15.992 4.01H15.9937V4.01167L15.9953 4.01334L15.9971 4.015L15.9987 4.01667V4.02H16.0003V4.02334L16.002 4.025V14.5L16.0037 14.545L16.0104 14.5917L16.0203 14.6367L16.0353 14.68L16.0537 14.7217L16.077 14.7634L16.1037 14.8L16.132 14.8367L16.1653 14.8684L16.2003 14.8984L16.2386 14.925L16.2787 14.9467L16.3221 14.965L16.3654 14.98L16.4104 14.99L16.4553 14.9967L16.502 15L16.5487 14.9967L16.5937 14.99L16.6386 14.98L16.682 14.965L16.7253 14.9467L16.7654 14.925L16.8037 14.8984L16.8387 14.8684L16.872 14.8367L16.9004 14.8L16.927 14.7634L16.9503 14.7217L16.9687 14.68L16.9837 14.6367L16.9937 14.5917L17.0004 14.545L17.002 14.5V4.02667L17.0004 3.98L16.997 3.92834L16.9904 3.875L16.9803 3.825L16.9704 3.775L16.9553 3.725L16.9387 3.67834L16.9203 3.63L16.9004 3.58334L16.877 3.54L16.8521 3.49667L16.8253 3.455L16.797 3.41333L16.767 3.375L16.7336 3.33833L16.6987 3.30167L16.6637 3.26833L16.627 3.235L16.5871 3.205L16.547 3.17667L16.5054 3.14833L16.462 3.125L16.417 3.10167L16.372 3.08L16.3237 3.06167L16.2754 3.045L16.2271 3.03167L16.177 3.02L16.1253 3.01167L16.0737 3.005Z" fill="#3D3D3D"/>
<path fill-rule="evenodd" clip-rule="evenodd" d="M14.0737 5.005L14.022 5H3.98198L3.9303 5.005L3.87862 5.01167L3.82695 5.02L3.777 5.03167L3.72868 5.045L3.68036 5.06167L3.63367 5.08L3.58698 5.10167L3.54201 5.125L3.49868 5.14833L3.45697 5.17667L3.41699 5.205L3.37701 5.235L3.34029 5.26833L3.30367 5.30167L3.2703 5.33833L3.23867 5.375L3.20703 5.41333L3.17865 5.455L3.152 5.49667L3.12697 5.54L3.10368 5.585L3.08364 5.63L3.06533 5.67667L3.04865 5.725L3.03369 5.775L3.02199 5.825L3.01365 5.875L3.00704 5.92667L3.00368 5.98L3.00195 6.02667V15.9717L3.00368 16.0184L3.00704 16.0717L3.01365 16.1234L3.02199 16.1734L3.03369 16.2234L3.04865 16.2734L3.06533 16.3217L3.08364 16.3684L3.10368 16.415L3.12697 16.4584L3.152 16.5017L3.17865 16.545L3.20703 16.585L3.2703 16.6617L3.30367 16.6967L3.34029 16.7317L3.37701 16.7634L3.45697 16.8234L3.49868 16.85L3.54201 16.875L3.58698 16.8967L3.63367 16.9184L3.68036 16.9367L3.72868 16.9534L3.777 16.9667L3.82695 16.9784L3.87862 16.9884L3.9303 16.995L3.98198 16.9984L4.02867 17H13.9754L14.022 16.9984L14.0737 16.995L14.1253 16.9884L14.177 16.9784L14.2271 16.9667L14.2754 16.9534L14.3237 16.9367L14.372 16.9184L14.462 16.875L14.5054 16.85L14.547 16.8234L14.5871 16.7934L14.6253 16.7634L14.6637 16.7317L14.7004 16.6967L14.7336 16.6617L14.7654 16.6234L14.797 16.585L14.8253 16.5434L14.8521 16.5017L14.877 16.4584L14.9004 16.415L14.9203 16.3684L14.9404 16.3217L14.9553 16.2734L14.9687 16.225L14.9821 16.1734L14.9904 16.1234L14.997 16.0717L15.0004 16.0184L15.002 15.9717V6.02667L15.0004 5.98L14.997 5.92834L14.9904 5.87667L14.9821 5.825L14.9687 5.77334L14.9553 5.725L14.9404 5.67834L14.9203 5.63L14.9004 5.58334L14.877 5.54L14.8521 5.49667L14.8253 5.455L14.797 5.41333L14.7654 5.375L14.7336 5.33833L14.7004 5.30167L14.6637 5.26833L14.6253 5.235L14.5871 5.205L14.547 5.17667L14.5054 5.14833L14.462 5.12333L14.372 5.08L14.3237 5.06167L14.2754 5.045L14.2271 5.03167L14.177 5.02L14.1253 5.01167L14.0737 5.005ZM13.977 6L13.9786 6.00167H13.982L13.9837 6.00334H13.9854L13.987 6.005H13.9887L13.9903 6.00667V6.00834H13.992L13.9937 6.01L13.9953 6.01167V6.01334H13.9971V6.015L13.9987 6.01667V6.01834L14.0003 6.02V6.025H14.002V15.9734L14.0003 15.975V15.9784L13.9987 15.98V15.9817L13.9971 15.9834V15.985H13.9953V15.9867L13.9937 15.9884L13.992 15.99H13.9903V15.9917L13.9887 15.9934H13.987L13.9837 15.9967H13.9804L13.9786 15.9984H13.9704L13.9621 16H4.04199L4.03365 15.9984H4.02531L4.01199 15.99L4.00364 15.9767L4.00202 15.96V6.02667L4.00364 6.025V6.02L4.00537 6.01834V6.01667L4.00863 6.01334V6.01167L4.01036 6.01L4.01199 6.00834H4.01361V6.00667L4.01534 6.005H4.01697L4.0187 6.00334H4.02033V6.00167H4.02531L4.02704 6H13.977Z" fill="#3D3D3D"/>
</svg>
