<svg width="20" height="20" viewBox="0 0 20 20" fill="none" xmlns="http://www.w3.org/2000/svg">
<path fill-rule="evenodd" clip-rule="evenodd" d="M10.1541 7.00379L10.0772 7.00089L10.0001 7L9.92296 7.00089L9.84628 7.00379L9.76983 7.00869L9.69406 7.01538L9.61872 7.02407L9.54404 7.03455L9.46982 7.04681L9.39628 7.06085L9.32317 7.0769L9.25095 7.0945L9.17918 7.1139L9.10831 7.13507L9.03832 7.1578L8.969 7.18232L8.90034 7.2084L8.83236 7.23604L8.7655 7.26546L8.69952 7.29622L8.63422 7.32854L8.57002 7.36264L8.50673 7.39808L8.44432 7.43485L8.38302 7.47319L8.32262 7.51287L8.26334 7.5541L8.20517 7.59645L8.1481 7.64036L8.09194 7.6856L8.03688 7.73196L7.98316 7.77966L7.93057 7.8287L7.87908 7.87907L7.82892 7.93033L7.77989 7.98294L7.73196 8.03688L7.68561 8.09193L7.64037 8.14787L7.59667 8.20516L7.5541 8.26333L7.51309 8.32262L7.4732 8.38302L7.43487 8.44454L7.39808 8.50672L7.36264 8.57002L7.32877 8.63421L7.29644 8.6993L7.26547 8.76527L7.23626 8.83214L7.2084 8.90034L7.18232 8.96877L7.15781 9.03809L7.13507 9.10852L7.11412 9.17895L7.09474 9.25072L7.0769 9.32316L7.06108 9.39605L7.04681 9.4696L7.03455 9.54404L7.02408 9.61871L7.0156 9.69382L7.00869 9.76961L7.00401 9.84606L7.00112 9.92295L7 10.0001L7.00112 10.0772L7.00401 10.1541L7.00869 10.2303L7.0156 10.3061L7.02408 10.3812L7.03455 10.4559L7.04681 10.5303L7.06108 10.6039L7.0769 10.677L7.09474 10.7492L7.11412 10.821L7.13507 10.8916L7.15781 10.9618L7.18232 11.0312L7.2084 11.0998L7.23626 11.1678L7.26547 11.2346L7.29644 11.3006L7.32877 11.3657L7.36264 11.4299L7.39808 11.4932L7.43487 11.5556L7.4732 11.6171L7.51309 11.6773L7.5541 11.7368L7.59667 11.795L7.64037 11.852L7.68561 11.9082L7.73196 11.963L7.77989 12.017L7.82892 12.0696L7.87908 12.1209L7.93057 12.1712L7.98316 12.2203L8.03688 12.268L8.09194 12.3145L8.1481 12.3598L8.20517 12.4035L8.26334 12.4458L8.32262 12.4871L8.38302 12.5267L8.44432 12.5651L8.50673 12.6021L8.57002 12.6373L8.63422 12.6714L8.69952 12.7037L8.7655 12.7345L8.83236 12.7639L8.90034 12.7915L8.969 12.8176L9.03832 12.8421L9.10831 12.8649L9.17918 12.886L9.25095 12.9054L9.32317 12.923L9.39628 12.9391L9.46982 12.9531L9.54404 12.9654L9.61872 12.9759L9.69406 12.9845L9.76983 12.9912L9.84628 12.9961L9.92296 12.999L10.0001 12.9999L10.0772 12.999L10.1541 12.9961L10.2303 12.9912L10.3061 12.9845L10.3814 12.9759L10.4561 12.9654L10.5303 12.9531L10.6039 12.9391L10.677 12.923L10.7492 12.9054L10.821 12.886L10.8918 12.8649L10.9618 12.8421L11.0312 12.8176L11.0998 12.7915L11.1678 12.7639L11.2347 12.7345L11.3006 12.7037L11.3659 12.6714L11.4301 12.6373L11.4934 12.6021L11.5558 12.5651L11.6171 12.5267L11.6775 12.4871L11.7368 12.4458L11.795 12.4035L11.8521 12.3598L11.9082 12.3145L11.9633 12.268L12.017 12.2203L12.0696 12.1712L12.1211 12.1209L12.1712 12.0696L12.2203 12.017L12.2682 11.963L12.3145 11.9082L12.3598 11.852L12.4035 11.795L12.4461 11.7368L12.4871 11.6773L12.527 11.6171L12.5653 11.5556L12.6021 11.4932L12.6375 11.4299L12.6714 11.3657L12.7037 11.3006L12.7347 11.2346L12.7639 11.1678L12.7918 11.0998L12.8178 11.0312L12.8423 10.9618L12.8651 10.8916L12.886 10.821L12.9056 10.7492L12.9233 10.677L12.9391 10.6039L12.9533 10.5303L12.9656 10.4559L12.9761 10.3812L12.9846 10.3061L12.9915 10.2303L12.9961 10.1541L12.999 10.0772L13.0002 10.0001L12.999 9.92295L12.9961 9.84606L12.9915 9.76961L12.9846 9.69382L12.9761 9.61871L12.9656 9.54404L12.9533 9.4696L12.9391 9.39605L12.9233 9.32316L12.9056 9.25072L12.886 9.17895L12.8651 9.10852L12.8423 9.03809L12.8178 8.96877L12.7918 8.90034L12.7639 8.83214L12.7347 8.76527L12.7037 8.6993L12.6714 8.63421L12.6375 8.57002L12.6021 8.50672L12.5653 8.44454L12.527 8.38302L12.4871 8.32262L12.4461 8.26333L12.4453 8.26235L14.3534 6.35366L14.3677 6.33858L14.382 6.32274L14.3949 6.3069L14.4077 6.28956L14.4303 6.25487L14.4409 6.23677L14.459 6.19906L14.4665 6.17946L14.474 6.15985L14.4801 6.13949L14.4854 6.11913L14.4899 6.09877L14.4936 6.07841L14.4967 6.05729L14.4989 6.03693L14.4997 6.01581V5.9947L14.4989 5.97434L14.4974 5.95322L14.4952 5.93211L14.4921 5.91175L14.4831 5.87102L14.4771 5.85066L14.4703 5.83106L14.4628 5.81145L14.4544 5.79184L14.4454 5.77299L14.4356 5.75489L14.425 5.73679L14.4137 5.71945L14.4016 5.7021L14.3888 5.68551L14.3753 5.66968L14.3609 5.65384L14.3308 5.62518L14.3149 5.61161L14.2984 5.59879L14.281 5.58672L14.2636 5.57541L14.2456 5.56485L14.2267 5.5543L14.2079 5.54525L14.189 5.53695L14.1694 5.52941L14.1498 5.52338L14.1294 5.51734L14.109 5.51207L14.0887 5.5083L14.0676 5.50452L14.0472 5.50226L14.0261 5.50075L14.005 5.5L13.9846 5.50075L13.9635 5.50151L13.9424 5.50377L13.922 5.50603L13.9009 5.5098L13.8806 5.51433L13.8602 5.52036L13.8406 5.52639L13.821 5.53318L13.8014 5.54148L13.7825 5.54977L13.7637 5.55958L13.7456 5.57013L13.7275 5.58069L13.7101 5.59276L13.6936 5.60482L13.6769 5.6184L13.6619 5.63197L13.6468 5.6463L11.7381 7.55501L11.7368 7.5541L11.6775 7.51287L11.6171 7.47319L11.5558 7.43485L11.4934 7.39808L11.4301 7.36264L11.3659 7.32854L11.3006 7.29622L11.2347 7.26546L11.1678 7.23604L11.0998 7.2084L11.0312 7.18232L10.9618 7.1578L10.8918 7.13507L10.821 7.1139L10.7492 7.0945L10.677 7.0769L10.6039 7.06085L10.5303 7.04681L10.4561 7.03455L10.3814 7.02407L10.3061 7.01538L10.2303 7.00869L10.1541 7.00379ZM11.4037 8.57621L11.3795 8.55264L11.3443 8.51987L11.3082 8.48778L11.2717 8.4568L11.2342 8.42671L11.1959 8.39728L11.1571 8.36898L11.1174 8.34156L11.0773 8.31504L11.0363 8.28941L10.9948 8.26489L10.9525 8.24126L10.9099 8.21875L10.8664 8.19713L10.8223 8.17663L10.778 8.15701L10.7329 8.13873L10.6872 8.12135L10.6411 8.10508L10.5945 8.08992L10.5475 8.07588L10.4998 8.06295L10.4519 8.05136L10.4033 8.04066L10.3545 8.0313L10.305 8.02306L10.2553 8.01615L10.2049 8.01035L10.1543 8.00589L10.1033 8.00255L10.052 8.00077L10.0001 8.0001L9.94837 8.00077L9.89688 8.00255L9.84584 8.00589L9.79524 8.01035L9.74487 8.01615L9.69517 8.02306L9.64568 8.0313L9.59687 8.04066L9.54829 8.05136L9.50036 8.06295L9.45288 8.07588L9.40564 8.08992L9.35906 8.10508L9.31291 8.12135L9.26722 8.13873L9.2222 8.15701L9.17784 8.17663L9.13371 8.19713L9.09026 8.21875L9.04767 8.24126L9.00533 8.26489L8.96387 8.28941L8.92286 8.31504L8.88274 8.34156L8.84307 8.36898L8.80429 8.39728L8.76595 8.42671L8.7285 8.4568L8.69194 8.48778L8.65584 8.51987L8.62062 8.55264L8.5863 8.58607L8.55264 8.62062L8.51988 8.65584L8.48801 8.69172L8.45703 8.7285L8.42671 8.76594L8.39751 8.80406L8.36898 8.84306L8.34157 8.88273L8.31504 8.92285L8.28963 8.96364L8.26512 9.00532L8.24127 9.04745L8.21876 9.09047L8.19714 9.13371L8.17664 9.17784L8.15702 9.22219L8.13874 9.26699L8.12135 9.31269L8.10508 9.35882L8.09016 9.40541L8.07589 9.45288L8.06296 9.50036L8.05137 9.54828L8.04067 9.59687L8.03131 9.64568L8.02328 9.69494L8.01615 9.74464L8.01057 9.79524L8.00589 9.84583L8.00278 9.89688L8.00078 9.94814L8.0001 10.0001L8.00078 10.0518L8.00278 10.103L8.00589 10.1541L8.01057 10.2049L8.01615 10.2553L8.02328 10.305L8.03131 10.3542L8.04067 10.4033L8.05137 10.4516L8.06296 10.4996L8.07589 10.5473L8.09016 10.5945L8.10508 10.6411L8.12135 10.6872L8.13874 10.7329L8.15702 10.7777L8.17664 10.8223L8.19714 10.8662L8.21876 10.9097L8.24127 10.9525L8.26512 10.9948L8.28963 11.0363L8.31504 11.0771L8.34157 11.1172L8.36898 11.1569L8.39751 11.1959L8.42671 11.234L8.4568 11.2714L8.48801 11.3084L8.51988 11.3441L8.55264 11.3793L8.5863 11.4139L8.62062 11.4473L8.65584 11.4803L8.69194 11.5121L8.7285 11.5431L8.76595 11.5732L8.80429 11.6026L8.84307 11.6312L8.88274 11.6586L8.92286 11.6849L8.96387 11.7105L9.00533 11.735L9.04767 11.7587L9.09026 11.7814L9.13371 11.8028L9.17784 11.8235L9.2222 11.8429L9.26722 11.8612L9.31291 11.8786L9.35906 11.8948L9.40564 11.91L9.45288 11.924L9.50036 11.937L9.54829 11.9488L9.59687 11.9593L9.64568 11.9686L9.69517 11.9769L9.74487 11.9838L9.79524 11.9896L9.84584 11.994L9.89688 11.9974L9.94815 11.9994L10.0001 12L10.052 11.9994L10.1033 11.9974L10.1543 11.994L10.2049 11.9896L10.2553 11.9838L10.305 11.9769L10.3545 11.9686L10.4033 11.9593L10.4519 11.9488L10.4998 11.937L10.5475 11.924L10.5945 11.91L10.6411 11.8948L10.6872 11.8786L10.7329 11.8612L10.778 11.8429L10.8223 11.8235L10.8664 11.8028L10.9099 11.7814L10.9525 11.7587L10.9948 11.735L11.0363 11.7105L11.0773 11.6849L11.1174 11.6586L11.1571 11.6312L11.1959 11.6026L11.2342 11.5732L11.2717 11.5431L11.3082 11.5121L11.3443 11.4803L11.3795 11.4473L11.4139 11.4139L11.4475 11.3793L11.4803 11.3441L11.5121 11.3084L11.5434 11.2714L11.5734 11.234L11.6026 11.1959L11.6312 11.1569L11.6586 11.1172L11.6851 11.0771L11.7105 11.0363L11.735 10.9948L11.7589 10.9525L11.7814 10.9097L11.803 10.8662L11.8235 10.8223L11.8431 10.7777L11.8614 10.7329L11.8788 10.6872L11.8951 10.6411L11.91 10.5945L11.9243 10.5473L11.9372 10.4996L11.9488 10.4516L11.9595 10.4033L11.9688 10.3542L11.9769 10.305L11.984 10.2553L11.9896 10.2049L11.9943 10.1541L11.9974 10.103L11.9994 10.0518L12.0001 10.0001L11.9994 9.94814L11.9974 9.89688L11.9943 9.84583L11.9896 9.79524L11.984 9.74464L11.9769 9.69494L11.9688 9.64568L11.9595 9.59687L11.9488 9.54828L11.9372 9.50036L11.9243 9.45288L11.91 9.40541L11.8951 9.35882L11.8788 9.31269L11.8614 9.26699L11.8431 9.22219L11.8235 9.17784L11.803 9.13371L11.7814 9.09047L11.7589 9.04745L11.735 9.00532L11.7105 8.96364L11.6851 8.92285L11.6586 8.88273L11.6312 8.84306L11.6026 8.80406L11.5734 8.76594L11.5434 8.7285L11.5121 8.69172L11.4803 8.65584L11.4475 8.62062L11.4158 8.58807L11.4063 8.57905L11.4037 8.57621Z" fill="currentColor"/>
<path d="M5.51401 9L5.52802 9.00065L5.57001 9.00457L5.58401 9.00717L5.5975 9.00978L5.61151 9.01239L5.625 9.01565L5.65201 9.02348L5.66501 9.02804L5.6785 9.03261L5.6915 9.03783L5.70401 9.0437L5.71701 9.04957L5.72949 9.05543L5.742 9.06261L5.754 9.06913L5.76599 9.0763L5.77802 9.08413L5.78949 9.09196L5.80051 9.10043L5.81149 9.10891L5.82251 9.11804L5.84351 9.1363L5.85349 9.14609L5.86349 9.15652L5.87299 9.16696L5.88199 9.17739L5.89099 9.18848L5.89951 9.19957L5.90799 9.21065L5.9155 9.22239L5.92349 9.23413L5.93051 9.24587L5.9375 9.25826L5.9505 9.28304L5.95651 9.29543L5.96201 9.30848L5.96701 9.32152L5.97198 9.33457L5.9765 9.34826L5.9805 9.3613L5.98401 9.375L5.98749 9.3887L5.99051 9.40239L5.99301 9.41609L5.995 9.42978L5.99701 9.44413L5.99799 9.45783L5.99899 9.47217L6 9.48587V9.51391L5.99899 9.52826L5.99799 9.54196L5.99701 9.55565L5.995 9.57L5.99301 9.5837L5.99051 9.59739L5.98749 9.61109L5.98401 9.62478L5.9805 9.63848L5.9765 9.65152L5.97198 9.66522L5.96701 9.67826L5.96201 9.6913L5.95651 9.70435L5.9505 9.71674L5.9375 9.74152L5.93051 9.75391L5.92349 9.76565L5.9155 9.77804L5.90799 9.78913L5.89951 9.80087L5.89099 9.81196L5.87299 9.83283L5.86349 9.84326L5.85349 9.8537L5.84351 9.86348L5.82251 9.88174L5.81149 9.89087L5.80051 9.89935L5.78949 9.90783L5.77802 9.91565L5.76599 9.92348L5.742 9.93783L5.72949 9.94435L5.71701 9.95022L5.70401 9.95609L5.6915 9.96196L5.6785 9.96717L5.66501 9.97174L5.65201 9.9763L5.625 9.98413L5.61151 9.98739L5.5975 9.99065L5.58401 9.99261L5.57001 9.99522L5.556 9.99652L5.54199 9.99848L5.51401 9.99978H4.48599L4.45801 9.99848L4.444 9.99652L4.42999 9.99522L4.41599 9.99261L4.4025 9.99065L4.38849 9.98739L4.375 9.98413L4.34799 9.9763L4.33499 9.97174L4.3215 9.96717L4.3085 9.96196L4.29599 9.95609L4.28299 9.95022L4.27051 9.94435L4.258 9.93783L4.23401 9.92348L4.22198 9.91565L4.21051 9.90783L4.19949 9.89935L4.18851 9.89087L4.17749 9.88174L4.15649 9.86348L4.14651 9.8537L4.13651 9.84326L4.12701 9.83283L4.10901 9.81196L4.10049 9.80087L4.09201 9.78913L4.0845 9.77804L4.07651 9.76565L4.06949 9.75391L4.0625 9.74152L4.0495 9.71674L4.04349 9.70435L4.03799 9.6913L4.03299 9.67826L4.02802 9.66522L4.0235 9.65152L4.0195 9.63848L4.01599 9.62478L4.01251 9.61109L4.00949 9.59739L4.00699 9.5837L4.005 9.57L4.00299 9.55565L4.00201 9.54196L4.00101 9.52826L4 9.51391V9.48587L4.00101 9.47217L4.00201 9.45783L4.00299 9.44413L4.005 9.42978L4.00699 9.41609L4.00949 9.40239L4.01251 9.3887L4.01599 9.375L4.0195 9.3613L4.0235 9.34826L4.02802 9.33457L4.03299 9.32152L4.03799 9.30848L4.04349 9.29543L4.0495 9.28304L4.0625 9.25826L4.06949 9.24587L4.07651 9.23413L4.0845 9.22239L4.09201 9.21065L4.10049 9.19957L4.10901 9.18848L4.11801 9.17739L4.12701 9.16696L4.13651 9.15652L4.14651 9.14609L4.15649 9.1363L4.17749 9.11804L4.18851 9.10891L4.19949 9.10043L4.21051 9.09196L4.22198 9.08413L4.23401 9.0763L4.246 9.06913L4.258 9.06261L4.27051 9.05543L4.28299 9.04957L4.29599 9.0437L4.3085 9.03783L4.3215 9.03261L4.33499 9.02804L4.34799 9.02348L4.375 9.01565L4.38849 9.01239L4.4025 9.00978L4.41599 9.00717L4.42999 9.00457L4.47198 9.00065L4.48599 9H5.51401Z" fill="currentColor"/>
<path d="M15.528 9.00065L15.514 9H14.486L14.472 9.00065L14.43 9.00457L14.416 9.00717L14.4025 9.00978L14.3885 9.01239L14.375 9.01565L14.348 9.02348L14.335 9.02804L14.3215 9.03261L14.3085 9.03783L14.296 9.0437L14.283 9.04957L14.2705 9.05543L14.258 9.06261L14.246 9.06913L14.234 9.0763L14.222 9.08413L14.2105 9.09196L14.1995 9.10043L14.1885 9.10891L14.1775 9.11804L14.1565 9.1363L14.1465 9.14609L14.1365 9.15652L14.127 9.16696L14.118 9.17739L14.109 9.18848L14.1005 9.19957L14.092 9.21065L14.0845 9.22239L14.0765 9.23413L14.0695 9.24587L14.0625 9.25826L14.0495 9.28304L14.0435 9.29543L14.038 9.30848L14.033 9.32152L14.028 9.33457L14.0235 9.34826L14.0195 9.3613L14.016 9.375L14.0125 9.3887L14.0095 9.40239L14.007 9.41609L14.005 9.42978L14.003 9.44413L14.002 9.45783L14.001 9.47217L14 9.48587V9.51391L14.001 9.52826L14.002 9.54196L14.003 9.55565L14.005 9.57L14.007 9.5837L14.0095 9.59739L14.0125 9.61109L14.016 9.62478L14.0195 9.63848L14.0235 9.65152L14.028 9.66522L14.033 9.67826L14.038 9.6913L14.0435 9.70435L14.0495 9.71674L14.0625 9.74152L14.0695 9.75391L14.0765 9.76565L14.0845 9.77804L14.092 9.78913L14.1005 9.80087L14.109 9.81196L14.127 9.83283L14.1365 9.84326L14.1465 9.8537L14.1565 9.86348L14.1775 9.88174L14.1885 9.89087L14.1995 9.89935L14.2105 9.90783L14.222 9.91565L14.234 9.92348L14.258 9.93783L14.2705 9.94435L14.283 9.95022L14.296 9.95609L14.3085 9.96196L14.3215 9.96717L14.335 9.97174L14.348 9.9763L14.375 9.98413L14.3885 9.98739L14.4025 9.99065L14.416 9.99261L14.43 9.99522L14.444 9.99652L14.458 9.99848L14.486 9.99978H15.514L15.542 9.99848L15.556 9.99652L15.57 9.99522L15.584 9.99261L15.5975 9.99065L15.6115 9.98739L15.625 9.98413L15.652 9.9763L15.665 9.97174L15.6785 9.96717L15.6915 9.96196L15.704 9.95609L15.717 9.95022L15.7295 9.94435L15.742 9.93783L15.766 9.92348L15.778 9.91565L15.7895 9.90783L15.8005 9.89935L15.8115 9.89087L15.8225 9.88174L15.8435 9.86348L15.8535 9.8537L15.8635 9.84326L15.873 9.83283L15.891 9.81196L15.8995 9.80087L15.908 9.78913L15.9155 9.77804L15.9235 9.76565L15.9305 9.75391L15.9375 9.74152L15.9505 9.71674L15.9565 9.70435L15.962 9.6913L15.967 9.67826L15.972 9.66522L15.9765 9.65152L15.9805 9.63848L15.984 9.62478L15.9875 9.61109L15.9905 9.59739L15.993 9.5837L15.995 9.57L15.997 9.55565L15.998 9.54196L15.999 9.52826L16 9.51391V9.48587L15.999 9.47217L15.998 9.45783L15.997 9.44413L15.995 9.42978L15.993 9.41609L15.9905 9.40239L15.9875 9.3887L15.984 9.375L15.9805 9.3613L15.9765 9.34826L15.972 9.33457L15.967 9.32152L15.962 9.30848L15.9565 9.29543L15.9505 9.28304L15.9375 9.25826L15.9305 9.24587L15.9235 9.23413L15.9155 9.22239L15.908 9.21065L15.8995 9.19957L15.891 9.18848L15.882 9.17739L15.873 9.16696L15.8635 9.15652L15.8535 9.14609L15.8435 9.1363L15.8225 9.11804L15.8115 9.10891L15.8005 9.10043L15.7895 9.09196L15.778 9.08413L15.766 9.0763L15.754 9.06913L15.742 9.06261L15.7295 9.05543L15.717 9.04957L15.704 9.0437L15.6915 9.03783L15.6785 9.03261L15.665 9.02804L15.652 9.02348L15.625 9.01565L15.6115 9.01239L15.5975 9.00978L15.584 9.00717L15.57 9.00457L15.528 9.00065Z" fill="currentColor"/>
<path d="M6.479 5.25819L6.49099 5.25819L6.50243 5.25949L6.51433 5.26032L6.52611 5.26196L6.53792 5.26362L6.5497 5.26525L6.56103 5.26735L6.57272 5.26982L6.58438 5.27226L6.59561 5.27519L6.60719 5.27846L6.62941 5.28593L6.64089 5.29003L6.65154 5.29423L6.66254 5.29877L6.6731 5.30379L6.68409 5.30833L6.69453 5.31416L6.70461 5.31962L6.72549 5.33128L6.73547 5.33757L6.74499 5.34433L6.75497 5.35062L6.76437 5.35818L6.77389 5.36493L6.78329 5.37249L6.79189 5.38016L6.80083 5.38818L6.80943 5.39585L7.53349 6.11992L7.54117 6.12852L7.54919 6.13746L7.55686 6.14606L7.56442 6.15546L7.57117 6.16498L7.57873 6.17438L7.58502 6.18436L7.59177 6.19388L7.59806 6.20386L7.60972 6.22474L7.61519 6.23482L7.62102 6.24526L7.62556 6.25625L7.63058 6.26681L7.63512 6.27781L7.63932 6.28846L7.64342 6.29994L7.65088 6.32216L7.65416 6.33374L7.65708 6.34496L7.65953 6.35663L7.662 6.36832L7.66409 6.37964L7.66573 6.39143L7.66739 6.40323L7.66903 6.41502L7.66986 6.42692L7.67116 6.43836L7.67116 6.45035L7.67165 6.46191L7.67165 6.4739L7.67133 6.48557L7.67053 6.49768L7.66938 6.50944L7.66821 6.52119L7.66672 6.53261L7.6652 6.544L7.66323 6.55586L7.66091 6.56738L7.65813 6.57935L7.65546 6.59052L7.65233 6.60215L7.64534 6.62468L7.6415 6.63559L7.6372 6.64697L7.633 6.65752L7.62835 6.66856L7.61833 6.68989L7.61248 6.70065L7.60678 6.71063L7.60106 6.72058L7.59487 6.731L7.58834 6.74107L7.58192 6.75033L7.57503 6.76003L7.56815 6.76976L7.56056 6.77877L7.55332 6.78813L7.54536 6.79678L7.53743 6.80544L7.52901 6.81455L7.52071 6.82285L7.51206 6.83081L7.5034 6.83874L7.49475 6.8467L7.48539 6.85394L7.47638 6.86153L7.46665 6.8684L7.45695 6.8753L7.44769 6.88172L7.43762 6.88825L7.4272 6.89444L7.41725 6.90016L7.40681 6.90633L7.39651 6.91171L7.37518 6.92173L7.36414 6.92638L7.35313 6.93104L7.3313 6.93872L7.30877 6.94571L7.28551 6.95197L7.26248 6.95661L7.25062 6.95858L7.23923 6.9601L7.22735 6.96205L7.2156 6.96322L7.2043 6.96391L7.19219 6.96471L7.18052 6.96503L7.16853 6.96503L7.15697 6.96454L7.14498 6.96454L7.13308 6.9637L7.12164 6.96241L7.10939 6.96123L7.09759 6.95957L7.07494 6.95537L7.06325 6.95291L7.05158 6.95046L7.04036 6.94754L7.02878 6.94426L7.00656 6.9368L6.99508 6.93269L6.98443 6.9285L6.96241 6.9194L6.95188 6.9144L6.94144 6.90857L6.9309 6.90356L6.92046 6.89774L6.89052 6.87886L6.881 6.87211L6.87114 6.86501L6.86208 6.8578L6.85268 6.85024L6.84408 6.84257L6.83514 6.83455L6.82654 6.82687L6.10247 6.10281L6.0948 6.09421L6.08678 6.08527L6.07911 6.07667L6.07155 6.06727L6.06433 6.05821L6.05724 6.04835L6.05049 6.03883L6.03161 6.00889L6.02578 5.99845L6.02078 5.98791L6.01495 5.97747L6.00995 5.96694L6.00085 5.94492L5.99665 5.93427L5.99255 5.92279L5.98509 5.90057L5.98181 5.88899L5.97888 5.87776L5.97644 5.8661L5.97397 5.85441L5.96977 5.83176L5.96811 5.81996L5.96694 5.80771L5.96564 5.79627L5.96481 5.78437L5.96481 5.77238L5.96432 5.76082L5.96432 5.74883L5.96464 5.73716L5.96544 5.72505L5.96613 5.71375L5.9673 5.702L5.96925 5.69012L5.97076 5.67872L5.97274 5.66687L5.97738 5.64384L5.98364 5.62058L5.99063 5.59805L5.9983 5.57622L6.00297 5.56521L6.00762 5.55417L6.01764 5.53284L6.02302 5.52254L6.02919 5.5121L6.03491 5.50215L6.0411 5.49173L6.04763 5.48166L6.05405 5.4724L6.06094 5.4627L6.06782 5.45297L6.07541 5.44396L6.08265 5.4346L6.09061 5.42595L6.09854 5.41729L6.1065 5.40864L6.1148 5.40034L6.12391 5.39192L6.13257 5.38399L6.14122 5.37603L6.15058 5.36879L6.15959 5.3612L6.16932 5.35432L6.17902 5.34743L6.18828 5.34101L6.19835 5.33448L6.20877 5.32829L6.21872 5.32257L6.2287 5.31686L6.23946 5.31102L6.26079 5.301L6.27183 5.29635L6.28238 5.29215L6.29376 5.28784L6.30467 5.28401L6.3272 5.27702L6.33883 5.27389L6.35 5.27122L6.36197 5.26844L6.37349 5.26612L6.38534 5.26414L6.39674 5.26263L6.40816 5.26114L6.4199 5.25997L6.43167 5.25882L6.44378 5.25802L6.45545 5.2577L6.46744 5.2577L6.479 5.25819Z" fill="currentColor"/>
<path d="M10.5278 4.00101L10.5141 4H10.4861L10.4717 4.00101L10.458 4.00201L10.4443 4.00299L10.43 4.005L10.4163 4.00699L10.4026 4.00949L10.3889 4.01251L10.3752 4.01599L10.3615 4.0195L10.3485 4.0235L10.3348 4.02802L10.3217 4.03299L10.3087 4.03799L10.2957 4.04349L10.2833 4.0495L10.2585 4.0625L10.2461 4.06949L10.2343 4.07651L10.222 4.0845L10.2109 4.09201L10.1991 4.10049L10.188 4.10901L10.1672 4.12701L10.1567 4.13651L10.1463 4.14651L10.1365 4.15649L10.1183 4.17749L10.1091 4.18851L10.1007 4.19949L10.0922 4.21051L10.0843 4.22198L10.0765 4.23401L10.0622 4.258L10.0557 4.27051L10.0498 4.28299L10.0439 4.29599L10.038 4.3085L10.0328 4.3215L10.0283 4.33499L10.0237 4.34799L10.0159 4.375L10.0126 4.38849L10.0093 4.4025L10.0074 4.41599L10.0048 4.42999L10.0035 4.444L10.0015 4.45801L10.0002 4.48599V5.51401L10.0015 5.54199L10.0035 5.556L10.0048 5.57001L10.0074 5.58401L10.0093 5.5975L10.0126 5.61151L10.0159 5.625L10.0237 5.65201L10.0283 5.66501L10.0328 5.6785L10.038 5.6915L10.0439 5.70401L10.0498 5.71701L10.0557 5.72949L10.0622 5.742L10.0765 5.76599L10.0843 5.77802L10.0922 5.78949L10.1007 5.80051L10.1091 5.81149L10.1183 5.82251L10.1365 5.84351L10.1463 5.85349L10.1567 5.86349L10.1672 5.87299L10.188 5.89099L10.1991 5.89951L10.2109 5.90799L10.222 5.9155L10.2343 5.92349L10.2461 5.93051L10.2585 5.9375L10.2833 5.9505L10.2957 5.95651L10.3087 5.96201L10.3217 5.96701L10.3348 5.97198L10.3485 5.9765L10.3615 5.9805L10.3752 5.98401L10.3889 5.98749L10.4026 5.99051L10.4163 5.99301L10.43 5.995L10.4443 5.99701L10.458 5.99799L10.4717 5.99899L10.4861 6H10.5141L10.5278 5.99899L10.5422 5.99799L10.5559 5.99701L10.5702 5.995L10.5839 5.99301L10.5976 5.99051L10.6113 5.98749L10.625 5.98401L10.6387 5.9805L10.6517 5.9765L10.6654 5.97198L10.6785 5.96701L10.6915 5.96201L10.7046 5.95651L10.717 5.9505L10.7417 5.9375L10.7541 5.93051L10.7659 5.92349L10.7776 5.9155L10.7893 5.90799L10.8004 5.89951L10.8115 5.89099L10.8226 5.88199L10.833 5.87299L10.8435 5.86349L10.8539 5.85349L10.8637 5.84351L10.882 5.82251L10.8911 5.81149L10.8996 5.80051L10.908 5.78949L10.9159 5.77802L10.9237 5.76599L10.9309 5.754L10.9374 5.742L10.9446 5.72949L10.9504 5.71701L10.9563 5.70401L10.9622 5.6915L10.9674 5.6785L10.972 5.66501L10.9765 5.65201L10.9843 5.625L10.9876 5.61151L10.9902 5.5975L10.9928 5.58401L10.9954 5.57001L10.9993 5.52802L11 5.51401V4.48599L10.9993 4.47198L10.9954 4.42999L10.9928 4.41599L10.9902 4.4025L10.9876 4.38849L10.9843 4.375L10.9765 4.34799L10.972 4.33499L10.9674 4.3215L10.9622 4.3085L10.9563 4.29599L10.9504 4.28299L10.9446 4.27051L10.9374 4.258L10.9309 4.246L10.9237 4.23401L10.9159 4.22198L10.908 4.21051L10.8996 4.19949L10.8911 4.18851L10.882 4.17749L10.8637 4.15649L10.8539 4.14651L10.8435 4.13651L10.833 4.12701L10.8226 4.11801L10.8115 4.10901L10.8004 4.10049L10.7893 4.09201L10.7776 4.0845L10.7659 4.07651L10.7541 4.06949L10.7417 4.0625L10.717 4.0495L10.7046 4.04349L10.6915 4.03799L10.6785 4.03299L10.6654 4.02802L10.6517 4.0235L10.6387 4.0195L10.625 4.01599L10.6113 4.01251L10.5976 4.00949L10.5839 4.00699L10.5702 4.005L10.5559 4.00299L10.5422 4.00201L10.5278 4.00101Z" fill="currentColor"/>
<path fill-rule="evenodd" clip-rule="evenodd" d="M10.2058 2.00267L10.1029 2.00067L9.99989 2L9.89692 2.00067L9.79395 2.00267L9.69098 2.00602L9.58867 2.0107L9.487 2.01672L9.38538 2.0234L9.28376 2.0321L9.18279 2.04146L9.08248 2.05216L8.9822 2.06486L8.88254 2.07823L8.78292 2.09228L8.68395 2.10832L8.58498 2.12504L8.4867 2.14376L8.38908 2.16315L8.29146 2.18388L8.19449 2.20528L8.09756 2.22801L8.00194 2.25209L7.90631 2.2775L7.81069 2.30424L7.71642 2.33166L7.62214 2.36041L7.52852 2.38983L7.43489 2.42126L7.34262 2.45335L7.25034 2.48612L7.15872 2.52022L7.06714 2.55566L6.97686 2.59244L6.88659 2.62988L6.79766 2.668L6.70873 2.70745L6.62045 2.74823L6.53221 2.78969L6.44528 2.83249L6.27277 2.92075L6.18715 2.96689L6.10291 3.01369L6.01868 3.06117L5.93509 3.10998L5.85216 3.15946L5.76993 3.21028L5.689 3.26177L5.60811 3.31392L5.52787 3.36742L5.44829 3.42225L5.3694 3.47708L5.29182 3.53325L5.21427 3.59075L5.13738 3.64893L5.0618 3.70777L4.98626 3.76728L4.91202 3.82813L4.83848 3.88964L4.76559 3.9525L4.69339 4.01535L4.6218 4.07955L4.55095 4.14441L4.48141 4.2106L4.41252 4.2768L4.34432 4.34434L4.27678 4.41254L4.20993 4.48208L4.14439 4.55162L4.07954 4.6225L4.01534 4.69338L3.95183 4.76559L3.88964 4.83848L3.82744 4.9127L3.76728 4.98692L3.70708 5.06181L3.64823 5.13804L3.59008 5.21494L3.53323 5.29183L3.47707 5.37007L3.42156 5.44897L3.36741 5.52854L3.3139 5.60811L3.26109 5.68902L3.20959 5.7706L3.15878 5.85284L3.10931 5.93576L3.0605 6.01867L3.01304 6.10292L2.96622 6.18784L2.92076 6.27343L2.87595 6.35902L2.83248 6.44595L2.78967 6.53287L2.74825 6.62047L2.70744 6.70873L2.66797 6.79766L2.6292 6.88727L2.59177 6.97753L2.55566 7.0678L2.52023 7.15874L2.48611 7.25035L2.45269 7.34263L2.42057 7.43557L2.38984 7.52851L2.35972 7.6228L2.33099 7.71641L2.30356 7.81136L2.27748 7.90631L2.2521 8.00193L2.22802 8.09822L2.20459 8.1945L2.18321 8.29213L2.16247 8.38908L2.14309 8.48738L2.12505 8.58567L2.10766 8.68396L2.09228 8.78293L2.07754 8.88256L2.0642 8.98286L2.05216 9.08316L2.04147 9.18346L2.03143 9.28443L2.02339 9.38539L2.01604 9.48703L2.01004 9.58934L2.006 9.69164L2.00265 9.79395L2.00065 9.89692L2 10.0006L2.00065 10.1035L2.00265 10.2065L2.006 10.3088L2.01004 10.4111L2.01604 10.5134L2.02339 10.6151L2.03143 10.716L2.04147 10.817L2.05216 10.918L2.0642 11.0183L2.07754 11.1179L2.09228 11.2175L2.10766 11.3165L2.12505 11.4155L2.14309 11.5138L2.16247 11.6114L2.18321 11.709L2.20459 11.806L2.22802 11.9022L2.2521 11.9985L2.27748 12.0942L2.30356 12.1891L2.33099 12.2841L2.35972 12.3783L2.38984 12.4719L2.42057 12.5649L2.45269 12.6578L2.48611 12.7501L2.52023 12.8417L2.55566 12.9327L2.59177 13.0236L2.6292 13.1132L2.66797 13.2028L2.70744 13.2917L2.74825 13.38L2.78967 13.4676L2.83248 13.5552L2.87595 13.6414L2.92076 13.7277L2.96622 13.8126L3.01304 13.8975L3.0605 13.9818L3.10931 14.0647L3.15878 14.1476L3.20959 14.2299L3.26109 14.3114L3.3139 14.3923L3.36741 14.4726L3.42156 14.5522L3.47707 14.6304L3.53323 14.7086L3.59008 14.7862L3.64823 14.8624L3.70708 14.9386L3.82744 15.0884L3.88964 15.162L3.95183 15.2349L4.01534 15.3071L4.07954 15.3786L4.14439 15.4488L4.20993 15.519L4.27678 15.5879L4.34432 15.6561L4.41252 15.7237L4.48141 15.7899L4.55095 15.8561L4.6218 15.9209L4.69339 15.9851L4.76559 16.0486L4.83848 16.1108L4.91202 16.1723L4.98626 16.2332L5.0618 16.2927L5.13738 16.3515L5.21427 16.4097L5.29182 16.4672L5.3694 16.5234L5.44829 16.5782L5.52787 16.633L5.60811 16.6865L5.689 16.7387L5.76993 16.7902L5.85216 16.841L5.93509 16.8905L6.01868 16.9393L6.10291 16.9874L6.18715 17.0336L6.27277 17.0797L6.35901 17.1245L6.44528 17.168L6.53221 17.2108L6.62045 17.2522L6.70873 17.293L6.79766 17.3325L6.88659 17.3712L6.97686 17.4087L7.06714 17.4448L7.15872 17.4802L7.25034 17.5143L7.34262 17.5478L7.43489 17.5799L7.52852 17.6106L7.62214 17.64L7.71642 17.6688L7.81069 17.6962L7.90631 17.723L8.00194 17.7484L8.09756 17.7724L8.19449 17.7952L8.29146 17.8172L8.38908 17.838L8.4867 17.8574L8.58498 17.8754L8.68395 17.8921L8.78292 17.9082L8.88254 17.9229L8.9822 17.9363L9.08248 17.9483L9.18279 17.959L9.28376 17.9684L9.38538 17.9771L9.487 17.9837L9.58867 17.9898L9.69098 17.9944L9.79395 17.9978L9.89692 17.9998L9.99989 18.0005L10.1029 17.9998L10.2058 17.9978L10.3088 17.9944L10.4111 17.9898L10.5128 17.9837L10.6144 17.9771L10.716 17.9684L10.817 17.959L10.9173 17.9483L11.0176 17.9363L11.1172 17.9229L11.2169 17.9082L11.3158 17.8921L11.4148 17.8754L11.5131 17.8574L11.6107 17.838L11.7083 17.8172L11.8053 17.7952L11.9022 17.7724L11.9978 17.7484L12.0935 17.723L12.1891 17.6962L12.2834 17.6688L12.3777 17.64L12.4713 17.6106L12.5649 17.5799L12.6572 17.5478L12.7494 17.5143L12.8411 17.4802L12.9326 17.4448L13.0229 17.4087L13.1132 17.3712L13.2021 17.3325L13.2911 17.293L13.3793 17.2522L13.4676 17.2108L13.5545 17.168L13.6408 17.1245L13.727 17.0797L13.8126 17.0336L13.8969 16.9874L13.9811 16.9393L14.0647 16.8905L14.1476 16.841L14.2298 16.7902L14.3108 16.7387L14.3917 16.6865L14.4719 16.633L14.5515 16.5782L14.6304 16.5234L14.708 16.4672L14.7855 16.4097L14.8624 16.3515L14.938 16.2927L15.0135 16.2332L15.0878 16.1723L15.1613 16.1108L15.2342 16.0486L15.3064 15.9851L15.378 15.9209L15.4488 15.8561L15.5184 15.7899L15.5873 15.7237L15.6555 15.6561L15.723 15.5879L15.7898 15.519L15.8554 15.4488L15.9202 15.3786L15.9844 15.3071L16.0479 15.2349L16.1101 15.162L16.1723 15.0884L16.2927 14.9386L16.3515 14.8624L16.4097 14.7862L16.4666 14.7086L16.5227 14.6304L16.5782 14.5522L16.6324 14.4726L16.6859 14.3923L16.7387 14.3114L16.7902 14.2299L16.841 14.1476L16.8905 14.0647L16.9393 13.9818L16.9867 13.8975L17.0336 13.8126L17.079 13.7277L17.1238 13.6414L17.1673 13.5552L17.2101 13.4676L17.2515 13.38L17.2923 13.2917L17.3318 13.2028L17.3706 13.1132L17.408 13.0236L17.4441 12.9327L17.4795 12.8417L17.5137 12.7501L17.5468 12.6586L17.5482 12.655L17.5488 12.6528L17.5792 12.5649L17.6099 12.4719L17.6401 12.3783L17.6688 12.2841L17.6962 12.1891L17.7223 12.0942L17.7477 11.9985L17.7718 11.9022L17.7952 11.806L17.8166 11.709L17.8373 11.6114L17.8567 11.5138L17.8747 11.4155L17.8921 11.3165L17.9075 11.2175L17.9222 11.1179L17.9356 11.0183L17.9476 10.918L17.9583 10.817L17.9684 10.716L17.9764 10.6151L17.9837 10.5134L17.9897 10.4111L17.9938 10.3088L17.9971 10.2065L17.9991 10.1035L17.9998 10.0006L17.9991 9.89692L17.9971 9.79395L17.9938 9.69164L17.9897 9.58934L17.9837 9.48703L17.9764 9.38539L17.9684 9.28443L17.9583 9.18346L17.9476 9.08316L17.9356 8.98286L17.9222 8.88256L17.9075 8.78293L17.8921 8.68396L17.8747 8.58567L17.8567 8.48738L17.8373 8.38908L17.8166 8.29213L17.7952 8.1945L17.7718 8.09822L17.7477 8.00193L17.7223 7.90631L17.6962 7.81136L17.6688 7.71641L17.6401 7.6228L17.6099 7.52851L17.5792 7.43557L17.5471 7.34263L17.5137 7.25035L17.4795 7.15874L17.4441 7.0678L17.408 6.97753L17.3706 6.88727L17.3318 6.79766L17.2923 6.70873L17.2515 6.62047L17.2101 6.53287L17.1673 6.44595L17.1238 6.35902L17.079 6.27343L17.0336 6.18784L16.9867 6.10292L16.9393 6.01867L16.8905 5.93576L16.841 5.85284L16.7902 5.7706L16.7387 5.68902L16.6859 5.60811L16.6324 5.52854L16.5782 5.44897L16.5227 5.37007L16.4666 5.29183L16.4097 5.21494L16.3515 5.13804L16.2927 5.06181L16.2325 4.98692L16.1723 4.9127L16.1101 4.83848L16.0479 4.76559L15.9844 4.69338L15.9202 4.6225L15.8554 4.55162L15.7898 4.48208L15.723 4.41254L15.6555 4.34434L15.5873 4.2768L15.5184 4.2106L15.4488 4.14441L15.378 4.07955L15.3064 4.01535L15.2342 3.9525L15.1613 3.88964L15.0878 3.82813L15.0135 3.76728L14.938 3.70777L14.8624 3.64893L14.7855 3.59075L14.708 3.53325L14.6304 3.47708L14.5515 3.42225L14.4719 3.36742L14.3917 3.31392L14.3108 3.26177L14.2298 3.21028L14.1476 3.15946L14.0647 3.10998L13.9811 3.06117L13.8969 3.01369L13.8126 2.96689L13.727 2.92075L13.5545 2.83249L13.4676 2.78969L13.3793 2.74823L13.2911 2.70745L13.2021 2.668L13.1132 2.62988L13.0229 2.59244L12.9326 2.55566L12.8411 2.52022L12.7494 2.48612L12.6572 2.45335L12.5649 2.42126L12.4713 2.38983L12.3777 2.36041L12.2834 2.33166L12.1891 2.30424L12.0935 2.2775L11.9978 2.25209L11.9022 2.22801L11.8053 2.20528L11.7083 2.18388L11.6107 2.16315L11.5131 2.14376L11.4148 2.12504L11.3158 2.10832L11.2169 2.09228L11.1172 2.07823L11.0176 2.06486L10.9173 2.05216L10.817 2.04146L10.716 2.0321L10.6144 2.0234L10.5128 2.01672L10.4111 2.0107L10.3088 2.00602L10.2058 2.00267ZM16.7099 11.9985L16.7092 12.001H13.7413L13.6932 12.003L13.6453 12.01L13.5972 12.022L13.5522 12.038L13.5082 12.059L13.4662 12.083L13.4263 12.112L13.3903 12.145L13.3572 12.18L13.3282 12.219L13.2922 12.272L13.2573 12.322L13.2222 12.371L13.1483 12.467L13.1113 12.514L13.0732 12.561L13.0342 12.607L12.9542 12.697L12.9133 12.741L12.8712 12.785L12.7863 12.87L12.7422 12.912L12.6982 12.953L12.6082 13.033L12.5623 13.072L12.4683 13.148L12.4202 13.185L12.3723 13.221L12.3232 13.257L12.1732 13.359L12.1223 13.391L12.0703 13.423L12.0182 13.454L11.9662 13.484L11.9133 13.514L11.8593 13.543L11.8052 13.57L11.7512 13.598L11.6962 13.624L11.6403 13.649L11.5853 13.674L11.5283 13.698L11.4722 13.721L11.4152 13.743L11.2993 13.785L11.2413 13.804L11.1823 13.823L11.1232 13.841L11.0632 13.858L11.0032 13.874L10.9432 13.889L10.8832 13.903L10.8223 13.916L10.7603 13.928L10.6992 13.94L10.6373 13.95L10.5742 13.96L10.5123 13.968L10.4492 13.976L10.3862 13.982L10.3223 13.988L10.1942 13.996L10.1302 13.999L10.0002 14.001L9.87024 13.999L9.80627 13.996L9.67822 13.988L9.61426 13.982L9.55127 13.976L9.48822 13.968L9.42627 13.96L9.36322 13.95L9.30127 13.94L9.24023 13.928L9.17822 13.916L9.11725 13.903L9.05725 13.889L8.99725 13.874L8.93726 13.858L8.87726 13.841L8.81824 13.823L8.75922 13.804L8.70123 13.785L8.64325 13.764L8.58624 13.743L8.52826 13.721L8.47223 13.698L8.41522 13.674L8.36023 13.649L8.30426 13.624L8.24927 13.598L8.19525 13.571L8.14124 13.543L8.08722 13.514L8.03424 13.484L7.98224 13.454L7.93024 13.423L7.87823 13.391L7.82727 13.359L7.67725 13.257L7.62823 13.221L7.58026 13.185L7.53223 13.148L7.43823 13.072L7.39227 13.033L7.30225 12.953L7.25824 12.912L7.21423 12.87L7.17126 12.828L7.12927 12.785L7.04724 12.697L7.00623 12.652L6.96625 12.607L6.92725 12.561L6.88922 12.514L6.85223 12.467L6.77826 12.371L6.74323 12.322L6.70825 12.272L6.67224 12.219L6.64325 12.181L6.61023 12.145L6.57422 12.112L6.53424 12.083L6.49323 12.059L6.44922 12.038L6.40326 12.022L6.35522 12.01L6.30725 12.003L6.25922 12.001H3.2906L3.28986 11.9985L3.26578 11.9156L3.24236 11.8327L3.22032 11.7491L3.19959 11.6649L3.17951 11.5806L3.16012 11.4957L3.14208 11.4108L3.12535 11.3252L3.10931 11.2389L3.09458 11.1527L3.08054 11.0664L3.06785 10.9788L3.0565 10.8919L3.04577 10.8043L3.03642 10.716L3.02773 10.6278L3.02038 10.5388L3.01434 10.4499L3.009 10.3603L3.005 10.2707L3.0023 10.1811L3.0003 10.0908L2.99965 10.0006L3.0003 9.90963L3.0023 9.81936L3.005 9.72976L3.009 9.64015L3.01434 9.55055L3.02038 9.46162L3.02773 9.37269L3.03642 9.28443L3.04577 9.19616L3.0565 9.10857L3.06785 9.02164L3.08054 8.93471L3.09458 8.84779L3.10931 8.76153L3.12535 8.67527L3.14208 8.58968L3.16012 8.50476L3.17951 8.41984L3.19959 8.33559L3.22032 8.25134L3.24236 8.16776L3.26578 8.08484L3.28986 8.00193L3.3146 7.91968L3.34067 7.83811L3.36806 7.75653L3.39618 7.67495L3.42491 7.59471L3.45499 7.51447L3.48576 7.4349L3.51719 7.356L3.54996 7.2771L3.58408 7.19886L3.61816 7.1213L3.65358 7.04373L3.69039 6.96684L3.72782 6.89061L3.76594 6.81505L3.80471 6.74016L3.84483 6.66527L3.88564 6.59105L3.92776 6.51749L3.97053 6.44461L4.01334 6.37239L4.05815 6.30018L4.10296 6.2293L4.14908 6.15842L4.19589 6.08821L4.24335 6.01867L4.29151 5.9498L4.34098 5.88159L4.39113 5.81339L4.44195 5.74652L4.49345 5.68033L4.54561 5.61413L4.59907 5.54927L4.65327 5.48441L4.70743 5.42089L4.76293 5.35736L4.81909 5.29518L4.8759 5.23299L4.9334 5.17214L4.99225 5.11129L5.05111 5.05178L5.1113 4.99227L5.17146 4.9341L5.23231 4.87659L5.29451 4.81976L5.35736 4.76359L5.42021 4.70809L5.48441 4.65326L5.5486 4.59977L5.61411 4.54627L5.67965 4.49412L5.74585 4.44263L5.81339 4.39114L5.88094 4.34166L5.94913 4.29218L6.01798 4.24404L6.08753 4.19589L6.15776 4.14975L6.22861 4.10362L6.30016 4.05815L6.3717 4.01402L6.44394 3.97055L6.51748 3.92776L6.59102 3.8863L6.66526 3.84551L6.7395 3.80539L6.89058 3.72783L6.96682 3.69105L7.04371 3.65427L7.12064 3.61884L7.19818 3.58406L7.27642 3.55063L7.35531 3.51787L7.43424 3.48577L7.51448 3.45501L7.59402 3.42492L7.67495 3.39617L7.75584 3.36809L7.83742 3.34134L7.91901 3.31526L8.00194 3.28985L8.08417 3.26578L8.16776 3.24305L8.25134 3.22098L8.33492 3.19958L8.41985 3.17952L8.50409 3.1608L8.58967 3.14275L8.67525 3.12536L8.76084 3.10998L8.84711 3.0946L8.93404 3.08123L9.02097 3.06853L9.10855 3.05649L9.19614 3.04579L9.28441 3.03643L9.37269 3.02841L9.46097 3.02105L9.5499 3.01436L9.63948 3.00968L9.72906 3.00567L9.81934 3.00233L9.90961 3.00099L9.99989 3.00032L10.0902 3.00099L10.1804 3.00233L10.2707 3.00567L10.3603 3.00968L10.4499 3.01436L10.5389 3.02105L10.6271 3.02841L10.7154 3.03643L10.8036 3.04579L10.8912 3.05649L10.9788 3.06853L11.0657 3.08123L11.1527 3.0946L11.2389 3.10998L11.3245 3.12536L11.4101 3.14275L11.4957 3.1608L11.5806 3.17952L11.6649 3.19958L11.7484 3.22098L11.832 3.24305L11.9156 3.26578L11.9978 3.28985L12.0808 3.31526L12.1624 3.34134L12.2439 3.36809L12.3248 3.39617L12.4058 3.42492L12.4853 3.45501L12.5655 3.48577L12.6445 3.51787L12.7234 3.55063L12.8016 3.58406L12.8792 3.61884L12.9561 3.65427L13.033 3.69105L13.1092 3.72783L13.2603 3.80539L13.3345 3.84551L13.4088 3.8863L13.4823 3.92776L13.5558 3.97055L13.6281 4.01402L13.6996 4.05815L13.7712 4.10362L13.842 4.14975L13.9123 4.19589L13.9818 4.24404L14.0506 4.29218L14.1188 4.34166L14.1864 4.39114L14.2539 4.44263L14.3201 4.49412L14.3857 4.54627L14.4512 4.59977L14.5154 4.65326L14.5796 4.70809L14.6431 4.76359L14.7053 4.81976L14.7675 4.87659L14.8283 4.9341L14.8885 4.99227L14.9487 5.05178L15.0075 5.11129L15.0664 5.17214L15.1239 5.23299L15.1807 5.29518L15.2368 5.35736L15.2923 5.42089L15.3465 5.48441L15.4007 5.54927L15.4542 5.61413L15.5063 5.68033L15.5578 5.74652L15.6086 5.81339L15.6588 5.88159L15.7083 5.9498L15.7564 6.01867L15.8039 6.08821L15.8507 6.15842L15.8969 6.2293L15.9416 6.30018L15.9864 6.37239L16.0299 6.44461L16.072 6.51749L16.1141 6.59105L16.155 6.66527L16.1951 6.74016L16.2338 6.81505L16.272 6.89061L16.3094 6.96684L16.3462 7.04373L16.3816 7.1213L16.4157 7.19886L16.4498 7.2771L16.4826 7.356L16.514 7.4349L16.5448 7.51447L16.5749 7.59471L16.6036 7.67495L16.6317 7.75653L16.6591 7.83811L16.6852 7.91968L16.7099 8.00193L16.734 8.08484L16.7574 8.16776L16.7795 8.25134L16.8002 8.33559L16.8203 8.41984L16.8397 8.50476L16.8577 8.58968L16.8744 8.67527L16.8905 8.76153L16.9052 8.84779L16.9192 8.93471L16.9319 9.02164L16.9433 9.10857L16.954 9.19616L16.9634 9.28443L16.972 9.37269L16.9794 9.46162L16.9854 9.55055L16.9908 9.64015L16.9948 9.72976L16.9975 9.81936L16.9995 9.90963L17.0001 10.0006L16.9995 10.0908L16.9975 10.1811L16.9948 10.2707L16.9908 10.3603L16.9854 10.4499L16.9794 10.5388L16.972 10.6278L16.9634 10.716L16.954 10.8043L16.9433 10.8919L16.9319 10.9788L16.9192 11.0664L16.9052 11.1527L16.8905 11.2389L16.8744 11.3252L16.8577 11.4108L16.8397 11.4957L16.8203 11.5806L16.8002 11.6649L16.7795 11.7491L16.7574 11.8327L16.734 11.9156L16.7099 11.9985ZM6.00122 13.001H3.67476L3.69039 13.0336L3.72782 13.1099L3.76594 13.1854L3.80471 13.2603L3.84483 13.3352L3.88564 13.4094L3.92776 13.483L3.97053 13.5559L4.01334 13.6281L4.05815 13.7003L4.10296 13.7718L4.14908 13.842L4.19589 13.9122L4.24335 13.9818L4.29151 14.0507L4.34098 14.1195L4.39113 14.1871L4.44195 14.2539L4.49345 14.3208L4.54561 14.3863L4.59907 14.4519L4.70743 14.5802L4.76293 14.6431L4.81909 14.706L4.8759 14.7675L4.9334 14.829L4.99225 14.8892L5.05111 14.9487L5.1113 15.0082L5.17146 15.0664L5.23231 15.1239L5.29451 15.1807L5.35736 15.2369L5.42021 15.2924L5.48441 15.3472L5.5486 15.4014L5.67965 15.507L5.74585 15.5585L5.81339 15.6093L5.88094 15.6595L5.94913 15.7083L6.01798 15.7571L6.08753 15.8046L6.15776 15.8514L6.22861 15.8968L6.30016 15.9423L6.3717 15.9864L6.44394 16.0299L6.51748 16.0727L6.59102 16.1142L6.66526 16.1549L6.7395 16.1951L6.81504 16.2345L6.89058 16.2726L6.96682 16.3101L7.04371 16.3462L7.12064 16.3816L7.19818 16.4164L7.27642 16.4498L7.35531 16.4826L7.43424 16.5147L7.51448 16.5454L7.59402 16.5755L7.67495 16.6043L7.75584 16.6324L7.83742 16.6591L7.91901 16.6852L8.00194 16.7106L8.08417 16.7347L8.16776 16.7574L8.25134 16.7795L8.33492 16.8009L8.41985 16.8209L8.50409 16.8397L8.58967 16.8577L8.67525 16.8751L8.76084 16.8911L8.84711 16.9059L9.02097 16.9326L9.10855 16.944L9.19614 16.9547L9.28441 16.964L9.37269 16.9727L9.46097 16.9801L9.5499 16.9861L9.63948 16.9914L9.72906 16.9955L9.81934 16.9981L9.90961 16.9995L9.99989 17.0001L10.0902 16.9995L10.1804 16.9981L10.2707 16.9955L10.3603 16.9914L10.4499 16.9861L10.5389 16.9801L10.6271 16.9727L10.7154 16.964L10.8036 16.9547L10.8912 16.944L10.9788 16.9326L11.1527 16.9059L11.2389 16.8911L11.3245 16.8751L11.4101 16.8577L11.4957 16.8397L11.5806 16.8209L11.6649 16.8009L11.7484 16.7795L11.832 16.7574L11.9156 16.7347L11.9978 16.7106L12.0808 16.6852L12.1624 16.6591L12.2439 16.6324L12.3248 16.6043L12.4058 16.5755L12.4853 16.5454L12.5655 16.5147L12.6445 16.4826L12.7234 16.4498L12.8016 16.4164L12.8792 16.3816L12.9561 16.3462L13.033 16.3101L13.1092 16.2726L13.1847 16.2345L13.2603 16.1951L13.3345 16.1549L13.4088 16.1142L13.4823 16.0727L13.5558 16.0299L13.6281 15.9864L13.6996 15.9423L13.7712 15.8968L13.842 15.8514L13.9123 15.8046L13.9818 15.7571L14.0506 15.7083L14.1188 15.6595L14.1864 15.6093L14.2539 15.5585L14.3201 15.507L14.4512 15.4014L14.5154 15.3472L14.5796 15.2924L14.6431 15.2369L14.7053 15.1807L14.7675 15.1239L14.8283 15.0664L14.8885 15.0082L14.9487 14.9487L15.0075 14.8892L15.0664 14.829L15.1239 14.7675L15.1807 14.706L15.2368 14.6431L15.2923 14.5802L15.4007 14.4519L15.4542 14.3863L15.5063 14.3208L15.5578 14.2539L15.6086 14.1871L15.6588 14.1195L15.7083 14.0507L15.7564 13.9818L15.8039 13.9122L15.8507 13.842L15.8969 13.7718L15.9416 13.7003L15.9864 13.6281L16.0299 13.5559L16.072 13.483L16.1141 13.4094L16.155 13.3352L16.1951 13.2603L16.2338 13.1854L16.272 13.1099L16.3094 13.0336L16.325 13.001H13.9993L13.9813 13.025L13.9352 13.084L13.8882 13.143L13.7922 13.259L13.6923 13.371L13.6412 13.427L13.5892 13.481L13.5363 13.535L13.4282 13.639L13.3732 13.691L13.3173 13.741L13.2603 13.791L13.2032 13.839L13.1442 13.887L13.0853 13.934L13.0262 13.98L12.9662 14.026L12.9042 14.07L12.8433 14.113L12.7803 14.156L12.7172 14.198L12.6542 14.238L12.5892 14.278L12.5242 14.317L12.4583 14.355L12.3923 14.392L12.2582 14.462L12.1893 14.496L12.1212 14.529L12.0513 14.561L11.9822 14.592L11.9113 14.622L11.8403 14.651L11.7692 14.678L11.6973 14.705L11.5513 14.755L11.4033 14.801L11.3292 14.822L11.2543 14.842L11.1782 14.861L11.1033 14.878L11.0262 14.895L10.8723 14.925L10.7952 14.938L10.6392 14.96L10.5602 14.97L10.4813 14.978L10.4022 14.985L10.2422 14.995L10.1613 14.998L10.0812 15L10.0002 15.001L9.91925 15L9.83826 14.998L9.75824 14.995L9.59827 14.985L9.51923 14.978L9.44025 14.97L9.36127 14.96L9.20526 14.938L9.12823 14.925L9.05023 14.91L8.97424 14.895L8.89722 14.878L8.82227 14.861L8.74622 14.842L8.67126 14.822L8.59723 14.801L8.44922 14.755L8.30322 14.705L8.23126 14.678L8.16022 14.651L8.08923 14.622L8.01825 14.592L7.94922 14.561L7.87927 14.529L7.81122 14.496L7.74225 14.462L7.60822 14.392L7.54224 14.355L7.47626 14.317L7.41125 14.278L7.28326 14.198L7.22021 14.156L7.15723 14.113L7.09625 14.07L7.03424 14.026L6.91425 13.934L6.85626 13.887L6.79724 13.839L6.74023 13.791L6.68323 13.741L6.62726 13.691L6.57227 13.64L6.51825 13.588L6.46423 13.535L6.41125 13.481L6.35925 13.427L6.30823 13.371L6.20825 13.259L6.11224 13.143L6.06525 13.084L6.01923 13.025L6.00122 13.001Z" fill="currentColor"/>
</svg>
