<svg width="20" height="20" viewBox="0 0 20 20" fill="none" xmlns="http://www.w3.org/2000/svg">
<path fill-rule="evenodd" clip-rule="evenodd" d="M11.0985 2.004L11.0495 2.001L11.0055 2H8.99353L8.94952 2.001L8.90051 2.004L8.8515 2.01L8.80353 2.019L8.75549 2.03L8.7085 2.043L8.66254 2.058L8.61652 2.076L8.57251 2.095L8.5285 2.117L8.48651 2.141L8.44452 2.167L8.40454 2.196L8.36554 2.226L8.32849 2.258L8.29254 2.292L8.25848 2.328L8.22552 2.366L8.1955 2.405L8.16754 2.445L8.14154 2.486L8.11749 2.529L8.09552 2.572L8.0755 2.617L8.0575 2.662L8.04254 2.709L8.02954 2.756L8.01849 2.804L8.0105 2.852L8.00452 2.901L8.00049 2.95L7.99951 2.994V4H4.49957L4.45375 4.002L4.40792 4.008L4.363 4.019L4.31896 4.033L4.27684 4.052L4.2365 4.074L4.198 4.101L4.16315 4.13L4.13014 4.163L4.10082 4.198L4.07424 4.236L4.05226 4.277L4.03301 4.319L4.0183 4.363L4.00822 4.408L4.00179 4.453L4 4.5L4.00179 4.546L4.00822 4.591L4.0183 4.636L4.03301 4.68L4.05226 4.722L4.07424 4.763L4.10082 4.801L4.13014 4.836L4.16315 4.869L4.198 4.899L4.2365 4.925L4.27684 4.947L4.31896 4.966L4.363 4.981L4.40792 4.991L4.45375 4.997L4.49957 5H15.4996L15.5454 4.997L15.5912 4.991L15.6361 4.981L15.6802 4.966L15.7223 4.947L15.7626 4.925L15.8011 4.899L15.8369 4.869L15.869 4.836L15.8983 4.801L15.9249 4.763L15.9469 4.722L15.9661 4.68L15.9808 4.636L15.9909 4.591L15.9973 4.546L15.9991 4.5L15.9973 4.453L15.9909 4.408L15.9808 4.363L15.9661 4.319L15.9469 4.277L15.9249 4.236L15.8983 4.198L15.869 4.163L15.8369 4.13L15.8011 4.101L15.7626 4.074L15.7223 4.052L15.6802 4.033L15.6361 4.019L15.5912 4.008L15.5454 4.002L15.4996 4H11.9995V2.994L11.9985 2.95L11.9945 2.901L11.9885 2.852L11.9805 2.804L11.9695 2.756L11.9565 2.709L11.9415 2.662L11.9235 2.617L11.9035 2.572L11.8815 2.529L11.8575 2.486L11.8315 2.445L11.8035 2.405L11.7735 2.366L11.7405 2.328L11.7065 2.292L11.6705 2.258L11.6335 2.226L11.5945 2.196L11.5545 2.167L11.5125 2.141L11.4705 2.117L11.4265 2.095L11.3825 2.076L11.3365 2.058L11.2905 2.043L11.2435 2.03L11.1955 2.019L11.1475 2.01L11.0985 2.004ZM10.9995 4V3H8.99951V4H10.9995Z" fill="#3D3D3D"/>
<path d="M5.59168 6.0074L5.63673 6.01893L5.6806 6.0336L5.72221 6.0514L5.76273 6.07445L5.80097 6.10064L5.83585 6.12998L5.86847 6.16245L5.89882 6.19807L5.92471 6.23579L5.94723 6.27664L5.96522 6.31855L5.97984 6.36255L5.9911 6.4076L5.99783 6.45369L5.99893 6.49979V16.9938L6.0001 16.999H13.9988L14 16.9938V6.49979L14.0011 6.45369L14.0078 6.4076L14.0191 6.36255L14.0337 6.31855L14.0517 6.27664L14.0742 6.23579L14.1001 6.19807L14.1305 6.16245L14.1631 6.12998L14.198 6.10064L14.2362 6.07445L14.2767 6.0514L14.3183 6.0336L14.3622 6.01893L14.4072 6.0074L14.4533 6.00112L14.4995 5.99902L14.5456 6.00112L14.5917 6.0074L14.6367 6.01893L14.6806 6.0336L14.7222 6.0514L14.7627 6.07445L14.801 6.10064L14.8359 6.12998L14.8685 6.16245L14.8988 6.19807L14.9247 6.23579L14.9472 6.27664L14.9652 6.31855L14.9798 6.36255L14.9911 6.4076L14.9978 6.45369L14.9989 6.49979V17.0053L14.9978 17.0504L14.9945 17.1017L14.9877 17.152L14.9798 17.2002L14.9686 17.2484L14.9551 17.2966L14.9393 17.3427L14.9213 17.3887L14.9011 17.4338L14.8786 17.4767L14.8549 17.5187L14.801 17.5983L14.7717 17.636L14.7402 17.6716L14.7065 17.7072L14.6727 17.7397L14.6356 17.7711L14.5985 17.8005L14.5591 17.8287L14.5186 17.8549L14.4758 17.879L14.4331 17.901L14.3892 17.9209L14.3431 17.9387L14.297 17.9545L14.2486 17.9681L14.2002 17.9796L14.1507 17.988L14.1012 17.9943L14.0506 17.9985L14.0056 17.9995H5.99337L5.94833 17.9985L5.89772 17.9943L5.84821 17.988L5.79871 17.9796L5.75037 17.9681L5.70196 17.9545L5.65582 17.9387L5.60974 17.9209L5.56586 17.901L5.52199 17.878L5.48031 17.8549L5.43987 17.8287L5.40045 17.8005L5.36337 17.7711L5.32732 17.7397L5.29244 17.7072L5.25873 17.6716L5.22721 17.636L5.19796 17.5983L5.14399 17.5187L5.12037 17.4767L5.09785 17.4327L5.07869 17.3887L5.0607 17.3437L5.04381 17.2966L5.03035 17.2484L5.01909 17.2002L5.01119 17.1509L5.00446 17.1017L5.0011 17.0504L5 17.0053V6.49979L5.0011 6.45369L5.00783 6.4076L5.01909 6.36255L5.03371 6.31855L5.0517 6.27664L5.07423 6.23579L5.10011 6.19807L5.13046 6.16245L5.16308 6.12998L5.19796 6.10064L5.23621 6.07445L5.27672 6.0514L5.31833 6.0336L5.36221 6.01893L5.40725 6.0074L5.45332 6.00112L5.49947 5.99902L5.54561 6.00112L5.59168 6.0074Z" fill="#3D3D3D"/>
<path d="M8.53851 7.001L8.57751 7.006L8.61652 7.013L8.65454 7.024L8.69049 7.038L8.7265 7.054L8.7605 7.073L8.79352 7.095L8.82452 7.119L8.85352 7.146L8.87952 7.175L8.90454 7.206L8.92554 7.238L8.9455 7.273L8.96149 7.308L8.97552 7.345L8.98553 7.383L8.99353 7.421L8.9975 7.46L8.99951 7.5V15.5L8.9975 15.539L8.99353 15.578L8.98553 15.616L8.97552 15.654L8.96149 15.691L8.9455 15.727L8.92554 15.761L8.90454 15.793L8.87952 15.824L8.85352 15.853L8.82452 15.88L8.79352 15.904L8.7605 15.926L8.7265 15.945L8.69049 15.962L8.65454 15.975L8.61652 15.986L8.57751 15.993L8.53851 15.998L8.49951 16L8.46051 15.998L8.42151 15.993L8.38251 15.986L8.34448 15.975L8.30853 15.962L8.27252 15.945L8.23853 15.926L8.20551 15.904L8.1745 15.88L8.14551 15.853L8.11951 15.824L8.09448 15.793L8.07349 15.761L8.05353 15.727L8.03754 15.691L8.0235 15.654L8.01349 15.616L8.00549 15.578L8.00153 15.539L7.99951 15.5V7.5L8.00153 7.46L8.00549 7.421L8.01349 7.383L8.0235 7.345L8.03754 7.308L8.05353 7.273L8.07349 7.238L8.09448 7.206L8.11951 7.175L8.14551 7.146L8.1745 7.119L8.20551 7.095L8.23853 7.073L8.27252 7.054L8.30853 7.038L8.34448 7.024L8.38251 7.013L8.42151 7.006L8.46051 7.001L8.49951 7L8.53851 7.001Z" fill="#3D3D3D"/>
<path d="M11.5775 7.006L11.5385 7.001L11.4995 7L11.4605 7.001L11.4215 7.006L11.3825 7.013L11.3445 7.024L11.3085 7.038L11.2725 7.054L11.2385 7.073L11.2055 7.095L11.1745 7.119L11.1455 7.146L11.1195 7.175L11.0945 7.206L11.0735 7.238L11.0535 7.273L11.0375 7.308L11.0235 7.345L11.0135 7.383L11.0055 7.421L11.0015 7.46L10.9995 7.5V15.5L11.0015 15.539L11.0055 15.578L11.0135 15.616L11.0235 15.654L11.0375 15.691L11.0535 15.727L11.0735 15.761L11.0945 15.793L11.1195 15.824L11.1455 15.853L11.1745 15.88L11.2055 15.904L11.2385 15.926L11.2725 15.945L11.3085 15.962L11.3445 15.975L11.3825 15.986L11.4215 15.993L11.4605 15.998L11.4995 16L11.5385 15.998L11.5775 15.993L11.6165 15.986L11.6545 15.975L11.6905 15.962L11.7265 15.945L11.7605 15.926L11.7935 15.904L11.8245 15.88L11.8535 15.853L11.8795 15.824L11.9045 15.793L11.9255 15.761L11.9455 15.727L11.9615 15.691L11.9755 15.654L11.9855 15.616L11.9935 15.578L11.9975 15.539L11.9995 15.5V7.5L11.9975 7.46L11.9935 7.421L11.9855 7.383L11.9755 7.345L11.9615 7.308L11.9455 7.273L11.9255 7.238L11.9045 7.206L11.8795 7.175L11.8535 7.146L11.8245 7.119L11.7935 7.095L11.7605 7.073L11.7265 7.054L11.6905 7.038L11.6545 7.024L11.6165 7.013L11.5775 7.006Z" fill="#3D3D3D"/>
</svg>
