<svg width="20" height="20" viewBox="0 0 20 20" fill="none" xmlns="http://www.w3.org/2000/svg">
<path fill-rule="evenodd" clip-rule="evenodd" d="M10 17C10.8284 17 11.5 16.3284 11.5 15.5C11.5 14.6716 10.8284 14 10 14C9.17157 14 8.5 14.6716 8.5 15.5C8.5 16.3284 9.17157 17 10 17ZM10 18C11.3807 18 12.5 16.8807 12.5 15.5C12.5 14.1193 11.3807 13 10 13C8.61929 13 7.5 14.1193 7.5 15.5C7.5 16.8807 8.61929 18 10 18Z" fill="#3D3D3D"/>
<path fill-rule="evenodd" clip-rule="evenodd" d="M10 6C10.8284 6 11.5 5.32843 11.5 4.5C11.5 3.67157 10.8284 3 10 3C9.17157 3 8.5 3.67157 8.5 4.5C8.5 5.32843 9.17157 6 10 6ZM10 7C11.3807 7 12.5 5.88071 12.5 4.5C12.5 3.11929 11.3807 2 10 2C8.61929 2 7.5 3.11929 7.5 4.5C7.5 5.88071 8.61929 7 10 7Z" fill="#3D3D3D"/>
<path fill-rule="evenodd" clip-rule="evenodd" d="M15.5 17C16.3284 17 17 16.3284 17 15.5C17 14.6716 16.3284 14 15.5 14C14.6716 14 14 14.6716 14 15.5C14 16.3284 14.6716 17 15.5 17ZM15.5 18C16.8807 18 18 16.8807 18 15.5C18 14.1193 16.8807 13 15.5 13C14.1193 13 13 14.1193 13 15.5C13 16.8807 14.1193 18 15.5 18Z" fill="#3D3D3D"/>
<path fill-rule="evenodd" clip-rule="evenodd" d="M4.5 17C5.32843 17 6 16.3284 6 15.5C6 14.6716 5.32843 14 4.5 14C3.67157 14 3 14.6716 3 15.5C3 16.3284 3.67157 17 4.5 17ZM4.5 18C5.88071 18 7 16.8807 7 15.5C7 14.1193 5.88071 13 4.5 13C3.11929 13 2 14.1193 2 15.5C2 16.8807 3.11929 18 4.5 18Z" fill="#3D3D3D"/>
<path fill-rule="evenodd" clip-rule="evenodd" d="M9.5 14V6.5H10.5V14H9.5Z" fill="#3D3D3D"/>
<path fill-rule="evenodd" clip-rule="evenodd" d="M13.5 10.5H6.5C5.67157 10.5 5 11.1716 5 12V13.5H4V12C4 10.6193 5.11929 9.5 6.5 9.5H13.5C14.8807 9.5 16 10.6193 16 12V13.5H15V12C15 11.1716 14.3284 10.5 13.5 10.5Z" fill="#3D3D3D"/>
</svg>
