<svg width="16" height="16" viewBox="0 0 16 16" fill="none" xmlns="http://www.w3.org/2000/svg">
<path fill-rule="evenodd" clip-rule="evenodd" d="M3.18887 8.10306C3.09187 8.20106 3.02483 8.32506 2.99783 8.46106C2.88483 9.02406 2.00986 13.4021 2.00986 13.4021C1.97686 13.5651 2.02784 13.7351 2.14584 13.8531C2.26484 13.9711 2.43387 14.0231 2.59787 13.9901C2.59787 13.9901 6.97585 13.1141 7.53885 13.0021C7.67385 12.9751 7.79884 12.9081 7.89584 12.8101C8.28047 12.4261 9.17445 11.5319 11.5705 9.13562L14.1458 6.56006C14.4278 6.27906 14.5858 5.89706 14.5858 5.50006C14.5858 5.10206 14.4278 4.72006 14.1458 4.43906C13.7818 4.07455 13.3176 3.61029 12.8533 3.14603C12.3891 2.68179 11.9248 2.21755 11.5608 1.85306C11.2788 1.57206 10.8978 1.41406 10.4998 1.41406C10.1018 1.41406 9.72087 1.57206 9.43887 1.85306L3.18887 8.10306ZM7.49996 11.7919L11.2925 7.99946L7.99958 4.70658L4.20744 8.49944L7.49996 11.7919ZM6.4855 12.1925L3.8071 9.5141L3.13687 12.8621L6.4855 12.1925ZM13.4389 5.85306L12 7.29196L8.70704 3.99904L10.1458 2.56006C10.2398 2.46606 10.3668 2.41406 10.4998 2.41406C10.6328 2.41406 10.7599 2.46606 10.8539 2.56006C11.5647 3.2719 12.6579 4.36514 13.3868 5.094L13.4389 5.14606C13.5329 5.24006 13.5858 5.36706 13.5858 5.50006C13.5858 5.63206 13.5329 5.75906 13.4389 5.85306Z" fill="#3D3D3D"/>
</svg>
