<svg width="20" height="20" viewBox="0 0 20 20" fill="none" xmlns="http://www.w3.org/2000/svg">
<path fill-rule="evenodd" clip-rule="evenodd" d="M4.18887 11.1031C4.09187 11.2011 4.02483 11.3251 3.99783 11.4611C3.88483 12.0241 3.00986 16.4021 3.00986 16.4021C2.97686 16.5651 3.02784 16.7351 3.14584 16.8531C3.26484 16.9711 3.43387 17.0231 3.59787 16.9901C3.59787 16.9901 7.97585 16.1141 8.53885 16.0021C8.67385 15.9751 8.79884 15.9081 8.89584 15.8101C9.28047 15.4261 12.1744 12.5319 14.5705 10.1356L17.1458 7.56006C17.4278 7.27906 17.5858 6.89706 17.5858 6.50006C17.5858 6.10206 17.4278 5.72006 17.1458 5.43906C16.7818 5.07455 16.3176 4.61029 15.8533 4.14603C15.3891 3.68179 14.9248 3.21755 14.5608 2.85306C14.2788 2.57206 13.8978 2.41406 13.4998 2.41406C13.1018 2.41406 12.7209 2.57206 12.4389 2.85306L4.18887 11.1031ZM8.49996 14.7919L14.2925 8.99946L10.9996 5.70658L5.20744 11.4994L8.49996 14.7919ZM7.4855 15.1925L4.8071 12.5141L4.13687 15.8621L7.4855 15.1925ZM16.4389 6.85306L15 8.29196L11.707 4.99904L13.1458 3.56006C13.2398 3.46606 13.3668 3.41406 13.4998 3.41406C13.6328 3.41406 13.7599 3.46606 13.8539 3.56006C14.5647 4.2719 15.6579 5.36514 16.3868 6.094L16.4389 6.14606C16.5329 6.24006 16.5858 6.36706 16.5858 6.50006C16.5858 6.63206 16.5329 6.75906 16.4389 6.85306Z" fill="#3D3D3D"/>
</svg>
