<svg width="20" height="20" viewBox="0 0 20 20" fill="none" xmlns="http://www.w3.org/2000/svg">
<path d="M9.07691 1.99481L9.15327 1.99747L9.2291 2.00214L9.30492 2.00814L9.38021 2.01614L9.4555 2.02614L9.52965 2.03747L9.60383 2.05081L9.6769 2.06614L9.74998 2.08281L9.82251 2.10147L9.89448 2.12214L9.96538 2.14481L10.0357 2.16947L10.1055 2.19547L10.1747 2.22347L10.2429 2.25347L10.3104 2.28481L10.3769 2.31881L10.4423 2.35414L10.5071 2.39081L10.5709 2.43014L10.6335 2.47081L10.695 2.51347L10.756 2.55814L10.8154 2.60414L10.8736 2.65214L10.9308 2.70214L10.9868 2.75347L11.0412 2.80681L11.0945 2.86147L11.1467 2.91814L11.1972 2.97614L11.2467 3.03547L11.2945 3.09747L11.3412 3.16014L11.3857 3.22481L11.4297 3.29081L11.4714 3.35881L11.5121 3.42747L11.5511 3.49881L11.5884 3.57081L11.6247 3.64414L11.6588 3.71947L11.6917 3.79547L11.7225 3.87347L11.7522 3.95281L11.7802 4.03281L11.8066 4.11481L11.8313 4.19814L11.8544 4.28281L11.8758 4.36881L11.895 4.45614L11.9132 4.54414L11.9297 4.63414L11.9445 4.72548L11.9571 4.81748L11.9687 4.91148L11.978 5.00614L11.9857 5.10214L11.9923 5.19948L11.9967 5.29814L11.9989 5.39881L12 5.49948L11.9984 5.69281L11.994 5.88748L11.9862 6.08081L11.9813 6.17948L11.9758 6.27681L11.9692 6.37414L11.9621 6.47214L11.9538 6.56948L11.945 6.66681L11.9352 6.76348L11.9247 6.86081L11.9132 6.95748L11.9011 7.05414L11.8879 7.15014L11.8742 7.24614L11.8593 7.34148L11.8434 7.43681L11.8269 7.53148L11.8093 7.62614L11.7912 7.72014L11.772 7.81348L11.7516 7.90614L11.7308 7.99881L11.7082 8.09014L11.6852 8.18148L11.6615 8.27148L11.6363 8.36081L11.6104 8.45014L11.5835 8.53814L11.5555 8.62548L11.5264 8.71214L11.4962 8.79814L11.4648 8.88281L11.4324 8.96614L11.3994 9.04948L11.3648 9.13148L11.3291 9.21214L11.2918 9.29214L11.2538 9.37081L11.2143 9.44814L11.1742 9.52481L11.1319 9.60014L11.089 9.67414L11.044 9.74681L11.0039 9.80938L11.0053 9.83949L11.012 9.92949L11.0213 10.0168L11.032 10.1035L11.0447 10.1888L11.0587 10.2735L11.0747 10.3582L11.092 10.4415L11.1093 10.5235L11.148 10.6908L11.1873 10.8562L11.2087 10.9495L11.218 10.9662L11.2387 10.9995L11.26 11.0322L11.282 11.0642L11.3047 11.0955L11.3287 11.1262L11.3527 11.1562L11.378 11.1848L11.404 11.2135L11.4307 11.2408L11.458 11.2675L11.4867 11.2942L11.5153 11.3188L11.5447 11.3435L11.5747 11.3675L11.606 11.3902L11.6373 11.4122L11.6694 11.4328L11.702 11.4535L11.7354 11.4728L11.7687 11.4908L11.8027 11.5088L11.838 11.5255L11.8727 11.5408L11.9087 11.5555L11.9447 11.5695L11.9813 11.5822L12.0187 11.5942L12.056 11.6048L12.094 11.6142L12.1353 11.6242L13.77 11.9728L13.828 11.9855L13.888 12.0008L13.9474 12.0168L14.0067 12.0342L14.0647 12.0528L14.1227 12.0728L14.18 12.0935L14.2367 12.1155L14.2927 12.1388L14.348 12.1635L14.4027 12.1895L14.4567 12.2162L14.51 12.2435L14.5627 12.2728L14.614 12.3022L14.6653 12.3335L14.716 12.3655L14.7653 12.3982L14.814 12.4322L14.862 12.4675L14.9093 12.5035L14.9553 12.5402L15.0013 12.5782L15.046 12.6168L15.09 12.6562L15.1327 12.6968L15.1747 12.7382L15.216 12.7802L15.2567 12.8228L15.296 12.8668L15.334 12.9115L15.372 12.9568L15.4087 13.0035L15.444 13.0502L15.4787 13.0975L15.512 13.1462L15.5447 13.1955L15.5767 13.2448L15.6073 13.2955L15.6367 13.3468L15.6653 13.3982L15.6927 13.4508L15.7193 13.5042L15.744 13.5575L15.7687 13.6115L15.7913 13.6668L15.8133 13.7222L15.834 13.7782L15.854 13.8342L15.872 13.8915L15.8893 13.9488L15.9053 14.0068L15.9207 14.0648L15.934 14.1242L15.9467 14.1828L15.9573 14.2428L15.9673 14.3028L15.976 14.3628L15.9833 14.4235L15.9893 14.4848L15.994 14.5462L15.9973 14.6082L15.9994 14.6695L16 14.7295V17.4995L15.9973 17.5488L15.9907 17.5968L15.9787 17.6448L15.962 17.6908L15.9407 17.7355L15.916 17.7775L15.8867 17.8168L15.8534 17.8528L15.8173 17.8862L15.778 17.9155L15.736 17.9402L15.6913 17.9615L15.6454 17.9782L15.5973 17.9902L15.5487 17.9968L15.5 17.9995H2.5L2.45068 17.9968L2.40267 17.9902L2.35466 17.9782L2.30868 17.9615L2.264 17.9402L2.22201 17.9155L2.18266 17.8862L2.14665 17.8528L2.11332 17.8168L2.08398 17.7775L2.05933 17.7355L2.038 17.6908L2.02132 17.6448L2.00932 17.5968L2.00269 17.5488L2 17.4995V14.7295L2.00065 14.6695L2.00269 14.6082L2.00598 14.5462L2.01066 14.4848L2.01668 14.4235L2.02401 14.3628L2.03267 14.3028L2.04268 14.2428L2.05334 14.1828L2.066 14.1242L2.07935 14.0648L2.09469 14.0068L2.11068 13.9488L2.12801 13.8915L2.146 13.8342L2.16602 13.7782L2.18669 13.7222L2.20866 13.6668L2.23132 13.6122L2.25598 13.5575L2.28133 13.5042L2.30733 13.4508L2.33468 13.3982L2.36332 13.3468L2.39266 13.2955L2.42334 13.2448L2.45532 13.1948L2.488 13.1462L2.52132 13.0975L2.55599 13.0502L2.59135 13.0028L2.62801 12.9568L2.66532 12.9115L2.70402 12.8668L2.74333 12.8228L2.78402 12.7802L2.82532 12.7382L2.86735 12.6968L2.90999 12.6562L2.95402 12.6168L2.99866 12.5775L3.04399 12.5402L3.09066 12.5035L3.13798 12.4675L3.18599 12.4322L3.23466 12.3982L3.28402 12.3655L3.33468 12.3335L3.38599 12.3022L3.43734 12.2728L3.48999 12.2435L3.54334 12.2162L3.59733 12.1895L3.65202 12.1635L3.70732 12.1388L3.76335 12.1155L3.81999 12.0935L3.87732 12.0728L3.93534 12.0528L3.99333 12.0342L4.05265 12.0168L4.11202 12.0008L4.17265 11.9855L4.22998 11.9728L6.39535 11.5108L6.44536 11.5022L6.49601 11.4995L6.54667 11.5015L6.59668 11.5088L6.646 11.5215L6.69401 11.5388L6.73934 11.5608L6.78268 11.5868L6.82267 11.6175L6.85999 11.6522L6.89335 11.6902L6.922 11.7322L6.94735 11.7762L6.96733 11.8222L6.98332 11.8708L6.99333 11.9202L6.99935 11.9702V12.0208L6.99467 12.0715L6.98466 12.1215L6.97001 12.1695L6.95069 12.2162L6.92599 12.2608L6.89799 12.3028L6.86532 12.3415L6.82866 12.3762L6.78866 12.4075L6.74601 12.4348L6.70069 12.4575L6.65332 12.4755L6.60466 12.4888L4.44466 12.9495L4.40202 12.9588L4.32467 12.9788L4.28666 12.9902L4.24866 13.0022L4.21135 13.0148L4.13798 13.0428L4.10201 13.0582L4.066 13.0742L4.03133 13.0902L3.99666 13.1075L3.962 13.1255L3.92802 13.1442L3.89465 13.1635L3.86202 13.1835L3.82935 13.2042L3.79732 13.2248L3.76599 13.2468L3.73466 13.2695L3.70467 13.2928L3.67468 13.3168L3.64535 13.3408L3.61601 13.3662L3.58801 13.3915L3.56002 13.4175L3.53267 13.4442L3.50598 13.4715L3.47998 13.4995L3.45467 13.5275L3.40531 13.5862L3.382 13.6155L3.35868 13.6462L3.33667 13.6768L3.31466 13.7082L3.29334 13.7402L3.27332 13.7722L3.25334 13.8048L3.21598 13.8715L3.198 13.9055L3.18132 13.9395L3.16467 13.9742L3.14933 14.0088L3.13468 14.0442L3.10665 14.1162L3.09469 14.1528L3.08268 14.1895L3.07133 14.2262L3.06067 14.2635L3.05135 14.3008L3.04268 14.3388L3.03467 14.3775L3.02734 14.4155L3.02132 14.4542L3.01534 14.4935L3.01066 14.5328L3.00667 14.5722L3.00399 14.6115L3.00199 14.6515L3.00065 14.6915L3 14.7348V16.9995H15V14.7348L14.9994 14.6915L14.998 14.6515L14.996 14.6115L14.9933 14.5722L14.9893 14.5328L14.9847 14.4935L14.9787 14.4542L14.9727 14.4155L14.9653 14.3775L14.9573 14.3388L14.9487 14.3008L14.9393 14.2635L14.9287 14.2262L14.9173 14.1895L14.9053 14.1528L14.8934 14.1162L14.8653 14.0442L14.8507 14.0088L14.8353 13.9742L14.802 13.9048L14.784 13.8715L14.7467 13.8048L14.7267 13.7722L14.6853 13.7082L14.6633 13.6768L14.6413 13.6462L14.618 13.6155L14.5947 13.5862L14.5453 13.5275L14.52 13.4995L14.494 13.4715L14.4673 13.4442L14.44 13.4175L14.412 13.3915L14.384 13.3662L14.3547 13.3408L14.3253 13.3168L14.2953 13.2928L14.2653 13.2695L14.234 13.2468L14.2027 13.2248L14.1707 13.2042L14.138 13.1835L14.1054 13.1635L14.072 13.1442L14.038 13.1255L14.0033 13.1075L13.9687 13.0902L13.9334 13.0735L13.898 13.0582L13.862 13.0428L13.7887 13.0148L13.7513 13.0022L13.7133 12.9902L13.6753 12.9788L13.6367 12.9688L13.5973 12.9588L13.5553 12.9495L11.92 12.6002L11.858 12.5862L11.7933 12.5695L11.7293 12.5515L11.666 12.5308L11.6027 12.5088L11.5407 12.4855L11.4793 12.4602L11.4194 12.4335L11.3593 12.4048L11.3007 12.3748L11.2433 12.3435L11.186 12.3102L11.1307 12.2755L11.0753 12.2395L11.022 12.2022L10.9687 12.1628L10.9173 12.1222L10.8667 12.0802L10.8173 12.0368L10.7687 11.9922L10.722 11.9462L10.676 11.8988L10.6314 11.8502L10.588 11.8008L10.546 11.7495L10.506 11.6968L10.4667 11.6435L10.4287 11.5888L10.3927 11.5328L10.358 11.4762L10.3247 11.4182L10.296 11.3648L10.2767 11.3248L10.2607 11.2828L10.2494 11.2395L10.2133 11.0828L10.174 10.9182L10.1333 10.7415L10.1225 10.6901L10.1203 10.6915L10.056 10.7281L10.0214 10.7461L9.98516 10.7621L9.94834 10.7741L9.90987 10.7841L9.87141 10.7908L9.83241 10.7941L9.79283 10.7948L9.75383 10.7921L9.71483 10.7861L9.6769 10.7775L9.63954 10.7661L9.60272 10.7515L9.56757 10.7341L9.53404 10.7135L9.50218 10.6908L9.47196 10.6661L9.44393 10.6388L9.41811 10.6088L9.3945 10.5775L9.3736 10.5441L9.35549 10.5095L9.3401 10.4735L9.32746 10.4361L9.31757 10.3981L9.31099 10.3595L9.30767 10.3201L9.30714 10.2808L9.30989 10.2421L9.31539 10.2028L9.32417 10.1648L9.33571 10.1275L9.35053 10.0908L9.3681 10.0555L9.38789 10.0221L9.41043 9.99014L9.43571 9.95948L9.46318 9.93148L9.49286 9.90614L9.52418 9.88214L9.55768 9.86148L9.60547 9.83348L9.64558 9.80881L9.68461 9.78281L9.72362 9.75414L9.76208 9.72414L9.80055 9.69148L9.83844 9.65748L9.87637 9.62214L9.91373 9.58414L9.95055 9.54481L9.98681 9.50281L10.0236 9.45948L10.0593 9.41414L10.0945 9.36748L10.1291 9.31814L10.1637 9.26748L10.1972 9.21481L10.2307 9.16081L10.2632 9.10481L10.2956 9.04681L10.3269 8.98748L10.3577 8.92681L10.3879 8.86414L10.4176 8.80014L10.4467 8.73481L10.4747 8.66814L10.5022 8.59948L10.5291 8.53014L10.5555 8.45881L10.5808 8.38681L10.6055 8.31348L10.6291 8.23881L10.6522 8.16348L10.6747 8.08681L10.6967 8.00881L10.7176 7.93014L10.7373 7.85014L10.7571 7.76948L10.7758 7.68814L10.7934 7.60614L10.811 7.52281L10.8428 7.35481L10.8577 7.26948L10.8714 7.18414L10.8852 7.09748L10.8978 7.01081L10.9209 6.83614L10.9308 6.74814L10.9406 6.65948L10.9495 6.57081L10.9577 6.48214L10.972 6.30348L10.978 6.21414L10.983 6.12481L10.9873 6.03614L10.9945 5.85614L10.9983 5.67748L11 5.50014L10.9995 5.41614L10.9972 5.33414L10.9934 5.25348L10.9885 5.17414L10.9824 5.09681L10.9747 5.02148L10.9654 4.94681L10.9555 4.87414L10.944 4.80348L10.9313 4.73414L10.9176 4.66614L10.9027 4.59948L10.8862 4.53481L10.8692 4.47148L10.8511 4.41014L10.8318 4.35014L10.811 4.29081L10.7901 4.23414L10.7676 4.17881L10.7445 4.12414L10.7203 4.07147L10.6956 4.02081L10.6698 3.97081L10.6428 3.92281L10.6154 3.87547L10.5868 3.83014L10.5582 3.78614L10.528 3.74281L10.4978 3.70147L10.4665 3.66147L10.434 3.62281L10.4016 3.58481L10.3681 3.54881L10.3341 3.51347L10.2994 3.47947L10.2637 3.44747L10.2275 3.41547L10.1906 3.38547L10.1533 3.35614L10.1154 3.32814L10.0763 3.30147L10.0368 3.27547L9.9967 3.25147L9.95602 3.22747L9.91427 3.20547L9.87198 3.18414L9.82966 3.16414L9.78569 3.14481L9.74176 3.12681L9.69669 3.11014L9.65108 3.09414L9.60493 3.08014L9.55822 3.06614L9.51043 3.05414L9.46264 3.04281L9.41371 3.03281L9.36428 3.02347L9.31371 3.01614L9.26317 3.00947L9.21152 3.00414L9.15988 2.99947L9.10713 2.99681L9.05384 2.99481L8.99998 2.99414L8.94559 2.99481L8.89176 2.99681L8.83901 2.99947L8.78626 3.00347L8.73461 3.00881L8.6835 3.01547L8.63297 3.02281L8.58296 3.03147L8.53407 3.04147L8.48571 3.05214L8.43789 3.06414L8.39064 3.07747L8.34449 3.09147L8.29888 3.10681L8.25384 3.12347L8.20988 3.14081L8.16648 3.15947L8.12362 3.17881L8.0813 3.19947L8.04008 3.22147L7.99944 3.24414L7.95933 3.26814L7.91976 3.29347L7.88129 3.31947L7.8434 3.34681L7.80604 3.37547L7.76922 3.40481L7.7335 3.43547L7.69835 3.46747L7.66371 3.50081L7.62967 3.53547L7.59667 3.57081L7.56428 3.60814L7.53242 3.64614L7.5011 3.68547L7.47088 3.72681L7.4412 3.76881L7.41206 3.81281L7.38406 3.85747L7.35659 3.90414L7.3302 3.95214L7.30438 4.00147L7.27966 4.05281L7.25548 4.10547L7.23241 4.15947L7.21044 4.21481L7.18901 4.27214L7.16866 4.33081L7.14944 4.39147L7.1313 4.45347L7.11372 4.51748L7.0978 4.58281L7.08294 4.64948L7.06865 4.71881L7.05604 4.78881L7.04451 4.86081L7.03461 4.93481L7.02526 5.01081L7.01758 5.08748L7.01154 5.16681L7.00658 5.24748L7.00272 5.32948L7.00054 5.41414L6.99997 5.50014L7.00108 5.64414L7.00383 5.78881L7.00822 5.93348L7.01483 6.07881L7.02308 6.22414L7.03351 6.36881L7.04558 6.51414L7.05987 6.65814L7.0758 6.80148L7.09394 6.94348L7.11372 7.08481L7.13626 7.22481L7.15987 7.36348L7.18626 7.50014L7.21427 7.63548L7.24448 7.76814L7.27637 7.89881L7.31098 8.02748L7.3467 8.15281L7.38516 8.27748L7.40492 8.33614L7.42527 8.39614L7.4456 8.45481L7.46702 8.51281L7.48899 8.56948L7.51099 8.62548L7.53349 8.68081L7.55714 8.73548L7.58074 8.78948L7.60439 8.84148L7.6291 8.89281L7.65382 8.94348L7.67911 8.99281L7.70493 9.04148L7.73132 9.08881L7.75768 9.13481L7.78461 9.18014L7.81207 9.22414L7.84011 9.26748L7.86811 9.30881L7.89615 9.34948L7.92472 9.38881L7.95383 9.42681L7.9868 9.46814L8.00987 9.49948L8.03076 9.53348L8.04833 9.56814L8.06373 9.60414L8.0758 9.64148L8.08516 9.67948L8.09173 9.71881L8.09505 9.75748V9.79681L8.0923 9.83614L8.08626 9.87481L8.07691 9.91281L8.06483 9.95014L8.04998 9.98681L8.03241 10.0215L8.01208 10.0555L7.98901 10.0875L7.96372 10.1175L7.93626 10.1448L7.90658 10.1708L7.87472 10.1941L7.84118 10.2148L7.80657 10.2321L7.77032 10.2475L7.73296 10.2601L7.6945 10.2695L7.65603 10.2755L7.61703 10.2788H7.57746L7.53846 10.2761L7.49942 10.2701L7.46152 10.2608L7.42417 10.2488L7.38791 10.2341L7.35273 10.2161L7.31923 10.1961L7.28734 10.1728L7.25712 10.1475L7.22966 10.1201L7.20384 10.0901L7.16483 10.0408L7.12362 9.98681L7.08294 9.93148L7.0434 9.87481L7.00493 9.81748L6.96758 9.75948L6.93075 9.70081L6.89504 9.64081L6.85989 9.57948L6.82582 9.51814L6.79285 9.45614L6.76043 9.39281L6.7291 9.32881L6.69835 9.26414L6.66813 9.19881L6.61099 9.06681L6.58349 8.99948L6.55659 8.93148L6.5302 8.86281L6.50492 8.79348L6.4802 8.72348L6.45659 8.65348L6.43295 8.58148L6.38845 8.43948L6.34669 8.29414L6.30769 8.14681L6.27141 7.99814L6.23733 7.84748L6.20547 7.69614L6.17636 7.54281L6.14944 7.38814L6.12472 7.23281L6.10272 7.07681L6.08297 6.92014L6.06536 6.76281L6.04943 6.60481L6.03625 6.44681L6.02525 6.28814L6.01593 6.13014L6.00879 5.97148L6.00382 5.81414L6.00107 5.65614L6 5.49948L6.00107 5.39681L6.00329 5.29481L6.00768 5.19481L6.01372 5.09614L6.02197 4.99814L6.03129 4.90214L6.04286 4.80748L6.05547 4.71414L6.07032 4.62214L6.08625 4.53081L6.1044 4.44147L6.12415 4.35347L6.14558 4.26748L6.16865 4.18214L6.1934 4.09814L6.21976 4.01548L6.24723 3.93481L6.27691 3.85547L6.30823 3.77681L6.34119 3.70014L6.37527 3.62481L6.41152 3.55147L6.44888 3.47947L6.48845 3.40814L6.52909 3.33947L6.57088 3.27147L6.61481 3.20547L6.65988 3.14147L6.70657 3.07814L6.75492 3.01747L6.80439 2.95747L6.85493 2.90014L6.90714 2.84347L6.96097 2.78947L7.01593 2.73681L7.07197 2.68547L7.12912 2.63681L7.18791 2.58881L7.2478 2.54347L7.30823 2.49947L7.37031 2.45747L7.43295 2.41747L7.49724 2.37947L7.56207 2.34281L7.62746 2.30814L7.69393 2.27547L7.76154 2.24481L7.82965 2.21547L7.8989 2.18814L7.96865 2.16281L8.03901 2.13947L8.10987 2.11747L8.1813 2.09747L8.25384 2.07947L8.32635 2.06281L8.39942 2.04814L8.47307 2.03547L8.54725 2.02481L8.62196 2.01547L8.69668 2.00747L8.77197 2.00147L8.8478 1.99747L8.92362 1.99481L8.99998 1.99414L9.07691 1.99481Z" fill="#3D3D3D"/>
<path fill-rule="evenodd" clip-rule="evenodd" d="M16.1 9.6704C16.925 9.11623 17 7.9939 17 6.9996C17 6.9956 16.998 5 15 5C13 5 13 7.0006 13 7.0006C13 7.9939 13.076 9.11623 13.899 9.6714C14.2631 9.91727 14.7002 10.0316 15.138 9.9955L15.205 10.1976C15.4477 10.9259 15.9263 11.5524 16.565 11.9781C16.6986 12.0671 16.8082 12.1877 16.8841 12.3292C16.96 12.4707 16.9998 12.6288 17 12.7893V14.4999C17 14.6325 17.0527 14.7597 17.1464 14.8535C17.2402 14.9473 17.3674 15 17.5 15C17.6326 15 17.7598 14.9473 17.8536 14.8535C17.9473 14.7597 18 14.6325 18 14.4999V12.7893C18 12.1291 17.67 11.512 17.12 11.1458C16.666 10.8428 16.326 10.3986 16.154 9.88046L16.087 9.6804L16.1 9.6704ZM15 9.0012C15.1928 9.00554 15.3821 8.94997 15.542 8.84215C15.685 8.74712 15.806 8.58007 15.89 8.25198C15.979 7.90987 16 7.49175 16 7.0046V7.0026C15.9979 6.96818 15.9816 6.6987 15.855 6.44743C15.79 6.31539 15.707 6.21536 15.601 6.14534C15.502 6.07932 15.325 6.0013 15 6.0013C14.675 6.0013 14.498 6.07832 14.399 6.14434C14.2892 6.22084 14.2015 6.32507 14.145 6.44643C14.018 6.69951 14.002 6.96759 14 7.0016C14 7.48875 14.021 7.90887 14.109 8.25198C14.194 8.58007 14.315 8.74712 14.458 8.84215C14.6179 8.94991 14.8072 9.00548 15 9.0012Z" fill="#3D3D3D"/>
</svg>
