<svg width="20" height="20" viewBox="0 0 20 20" fill="none" xmlns="http://www.w3.org/2000/svg">
<path fill-rule="evenodd" clip-rule="evenodd" d="M10 2C5.5848 2 2 5.584 2 10C2 14.4152 5.5848 18 10 18C14.4152 18 18 14.4152 18 10C18 5.584 14.4152 2 10 2ZM10.0387 3C14.0123 3 17 6.05244 17 10.0268C17 14.0004 13.9736 17 10 17C6.0264 17 3 13.9736 3 10C3 6.0256 6.06508 3 10.0387 3ZM7.35355 6.64645C7.15829 6.45118 6.84171 6.45118 6.64645 6.64645C6.45118 6.84171 6.45118 7.15829 6.64645 7.35355L9.29289 10L6.64645 12.6464C6.45118 12.8417 6.45118 13.1583 6.64645 13.3536C6.84171 13.5488 7.15829 13.5488 7.35355 13.3536L10 10.7071L12.6464 13.3536C12.8417 13.5488 13.1583 13.5488 13.3536 13.3536C13.5488 13.1583 13.5488 12.8417 13.3536 12.6464L10.7071 10L13.3536 7.35355C13.5488 7.15829 13.5488 6.84171 13.3536 6.64645C13.1583 6.45118 12.8417 6.45118 12.6464 6.64645L10 9.29289L7.35355 6.64645Z" fill="#3D3D3D"/>
</svg>
