<svg width="20" height="20" viewBox="0 0 20 20" fill="none" xmlns="http://www.w3.org/2000/svg">
<path fill-rule="evenodd" clip-rule="evenodd" d="M16.549 3.002L16.598 3.009L16.646 3.021L16.692 3.038L16.736 3.059L16.779 3.084L16.818 3.114L16.854 3.147L16.887 3.184L16.917 3.223L16.942 3.265L16.963 3.31L16.979 3.356L16.991 3.404L16.998 3.453L17 3.502L16.997 3.551L16.99 3.6L16.978 3.648L16.961 3.694L16.939 3.738L16.914 3.78L16.884 3.82L12 9.681V16.5L11.998 16.549L11.99 16.597L11.978 16.645L11.962 16.691L11.941 16.735L11.916 16.777L11.887 16.817L11.854 16.853L11.817 16.886L11.778 16.915L11.736 16.94L11.692 16.961L11.645 16.978L11.598 16.99L11.549 16.997L11.5 17L11.451 16.997L11.403 16.99L11.355 16.978L11.309 16.962L11.265 16.941L11.223 16.916L8.22302 14.916L8.18298 14.886L8.14697 14.853L8.11401 14.817L8.08398 14.778L8.05902 14.736L8.03802 14.691L8.02197 14.645L8.01001 14.597L8.00201 14.549L8 14.5V9.681L3.11603 3.82L3.086 3.78L3.06097 3.738L3.039 3.694L3.02197 3.648L3.01001 3.6L3.00299 3.551L3 3.502L3.00201 3.453L3.00897 3.404L3.021 3.356L3.03699 3.31L3.05798 3.265L3.08301 3.223L3.11298 3.184L3.146 3.147L3.18201 3.114L3.22101 3.084L3.26398 3.059L3.30798 3.038L3.354 3.021L3.40198 3.009L3.45099 3.002L3.5 3H16.5L16.549 3.002ZM4.56799 4L8.88397 9.18L8.914 9.219L8.94 9.262L8.961 9.306L8.97803 9.353L8.98999 9.401L8.99799 9.45L9 9.5V14.232L11 15.565V9.5L11.002 9.45L11.01 9.401L11.022 9.353L11.039 9.306L11.06 9.262L11.086 9.219L11.116 9.18L15.432 4H4.56799Z" fill="currentColor"/>
</svg>
