<svg width="20" height="20" viewBox="0 0 20 20" fill="none" xmlns="http://www.w3.org/2000/svg">
<path fill-rule="evenodd" clip-rule="evenodd" d="M17 4H3V6H17V4ZM3 3C2.44772 3 2 3.44772 2 4V6C2 6.55228 2.44772 7 3 7H17C17.5523 7 18 6.55228 18 6V4C18 3.44772 17.5523 3 17 3H3ZM17 9H3V11H17V9ZM3 8C2.44772 8 2 8.44772 2 9V11C2 11.5523 2.44772 12 3 12H17C17.5523 12 18 11.5523 18 11V9C18 8.44772 17.5523 8 17 8H3ZM3 14H17V16H3V14ZM2 14C2 13.4477 2.44772 13 3 13H17C17.5523 13 18 13.4477 18 14V16C18 16.5523 17.5523 17 17 17H3C2.44772 17 2 16.5523 2 16V14Z" fill="#3D3D3D"/>
</svg>
