<svg width="16" height="16" viewBox="0 0 16 16" fill="none" xmlns="http://www.w3.org/2000/svg">
<path d="M13.0279 5.74302C13.0279 5.87193 13.0791 5.99555 13.1703 6.0867C13.2614 6.17785 13.3851 6.22906 13.514 6.22906C13.6429 6.22906 13.7665 6.17785 13.8576 6.0867C13.9488 5.99555 14 5.87193 14 5.74302V2.48604C14 2.35714 13.9488 2.23351 13.8576 2.14236C13.7665 2.05121 13.6429 2 13.514 2H10.257C10.1281 2 10.0044 2.05121 9.91329 2.14236C9.82214 2.23351 9.77094 2.35714 9.77094 2.48604C9.77094 2.61495 9.82214 2.73857 9.91329 2.82972C10.0044 2.92088 10.1281 2.97208 10.257 2.97208H13.0279V5.74302Z" fill="#3D3D3D"/>
<path d="M2.97208 10.257C2.97208 10.1281 2.92087 10.0044 2.82972 9.91329C2.73857 9.82214 2.61495 9.77094 2.48604 9.77094C2.35713 9.77094 2.23351 9.82214 2.14236 9.91329C2.05121 10.0044 2 10.1281 2 10.257V13.514C2 13.6429 2.05121 13.7665 2.14236 13.8576C2.23351 13.9488 2.35713 14 2.48604 14H5.74302C5.87193 14 5.99555 13.9488 6.0867 13.8576C6.17785 13.7665 6.22906 13.6429 6.22906 13.514C6.22906 13.3851 6.17785 13.2614 6.0867 13.1703C5.99555 13.0791 5.87193 13.0279 5.74302 13.0279H2.97208V10.257Z" fill="#3D3D3D"/>
<path d="M10.257 13.0279C10.1281 13.0279 10.0044 13.0791 9.91329 13.1703C9.82215 13.2614 9.77094 13.3851 9.77094 13.514C9.77094 13.6429 9.82215 13.7665 9.91329 13.8576C10.0044 13.9488 10.1281 14 10.257 14H13.514C13.6429 14 13.7665 13.9488 13.8576 13.8576C13.9488 13.7665 14 13.6429 14 13.514V10.257C14 10.1281 13.9488 10.0044 13.8576 9.91329C13.7665 9.82215 13.6429 9.77094 13.514 9.77094C13.3851 9.77094 13.2614 9.82215 13.1703 9.91329C13.0791 10.0044 13.0279 10.1281 13.0279 10.257V13.0279H10.257Z" fill="#3D3D3D"/>
<path d="M5.74302 2.97208C5.87193 2.97208 5.99555 2.92088 6.0867 2.82972C6.17785 2.73857 6.22906 2.61495 6.22906 2.48604C6.22906 2.35714 6.17785 2.23351 6.0867 2.14236C5.99555 2.05121 5.87193 2 5.74302 2H2.48604C2.35714 2 2.23351 2.05121 2.14236 2.14236C2.05121 2.23351 2 2.35714 2 2.48604V5.74302C2 5.87193 2.05121 5.99555 2.14236 6.0867C2.23351 6.17785 2.35714 6.22906 2.48604 6.22906C2.61495 6.22906 2.73857 6.17785 2.82972 6.0867C2.92088 5.99555 2.97208 5.87193 2.97208 5.74302V2.97208H5.74302Z" fill="#3D3D3D"/>
</svg>
