<svg width="20" height="20" viewBox="0 0 20 20" fill="none" xmlns="http://www.w3.org/2000/svg">
<path d="M16.0279 6.74302C16.0279 6.87193 16.0791 6.99555 16.1703 7.0867C16.2614 7.17785 16.3851 7.22906 16.514 7.22906C16.6429 7.22906 16.7665 7.17785 16.8576 7.0867C16.9488 6.99555 17 6.87193 17 6.74302V3.48604C17 3.35713 16.9488 3.23351 16.8576 3.14236C16.7665 3.05121 16.6429 3 16.514 3H13.257C13.1281 3 13.0044 3.05121 12.9133 3.14236C12.8221 3.23351 12.7709 3.35713 12.7709 3.48604C12.7709 3.61495 12.8221 3.73857 12.9133 3.82972C13.0044 3.92088 13.1281 3.97208 13.257 3.97208H16.0279V6.74302Z" fill="#3D3D3D"/>
<path d="M3.97208 13.257C3.97208 13.1281 3.92088 13.0044 3.82972 12.9133C3.73857 12.8221 3.61495 12.7709 3.48604 12.7709C3.35713 12.7709 3.23351 12.8221 3.14236 12.9133C3.05121 13.0044 3 13.1281 3 13.257V16.514C3 16.6429 3.05121 16.7665 3.14236 16.8576C3.23351 16.9488 3.35713 17 3.48604 17H6.74302C6.87193 17 6.99555 16.9488 7.0867 16.8576C7.17785 16.7665 7.22906 16.6429 7.22906 16.514C7.22906 16.3851 7.17785 16.2614 7.0867 16.1703C6.99555 16.0791 6.87193 16.0279 6.74302 16.0279H3.97208V13.257Z" fill="#3D3D3D"/>
<path d="M13.257 16.0279C13.1281 16.0279 13.0044 16.0791 12.9133 16.1703C12.8221 16.2614 12.7709 16.3851 12.7709 16.514C12.7709 16.6429 12.8221 16.7665 12.9133 16.8576C13.0044 16.9488 13.1281 17 13.257 17H16.514C16.6429 17 16.7665 16.9488 16.8576 16.8576C16.9488 16.7665 17 16.6429 17 16.514V13.257C17 13.1281 16.9488 13.0044 16.8576 12.9133C16.7665 12.8221 16.6429 12.7709 16.514 12.7709C16.3851 12.7709 16.2614 12.8221 16.1703 12.9133C16.0791 13.0044 16.0279 13.1281 16.0279 13.257V16.0279H13.257Z" fill="#3D3D3D"/>
<path d="M6.74302 3.97208C6.87193 3.97208 6.99555 3.92088 7.0867 3.82972C7.17785 3.73857 7.22906 3.61495 7.22906 3.48604C7.22906 3.35714 7.17785 3.23351 7.0867 3.14236C6.99555 3.05121 6.87193 3 6.74302 3H3.48604C3.35714 3 3.23351 3.05121 3.14236 3.14236C3.05121 3.23351 3 3.35714 3 3.48604V6.74302C3 6.87193 3.05121 6.99555 3.14236 7.0867C3.23351 7.17785 3.35714 7.22906 3.48604 7.22906C3.61495 7.22906 3.73857 7.17785 3.82972 7.0867C3.92088 6.99555 3.97208 6.87193 3.97208 6.74302V3.97208H6.74302Z" fill="#3D3D3D"/>
</svg>
