<svg width="20" height="20" viewBox="0 0 20 20" fill="none" xmlns="http://www.w3.org/2000/svg">
<path d="M9.3776 10.0003H8.4998C8.224 10.0003 8 9.7763 8 9.5005C8 9.224 8.224 9 8.4998 9H9.9999C10.1518 9 10.2946 9.0693 10.3898 9.1869C10.485 9.3052 10.5207 9.4606 10.4878 9.6083C10.4878 9.6083 9.8256 12.6029 9.827 12.5966C9.764 12.9011 10.1308 13.1055 10.3562 12.892C10.5571 12.7023 10.8742 12.7114 11.0632 12.9116C11.2529 13.1125 11.2438 13.4296 11.0436 13.6186C10.1056 14.5041 8.5866 13.6557 8.8484 12.3936C8.8484 12.3915 8.8491 12.3894 8.8498 12.3873L9.3776 10.0003Z" fill="#3D3D3D"/>
<path d="M11.2454 7.32192C11.2454 7.77586 10.8774 8.14385 10.4235 8.14385C9.96955 8.14385 9.60156 7.77586 9.60156 7.32192C9.60156 6.86799 9.96955 6.5 10.4235 6.5C10.8774 6.5 11.2454 6.86799 11.2454 7.32192Z" fill="#3D3D3D"/>
<path fill-rule="evenodd" clip-rule="evenodd" d="M10.0002 2C5.585 2 2 5.585 2 10.0002C2 14.4155 5.585 18.0005 10.0002 18.0005C14.4155 18.0005 18.0005 14.4155 18.0005 10.0002C18.0005 5.585 14.4155 2 10.0002 2ZM10.0002 3.0005C13.8635 3.0005 17 6.137 17 10.0002C17 13.8635 13.8635 17 10.0002 17C6.137 17 3.0005 13.8635 3.0005 10.0002C3.0005 6.137 6.137 3.0005 10.0002 3.0005Z" fill="#3D3D3D"/>
</svg>
