<svg width="20" height="20" viewBox="0 0 20 20" fill="none" xmlns="http://www.w3.org/2000/svg">
<path fill-rule="evenodd" clip-rule="evenodd" d="M4.2 3H15.8C16.4627 3 17 3.53726 17 4.2V13.4C17 14.0627 16.4627 14.6 15.8 14.6H14.501C13.948 14.6 13.5 15.0483 13.5 15.601V17.3L11.2271 14.9134C11.0365 14.7133 10.7721 14.6 10.4957 14.6H4.2C3.53726 14.6 3 14.0627 3 13.4V4.2C3 3.53726 3.53726 3 4.2 3ZM2 4.2C2 2.98497 2.98497 2 4.2 2H15.8C17.015 2 18 2.98497 18 4.2V13.4C18 14.615 17.015 15.6 15.8 15.6H14.501L14.5 15.601V18.3C14.5 18.8416 13.8391 19.106 13.4655 18.7138L10.503 15.6031C10.5011 15.6011 10.4985 15.6 10.4957 15.6H4.2C2.98497 15.6 2 14.615 2 13.4V4.2ZM10.4235 7.14385C10.8774 7.14385 11.2454 6.77586 11.2454 6.32192C11.2454 5.86799 10.8774 5.5 10.4235 5.5C9.96955 5.5 9.60156 5.86799 9.60156 6.32192C9.60156 6.77586 9.96955 7.14385 10.4235 7.14385ZM8.4998 9.0003H9.3776L8.8498 11.3873L8.84904 11.3897C8.84867 11.391 8.8484 11.3923 8.8484 11.3936C8.5866 12.6557 10.1056 13.5041 11.0436 12.6186C11.2438 12.4296 11.2529 12.1125 11.0632 11.9116C10.8742 11.7114 10.5571 11.7023 10.3562 11.892C10.1308 12.1055 9.764 11.9011 9.827 11.5966C9.8256 11.6029 10.4878 8.6083 10.4878 8.6083C10.5207 8.4606 10.485 8.3052 10.3898 8.1869C10.2946 8.0693 10.1518 8 9.9999 8H8.4998C8.224 8 8 8.224 8 8.5005C8 8.7763 8.224 9.0003 8.4998 9.0003Z" fill="#3D3D3D"/>
</svg>
