<svg width="20" height="20" viewBox="0 0 20 20" fill="none" xmlns="http://www.w3.org/2000/svg">
<path fill-rule="evenodd" clip-rule="evenodd" d="M15.5 17C14.6716 17 14 16.3284 14 15.5C14 14.6716 14.6716 14 15.5 14C16.3284 14 17 14.6716 17 15.5C17 16.3284 16.3284 17 15.5 17ZM15.5 18C14.1193 18 13 16.8807 13 15.5C13 14.1193 14.1193 13 15.5 13C16.8807 13 18 14.1193 18 15.5C18 16.8807 16.8807 18 15.5 18Z" fill="#3D3D3D"/>
<path fill-rule="evenodd" clip-rule="evenodd" d="M17.6236 2.14645C17.4283 1.95118 17.1117 1.95118 16.9164 2.14645L15.5022 3.56066L14.088 2.14645C13.8928 1.95118 13.5762 1.95118 13.3809 2.14645C13.1857 2.34171 13.1857 2.65829 13.3809 2.85355L14.7951 4.26777L13.3809 5.68198C13.1857 5.87724 13.1857 6.19383 13.3809 6.38909C13.5762 6.58435 13.8928 6.58435 14.088 6.38909L15.5022 4.97487L16.9164 6.38909C17.1117 6.58435 17.4283 6.58435 17.6236 6.38909C17.8188 6.19383 17.8188 5.87724 17.6236 5.68198L16.2093 4.26777L17.6236 2.85355C17.8188 2.65829 17.8188 2.34171 17.6236 2.14645Z" fill="#3D3D3D"/>
<path fill-rule="evenodd" clip-rule="evenodd" d="M12 4.25C12 3.97386 11.7761 3.75 11.5 3.75H6.625C5.4514 3.75 4.5 4.7014 4.5 5.875C4.5 7.04861 5.4514 8 6.625 8H7.75C8.44036 8 9 8.55964 9 9.25C9 9.94036 8.44036 10.5 7.75 10.5H4.75C3.23122 10.5 2 11.7312 2 13.25C2 14.7688 3.23122 16 4.75 16H13.5C13.7761 16 14 15.7761 14 15.5C14 15.2239 13.7761 15 13.5 15H4.75C3.7835 15 3 14.2165 3 13.25C3 12.2835 3.7835 11.5 4.75 11.5H7.75C8.99264 11.5 10 10.4926 10 9.25C10 8.00736 8.99264 7 7.75 7H6.625C6.00368 7 5.5 6.49632 5.5 5.875C5.5 5.25368 6.00368 4.75 6.625 4.75H11.5C11.7761 4.75 12 4.52615 12 4.25Z" fill="#3D3D3D"/>
</svg>
