<svg width="20" height="20" viewBox="0 0 20 20" fill="none" xmlns="http://www.w3.org/2000/svg">
<path d="M11.02 6.53998C11.02 7.09226 10.5723 7.53998 10.02 7.53998H5.38537C5.14942 7.53998 4.92106 7.45654 4.74069 7.30443L2.37531 5.30963C2.15001 5.11962 2.02 4.8399 2.02 4.54518V2.53998C2.02 1.98769 2.46771 1.53998 3.02 1.53998H10.02C10.5723 1.53998 11.02 1.98769 11.02 2.53998V6.53998ZM5.38 6.53998H10.02V2.53998H3.02V4.53998L5.38 6.53998ZM9.02 12.54C9.02 11.9877 9.46771 11.54 10.02 11.54H14.6557C14.891 11.54 15.1188 11.6229 15.2989 11.7743L17.6632 13.7603C17.8894 13.9503 18.02 14.2306 18.02 14.526V16.54C18.02 17.0923 17.5723 17.54 17.02 17.54H10.02C9.46771 17.54 9.02 17.0923 9.02 16.54V12.54ZM14.66 12.54H10.02V16.54H17.02V14.54L14.66 12.54ZM19.002 9.0012C18.7797 8.8644 18.4898 8.91887 18.3323 9.12706L18.02 9.53998C18.0183 7.88403 17.5027 6.26942 16.5445 4.9189C15.6844 3.70682 14.5058 2.76107 13.1437 2.18337C12.8864 2.07423 12.5971 2.21653 12.5078 2.48143C12.4203 2.74129 12.5586 3.02159 12.8101 3.13088C13.9792 3.63898 14.9906 4.45826 15.7313 5.5035C16.5676 6.68355 17.0178 8.09366 17.02 9.53998L16.7112 9.13176C16.5521 8.92135 16.2585 8.86738 16.0349 9.00743C15.7664 9.17562 15.7151 9.54558 15.9277 9.7805L16.7769 10.7188C17.1744 11.1581 17.8647 11.1574 18.2613 10.7172L19.1129 9.77187C19.3247 9.53673 19.2715 9.16708 19.002 9.0012ZM1.01967 10.0755C1.24151 10.2144 1.53247 10.1634 1.69373 9.95717L2.01999 9.53998C2.02171 11.1959 2.53728 12.8105 3.49554 14.1611C4.35557 15.3731 5.53416 16.3189 6.89629 16.8966C7.15363 17.0057 7.44294 16.8634 7.53217 16.5985C7.6197 16.3387 7.48143 16.0584 7.22994 15.9491C6.06075 15.441 5.04937 14.6217 4.30867 13.5765C3.47243 12.3964 3.02224 10.9863 3.02 9.53998L3.32878 9.9482C3.48794 10.1586 3.78147 10.2126 4.00506 10.0725C4.27356 9.90434 4.32488 9.53437 4.11228 9.29946L3.25776 8.35522C2.86211 7.91802 2.176 7.91632 1.77818 8.35156L0.913701 9.29736C0.698371 9.53294 0.749184 9.90606 1.01967 10.0755Z" fill="currentColor"/>
</svg>
