<svg width="32" height="32" viewBox="0 0 32 32" fill="none" xmlns="http://www.w3.org/2000/svg">
<circle cx="16" cy="16" r="12" fill="#0000AA"/>
<path fill-rule="evenodd" clip-rule="evenodd" d="M15.2144 15.2876C16.6157 13.827 17.6971 12.7 19.73 12.7C22.9793 12.7 24.6391 16.3903 25.2001 19.4091H22.7806C22.0606 16.4034 20.9736 14.8481 19.6996 14.8481C18.8461 14.8481 18.3561 15.3525 17.3851 16.3521C17.2577 16.4832 17.1221 16.6228 16.9762 16.7709C16.8862 16.8624 16.7948 16.9565 16.702 17.0523L16.7011 17.0532L16.7008 17.0534C15.6159 18.1715 14.311 19.5163 12.35 19.5163C9.01881 19.5163 7.63725 16.1081 7.24219 12.8006H9.65699C10.183 16.0381 11.2162 17.3506 12.385 17.3506C13.232 17.3506 14.0164 16.5344 15.0515 15.4572C15.0934 15.4136 15.1358 15.3695 15.1786 15.325L15.2144 15.2876Z" fill="white"/>
</svg>
