<svg width="16" height="16" viewBox="0 0 16 16" fill="none" xmlns="http://www.w3.org/2000/svg">
<path fill-rule="evenodd" clip-rule="evenodd" d="M8.04401 2.502L8.08698 2.508L8.12903 2.517L8.17102 2.53L8.211 2.547L8.25 2.567L8.28699 2.59L8.32098 2.617L8.354 2.646L8.383 2.679L8.40997 2.713L8.43298 2.75L8.453 2.789L8.46997 2.829L8.48297 2.871L8.492 2.913L8.49799 2.956L8.5 3V7.5H13L13.044 7.502L13.087 7.508L13.129 7.517L13.171 7.53L13.211 7.547L13.25 7.567L13.287 7.59L13.321 7.617L13.354 7.646L13.383 7.679L13.41 7.713L13.433 7.75L13.453 7.789L13.47 7.829L13.483 7.871L13.492 7.913L13.498 7.956L13.5 8L13.498 8.044L13.492 8.087L13.483 8.129L13.47 8.171L13.453 8.211L13.433 8.25L13.41 8.287L13.383 8.321L13.354 8.354L13.321 8.383L13.287 8.41L13.25 8.433L13.211 8.453L13.171 8.47L13.129 8.483L13.087 8.492L13.044 8.498L13 8.5H8.5V13L8.49799 13.044L8.492 13.087L8.48297 13.129L8.46997 13.171L8.453 13.211L8.43298 13.25L8.40997 13.287L8.383 13.321L8.354 13.354L8.32098 13.383L8.28699 13.41L8.25 13.433L8.211 13.453L8.17102 13.47L8.12903 13.483L8.08698 13.492L8.04401 13.498L8 13.5L7.95599 13.498L7.91302 13.492L7.87097 13.483L7.82898 13.47L7.789 13.453L7.75 13.433L7.71301 13.41L7.67902 13.383L7.646 13.354L7.617 13.321L7.59003 13.287L7.56702 13.25L7.547 13.211L7.53003 13.171L7.51703 13.129L7.508 13.087L7.50201 13.044L7.5 13V8.5H3L2.95599 8.498L2.91302 8.492L2.87097 8.483L2.82898 8.47L2.789 8.453L2.75 8.433L2.71301 8.41L2.67902 8.383L2.646 8.354L2.617 8.321L2.59003 8.287L2.56702 8.25L2.547 8.211L2.53003 8.171L2.51703 8.129L2.508 8.087L2.50201 8.044L2.5 8L2.50201 7.956L2.508 7.913L2.51703 7.871L2.53003 7.829L2.547 7.789L2.56702 7.75L2.59003 7.713L2.617 7.679L2.646 7.646L2.67902 7.617L2.71301 7.59L2.75 7.567L2.789 7.547L2.82898 7.53L2.87097 7.517L2.91302 7.508L2.95599 7.502L3 7.5H7.5V3L7.50201 2.956L7.508 2.913L7.51703 2.871L7.53003 2.829L7.547 2.789L7.56702 2.75L7.59003 2.713L7.617 2.679L7.646 2.646L7.67902 2.617L7.71301 2.59L7.75 2.567L7.789 2.547L7.82898 2.53L7.87097 2.517L7.91302 2.508L7.95599 2.502L8 2.5L8.04401 2.502Z" fill="#3D3D3D"/>
</svg>
