<svg width="20" height="20" viewBox="0 0 20 20" fill="none" xmlns="http://www.w3.org/2000/svg">
<path fill-rule="evenodd" clip-rule="evenodd" d="M10.044 4.502L10.087 4.508L10.129 4.517L10.171 4.53L10.211 4.547L10.25 4.567L10.287 4.59L10.321 4.617L10.354 4.646L10.383 4.679L10.41 4.713L10.433 4.75L10.453 4.789L10.47 4.829L10.483 4.871L10.492 4.913L10.498 4.956L10.5 5V9.5H15L15.044 9.502L15.087 9.508L15.129 9.517L15.171 9.53L15.211 9.547L15.25 9.567L15.287 9.59L15.321 9.617L15.354 9.646L15.383 9.679L15.41 9.713L15.433 9.75L15.453 9.789L15.47 9.829L15.483 9.871L15.492 9.913L15.498 9.956L15.5 10L15.498 10.044L15.492 10.087L15.483 10.129L15.47 10.171L15.453 10.211L15.433 10.25L15.41 10.287L15.383 10.321L15.354 10.354L15.321 10.383L15.287 10.41L15.25 10.433L15.211 10.453L15.171 10.47L15.129 10.483L15.087 10.492L15.044 10.498L15 10.5H10.5V15L10.498 15.044L10.492 15.087L10.483 15.129L10.47 15.171L10.453 15.211L10.433 15.25L10.41 15.287L10.383 15.321L10.354 15.354L10.321 15.383L10.287 15.41L10.25 15.433L10.211 15.453L10.171 15.47L10.129 15.483L10.087 15.492L10.044 15.498L10 15.5L9.95599 15.498L9.91302 15.492L9.87097 15.483L9.82898 15.47L9.789 15.453L9.75 15.433L9.71301 15.41L9.67902 15.383L9.646 15.354L9.617 15.321L9.59003 15.287L9.56702 15.25L9.547 15.211L9.53003 15.171L9.51703 15.129L9.508 15.087L9.50201 15.044L9.5 15V10.5H5L4.95599 10.498L4.91302 10.492L4.87097 10.483L4.82898 10.47L4.789 10.453L4.75 10.433L4.71301 10.41L4.67902 10.383L4.646 10.354L4.617 10.321L4.59003 10.287L4.56702 10.25L4.547 10.211L4.53003 10.171L4.51703 10.129L4.508 10.087L4.50201 10.044L4.5 10L4.50201 9.956L4.508 9.913L4.51703 9.871L4.53003 9.829L4.547 9.789L4.56702 9.75L4.59003 9.713L4.617 9.679L4.646 9.646L4.67902 9.617L4.71301 9.59L4.75 9.567L4.789 9.547L4.82898 9.53L4.87097 9.517L4.91302 9.508L4.95599 9.502L5 9.5H9.5V5L9.50201 4.956L9.508 4.913L9.51703 4.871L9.53003 4.829L9.547 4.789L9.56702 4.75L9.59003 4.713L9.617 4.679L9.646 4.646L9.67902 4.617L9.71301 4.59L9.75 4.567L9.789 4.547L9.82898 4.53L9.87097 4.517L9.91302 4.508L9.95599 4.502L10 4.5L10.044 4.502Z" fill="#3D3D3D"/>
</svg>
