<svg width="20" height="20" viewBox="0 0 20 20" fill="none" xmlns="http://www.w3.org/2000/svg">
<path d="M1.5 2.6087C1.5 1.99638 1.99638 1.5 2.6087 1.5C3.22101 1.5 3.71739 1.99638 3.71739 2.6087C3.71739 3.22101 3.22101 3.71739 2.6087 3.71739C1.99638 3.71739 1.5 3.22101 1.5 2.6087Z" fill="#3D3D3D"/>
<path d="M11.5399 10.4928C11.2621 10.4928 10.9958 10.6031 10.7994 10.7994C10.6031 10.9958 10.4928 11.2621 10.4928 11.5399V18.0072C10.4928 18.2794 10.2721 18.5 10 18.5C9.72786 18.5 9.50725 18.2794 9.50725 18.0072V11.5399C9.50725 11.0008 9.7214 10.4838 10.1026 10.1026C10.4838 9.7214 11.0008 9.50725 11.5399 9.50725C12.0789 9.50725 12.5959 9.7214 12.9771 10.1026C13.3583 10.4838 13.5725 11.0008 13.5725 11.5399V14.4348H15.5435C16.3276 14.4348 17.0796 14.7463 17.6341 15.3007C18.1885 15.8552 18.5 16.6072 18.5 17.3913V18.0072C18.5 18.2794 18.2794 18.5 18.0072 18.5C17.7351 18.5 17.5145 18.2794 17.5145 18.0072V17.3913C17.5145 16.8686 17.3068 16.3672 16.9372 15.9976C16.5676 15.628 16.0662 15.4203 15.5435 15.4203H13.0797C12.8076 15.4203 12.587 15.1997 12.587 14.9275V11.5399C12.587 11.2621 12.4766 10.9958 12.2803 10.7994C12.0839 10.6031 11.8176 10.4928 11.5399 10.4928Z" fill="#3D3D3D"/>
<path d="M7.53623 1.5C6.92392 1.5 6.42754 1.99638 6.42754 2.6087C6.42754 3.22101 6.92392 3.71739 7.53623 3.71739C8.14855 3.71739 8.64493 3.22101 8.64493 2.6087C8.64493 1.99638 8.14855 1.5 7.53623 1.5Z" fill="#3D3D3D"/>
<path d="M11.3551 2.6087C11.3551 1.99638 11.8515 1.5 12.4638 1.5C13.0761 1.5 13.5725 1.99638 13.5725 2.6087C13.5725 3.22101 13.0761 3.71739 12.4638 3.71739C11.8515 3.71739 11.3551 3.22101 11.3551 2.6087Z" fill="#3D3D3D"/>
<path d="M2.6087 5.81159C1.99638 5.81159 1.5 6.30797 1.5 6.92029C1.5 7.53261 1.99638 8.02899 2.6087 8.02899C3.22101 8.02899 3.71739 7.53261 3.71739 6.92029C3.71739 6.30797 3.22101 5.81159 2.6087 5.81159Z" fill="#3D3D3D"/>
<path d="M6.42754 6.92029C6.42754 6.30797 6.92392 5.81159 7.53623 5.81159C8.14855 5.81159 8.64493 6.30797 8.64493 6.92029C8.64493 7.53261 8.14855 8.02899 7.53623 8.02899C6.92392 8.02899 6.42754 7.53261 6.42754 6.92029Z" fill="#3D3D3D"/>
<path d="M12.4638 5.81159C11.8515 5.81159 11.3551 6.30797 11.3551 6.92029C11.3551 7.53261 11.8515 8.02899 12.4638 8.02899C13.0761 8.02899 13.5725 7.53261 13.5725 6.92029C13.5725 6.30797 13.0761 5.81159 12.4638 5.81159Z" fill="#3D3D3D"/>
<path d="M1.5 11.2319C1.5 10.6196 1.99638 10.1232 2.6087 10.1232C3.22101 10.1232 3.71739 10.6196 3.71739 11.2319C3.71739 11.8442 3.22101 12.3406 2.6087 12.3406C1.99638 12.3406 1.5 11.8442 1.5 11.2319Z" fill="#3D3D3D"/>
<path d="M7.53623 10.1232C7.24219 10.1232 6.96019 10.24 6.75227 10.4479C6.54435 10.6558 6.42754 10.9378 6.42754 11.2319C6.42754 11.5259 6.54434 11.8079 6.75227 12.0159C6.96019 12.2238 7.24219 12.3406 7.53623 12.3406C7.80837 12.3406 8.02899 12.12 8.02899 11.8478V10.6159C8.02899 10.3438 7.80837 10.1232 7.53623 10.1232Z" fill="#3D3D3D"/>
</svg>
