<svg width="20" height="20" viewBox="0 0 20 20" fill="none" xmlns="http://www.w3.org/2000/svg">
<path d="M6.5 8H13.5C13.776 8 14 7.776 14 7.5C14 7.224 13.776 7 13.5 7H6.5C6.224 7 6 7.224 6 7.5C6 7.776 6.224 8 6.5 8Z" fill="currentColor"/>
<path d="M11.5 11H6.5C6.224 11 6 10.776 6 10.5C6 10.224 6.224 10 6.5 10H11.5C11.776 10 12 10.224 12 10.5C12 10.776 11.776 11 11.5 11Z" fill="currentColor"/>
<path fill-rule="evenodd" clip-rule="evenodd" d="M10.293 15H5.01501C3.90201 15 3 14.097 3 12.984V5.015C3 3.902 3.90201 3 5.01501 3H14.985C16.098 3 17 3.902 17 5.015V12.984C17 14.097 16.098 15 14.985 15H14V17.5C14 17.702 13.878 17.884 13.691 17.962C13.505 18.039 13.289 17.996 13.146 17.853L10.293 15ZM13 16.292V14.5C13 14.223 13.224 14 13.5 14H14.985C15.545 14 16 13.545 16 12.984V5.015C16 4.454 15.545 4 14.985 4H5.01501C4.45501 4 4 4.454 4 5.015V12.984C4 13.545 4.45501 14 5.01501 14H10.5C10.633 14 10.76 14.052 10.854 14.146L13 16.292Z" fill="currentColor"/>
</svg>
