<svg width="20" height="20" viewBox="0 0 20 20" fill="none" xmlns="http://www.w3.org/2000/svg">
<path d="M5.49814 10.0001C5.49814 9.17164 4.82655 8.5 3.99809 8.5C3.16964 8.5 2.49805 9.17164 2.49805 10.0001C2.49805 10.8285 3.16964 11.5001 3.99809 11.5001C4.82655 11.5001 5.49814 10.8285 5.49814 10.0001Z" fill="#3D3D3D"/>
<path d="M11.4981 10.0001C11.4981 9.17164 10.8265 8.5 9.99809 8.5C9.16964 8.5 8.49805 9.17164 8.49805 10.0001C8.49805 10.8285 9.16964 11.5001 9.99809 11.5001C10.8265 11.5001 11.4981 10.8285 11.4981 10.0001Z" fill="#3D3D3D"/>
<path d="M15.9981 8.5C16.8265 8.5 17.4981 9.17164 17.4981 10.0001C17.4981 10.8285 16.8265 11.5001 15.9981 11.5001C15.1696 11.5001 14.498 10.8285 14.498 10.0001C14.498 9.17164 15.1696 8.5 15.9981 8.5Z" fill="#3D3D3D"/>
</svg>
