<svg width="20" height="20" viewBox="0 0 20 20" fill="none" xmlns="http://www.w3.org/2000/svg">
<path fill-rule="evenodd" clip-rule="evenodd" d="M8.50018 7.50002C8.77634 7.50002 8.99998 7.27647 8.99998 7.0003C8.99997 6.76566 8.99998 6.43877 9 6L12.5 6.00007C13.3284 6.00007 14 6.67164 14 7.50007C14 8.3285 13.3284 9.00007 12.5 9.00007L12 9.00002C12 9.00002 9.00787 9.00002 8.26756 9.00002L8.00006 9.00002C6.34321 9.00002 5.00006 10.3432 5.00006 12C5.00006 13.6569 6.34321 15 8.00006 15H11V16C11 16.2761 11.2239 16.5 11.5 16.5H14.5C14.7761 16.5 15 16.2761 15 16V13C15 12.7239 14.7761 12.5 14.5 12.5H11.5C11.2239 12.5 11 12.7236 11 12.9998C11 13.3345 11 13.757 11 14H8.00006C6.89549 14 6.00006 13.1046 6.00006 12C6.00006 10.8955 6.89546 10.0001 8 10L12 10.0001H12.5C13.8807 10.0001 15 8.88078 15 7.50007C15 6.11936 13.8807 5.00007 12.5 5.00007L9 5V4C9 3.72386 8.77614 3.5 8.5 3.5L5.50005 3.50001C5.22391 3.50002 5.00006 3.72387 5.00005 4.00001L5.00001 7.00001C5 7.27615 5.22291 7.50002 5.49905 7.50002C6.22587 7.50002 7.58817 7.50002 8.50018 7.50002ZM12.3 13.5C12.1343 13.5 12 13.6343 12 13.8V15.2C12 15.3657 12.1343 15.5 12.3 15.5H13.7C13.8657 15.5 14 15.3657 14 15.2L14 13.8C14 13.6343 13.8657 13.5 13.7 13.5H12.3ZM11.9072 10.0001C11.9072 10.0001 7.96843 10 8 10L11.9072 10.0001ZM7.7 6.5C7.86569 6.5 8 6.36569 8 6.2V4.8C8 4.63431 7.86569 4.5 7.7 4.5H6.3C6.13431 4.5 6 4.63431 6 4.8V6.2C6 6.36569 6.13431 6.5 6.3 6.5H7.7Z" fill="#3D3D3D"/>
</svg>
