<svg width="16" height="16" viewBox="0 0 16 16" fill="none" xmlns="http://www.w3.org/2000/svg">
<path d="M14 11.5C14 11.6326 13.9532 11.7598 13.8698 11.8536C13.7865 11.9473 13.6734 12 13.5556 12C13.4377 12 13.3246 11.9473 13.2413 11.8536C13.1579 11.7598 13.1111 11.6326 13.1111 11.5C13.111 10.4123 12.8242 9.34911 12.287 8.44477C11.7498 7.54044 10.9863 6.83561 10.093 6.41939C9.19978 6.00317 8.21689 5.89426 7.26861 6.10642C6.32034 6.31857 5.44928 6.84228 4.76556 7.61132L3.52222 9.00005H6C6.11787 9.00005 6.23092 9.05273 6.31427 9.14649C6.39762 9.24026 6.44444 9.36743 6.44444 9.50004C6.44444 9.63265 6.39762 9.75982 6.31427 9.85359C6.23092 9.94736 6.11787 10 6 10H2.44444C2.32657 10 2.21352 9.94736 2.13017 9.85359C2.04683 9.75982 2 9.63265 2 9.50004V5.50011C2 5.3675 2.04683 5.24033 2.13017 5.14656C2.21352 5.05279 2.32657 5.00011 2.44444 5.00011C2.56232 5.00011 2.67536 5.05279 2.75871 5.14656C2.84206 5.24033 2.88889 5.3675 2.88889 5.50011V8.29819L4.13778 6.90258C4.94594 5.99389 5.97546 5.37517 7.09616 5.12464C8.21687 4.87412 9.37844 5.00305 10.434 5.49512C11.4896 5.9872 12.3918 6.82032 13.0265 7.88917C13.6612 8.95802 14 10.2146 14 11.5Z" fill="#3D3D3D"/>
</svg>
