<svg width="16" height="16" viewBox="0 0 16 16" fill="none" xmlns="http://www.w3.org/2000/svg">
<path d="M14 5.50011V9.50004C14 9.63265 13.9532 9.75982 13.8698 9.85359C13.7865 9.94736 13.6734 10 13.5556 10H10C9.88213 10 9.76908 9.94736 9.68573 9.85359C9.60238 9.75982 9.55556 9.63265 9.55556 9.50004C9.55556 9.36743 9.60238 9.24026 9.68573 9.14649C9.76908 9.05273 9.88213 9.00005 10 9.00005H12.4778L11.2356 7.61195C10.5519 6.84252 9.68082 6.31844 8.73241 6.10602C7.784 5.89359 6.80089 6.00235 5.90743 6.41855C5.01397 6.83474 4.2503 7.53967 3.71299 8.44417C3.17569 9.34868 2.8889 10.4121 2.88889 11.5C2.88889 11.6326 2.84206 11.7598 2.75871 11.8536C2.67536 11.9473 2.56232 12 2.44444 12C2.32657 12 2.21352 11.9473 2.13017 11.8536C2.04683 11.7598 2 11.6326 2 11.5C1.99998 10.2144 2.33883 8.95772 2.9737 7.8888C3.60857 6.81988 4.51094 5.98676 5.5667 5.49478C6.62247 5.00281 7.7842 4.87409 8.90499 5.1249C10.0258 5.37571 11.0553 5.99478 11.8633 6.90383L13.1111 8.29819V5.50011C13.1111 5.3675 13.1579 5.24033 13.2413 5.14656C13.3246 5.05279 13.4377 5.00011 13.5556 5.00011C13.6734 5.00011 13.7865 5.05279 13.8698 5.14656C13.9532 5.24033 14 5.3675 14 5.50011Z" fill="#3D3D3D"/>
</svg>
