<svg width="20" height="20" viewBox="0 0 20 20" fill="none" xmlns="http://www.w3.org/2000/svg">
<path d="M11.9501 8.71224C11.9501 7.46347 10.9377 6.45115 9.68898 6.45117L9.68896 5.45117C11.49 5.45115 12.9501 6.91118 12.9501 8.71224V9.0003H11.9501V8.71224Z" fill="currentColor"/>
<path fill-rule="evenodd" clip-rule="evenodd" d="M9 3.15576C9 2.60348 9.44772 2.15576 10 2.15576C10.5523 2.15576 11 2.60348 11 3.15576V3.51753C12.5444 3.82259 13.9606 4.84265 14.6483 6.57772C14.8807 7.1641 15 7.78916 15 8.41992V10.4277C15 10.5356 15.0349 10.6407 15.0995 10.7271L16.2014 12.2012C16.3953 12.4605 16.5 12.7756 16.5 13.0993V15.5607H12.4607C12.4211 16.6419 11.5052 17.753 9.97436 17.753C8.4435 17.753 7.57656 16.6419 7.53911 15.5607H3.5V13.0993C3.5 12.7756 3.60474 12.4605 3.79856 12.2012L4.90048 10.7271C4.96509 10.6407 5 10.5356 5 10.4277V8.41992C5 7.78916 5.11935 7.1641 5.35174 6.57772C6.03939 4.84265 7.45564 3.82259 9 3.51753V3.15576ZM15.4005 12.7999C15.4651 12.8864 15.5 12.9914 15.5 13.0993V14.5607H4.5V13.0993C4.5 12.9914 4.53491 12.8864 4.59952 12.7999L5.70144 11.3258C5.89526 11.0665 6 10.7515 6 10.4277V8.41992C6 7.91531 6.09548 7.41527 6.28139 6.94616C7.61633 3.57784 12.3837 3.57784 13.7186 6.94616C13.9045 7.41527 14 7.91531 14 8.41992V10.4277C14 10.7515 14.1047 11.0665 14.2986 11.3258L15.4005 12.7999ZM11.458 15.5775C10.6368 15.5607 9.37485 15.5607 8.54104 15.573C8.5831 16.1368 9.04168 16.753 9.97436 16.753C10.9291 16.753 11.4096 16.1171 11.458 15.5775Z" fill="currentColor"/>
</svg>
