<svg width="16" height="16" viewBox="0 0 16 16" fill="none" xmlns="http://www.w3.org/2000/svg">
<path d="M8.29517 9.92725H7.2356C7.24064 9.47819 7.28353 9.10482 7.36426 8.80713C7.44499 8.50439 7.57617 8.22689 7.75781 7.97461C7.9445 7.71729 8.19425 7.43473 8.50708 7.12695C8.7644 6.86458 8.99398 6.6224 9.1958 6.40039C9.40267 6.17334 9.56413 5.92863 9.68018 5.66626C9.80127 5.39884 9.86182 5.07341 9.86182 4.68994C9.86182 4.30143 9.7937 3.96338 9.65747 3.67578C9.52124 3.38818 9.31689 3.16618 9.04443 3.00977C8.77702 2.84831 8.44401 2.76758 8.04541 2.76758C7.68717 2.76758 7.36174 2.83569 7.06909 2.97192C6.77645 3.10815 6.54435 3.30998 6.3728 3.57739C6.20125 3.84481 6.11043 4.17277 6.10034 4.56128H5.04834C5.05843 3.98608 5.19718 3.49414 5.4646 3.08545C5.73202 2.67676 6.09025 2.36646 6.53931 2.15454C6.99341 1.93758 7.49544 1.8291 8.04541 1.8291C8.66097 1.8291 9.18066 1.94767 9.60449 2.18481C10.0334 2.41691 10.3588 2.7474 10.5808 3.17627C10.8079 3.60514 10.9214 4.10213 10.9214 4.66724C10.9214 5.11629 10.8407 5.52498 10.6792 5.89331C10.5177 6.26164 10.3008 6.60726 10.0283 6.93018C9.75586 7.25309 9.44808 7.57349 9.10498 7.89136C8.79216 8.15877 8.57772 8.46655 8.46167 8.8147C8.35067 9.1578 8.29517 9.52865 8.29517 9.92725ZM7.13721 12.4097C7.13721 12.223 7.19523 12.064 7.31128 11.9329C7.43237 11.8017 7.6014 11.7361 7.81836 11.7361C8.03532 11.7361 8.20435 11.8017 8.32544 11.9329C8.44653 12.064 8.50708 12.223 8.50708 12.4097C8.50708 12.5913 8.44653 12.7477 8.32544 12.8789C8.20435 13.0101 8.03532 13.0757 7.81836 13.0757C7.6014 13.0757 7.43237 13.0101 7.31128 12.8789C7.19523 12.7477 7.13721 12.5913 7.13721 12.4097Z" fill="#3D3D3D"/>
</svg>
