<svg width="20" height="20" viewBox="0 0 20 20" fill="none" xmlns="http://www.w3.org/2000/svg">
<path fill-rule="evenodd" clip-rule="evenodd" d="M10.5 3.86622C10.7989 3.69331 11 3.37014 11 3C11 2.44772 10.5523 2 10 2C9.44771 2 9 2.44772 9 3C9 3.37014 9.2011 3.69331 9.5 3.86622V5.5H5C3.61929 5.5 2.5 6.61929 2.5 8V15C2.5 16.3807 3.61929 17.5 5 17.5H15C16.3807 17.5 17.5 16.3807 17.5 15V8C17.5 6.61929 16.3807 5.5 15 5.5H10.5V3.86622ZM5 6.5C4.17157 6.5 3.5 7.17157 3.5 8V15C3.5 15.8284 4.17157 16.5 5 16.5H15C15.8284 16.5 16.5 15.8284 16.5 15V8C16.5 7.17157 15.8284 6.5 15 6.5H5ZM8 11C8 11.5523 7.55228 12 7 12C6.44772 12 6 11.5523 6 11C6 10.4477 6.44772 10 7 10C7.55228 10 8 10.4477 8 11ZM13 12C13.5523 12 14 11.5523 14 11C14 10.4477 13.5523 10 13 10C12.4477 10 12 10.4477 12 11C12 11.5523 12.4477 12 13 12ZM1 9.5C1 9.22386 1.22386 9 1.5 9C1.77614 9 2 9.22386 2 9.5V13.5C2 13.7761 1.77614 14 1.5 14C1.22386 14 1 13.7761 1 13.5V9.5ZM18.5 9C18.2239 9 18 9.22386 18 9.5V13.5C18 13.7761 18.2239 14 18.5 14C18.7761 14 19 13.7761 19 13.5V9.5C19 9.22386 18.7761 9 18.5 9Z" fill="#3D3D3D"/>
</svg>
