<svg width="20" height="20" viewBox="0 0 20 20" fill="none" xmlns="http://www.w3.org/2000/svg">
<path fill-rule="evenodd" clip-rule="evenodd" d="M4 6V4H6V6H4ZM4 3C3.73638 3 3.47784 3.09006 3.28395 3.28395C3.09006 3.47784 3 3.73638 3 4V6C3 6.26362 3.09006 6.52216 3.28395 6.71605C3.47784 6.90994 3.73638 7 4 7H6C6.26362 7 6.52216 6.90994 6.71605 6.71605C6.90994 6.52216 7 6.26362 7 6V4C7 3.73638 6.90994 3.47784 6.71605 3.28395C6.52216 3.09006 6.26362 3 6 3H4ZM4 11V9H6V11H4ZM4 8C3.73638 8 3.47784 8.09006 3.28395 8.28395C3.09006 8.47784 3 8.73638 3 9V11C3 11.2636 3.09006 11.5222 3.28395 11.7161C3.47784 11.9099 3.73638 12 4 12H6C6.26362 12 6.52216 11.9099 6.71605 11.7161C6.90994 11.5222 7 11.2636 7 11V9C7 8.73638 6.90994 8.47784 6.71605 8.28395C6.52216 8.09006 6.26362 8 6 8H4ZM4 14V16H6V14H4ZM3.28395 13.2839C3.47784 13.0901 3.73638 13 4 13H6C6.26362 13 6.52216 13.0901 6.71605 13.2839C6.90994 13.4778 7 13.7364 7 14V16C7 16.2636 6.90994 16.5222 6.71605 16.7161C6.52216 16.9099 6.26362 17 6 17H4C3.73638 17 3.47784 16.9099 3.28395 16.7161C3.09006 16.5222 3 16.2636 3 16V14C3 13.7364 3.09006 13.4778 3.28395 13.2839ZM9 6V4H16V6H9ZM9 3C8.73638 3 8.47784 3.09006 8.28395 3.28395C8.09006 3.47784 8 3.73638 8 4V6C8 6.26362 8.09006 6.52216 8.28395 6.71605C8.47784 6.90994 8.73638 7 9 7H16C16.2636 7 16.5222 6.90994 16.7161 6.71605C16.9099 6.52216 17 6.26362 17 6V4C17 3.73638 16.9099 3.47784 16.7161 3.28395C16.5222 3.09006 16.2636 3 16 3H9ZM9 9V11H15.9V9H9ZM8.28395 8.28395C8.47784 8.09006 8.73638 8 9 8H15.9C16.1636 8 16.4222 8.09006 16.6161 8.28395C16.8099 8.47784 16.9 8.73638 16.9 9V11C16.9 11.2636 16.8099 11.5222 16.6161 11.7161C16.4222 11.9099 16.1636 12 15.9 12H9C8.73638 12 8.47784 11.9099 8.28395 11.7161C8.09006 11.5222 8 11.2636 8 11V9C8 8.73638 8.09006 8.47784 8.28395 8.28395ZM9 16V14H16V15.9822L15.9957 15.9862C15.9917 15.9897 15.9871 15.9932 15.9822 15.9962C15.9798 15.9977 15.9775 15.999 15.9756 16H9ZM9 13C8.73638 13 8.47784 13.0901 8.28395 13.2839C8.09006 13.4778 8 13.7364 8 14V16C8 16.2636 8.09006 16.5222 8.28395 16.7161C8.47784 16.9099 8.73638 17 9 17H16C16.2451 17 16.483 16.8887 16.6543 16.7388C16.835 16.5806 17 16.3274 17 16V14C17 13.7364 16.9099 13.4778 16.7161 13.2839C16.5222 13.0901 16.2636 13 16 13H9Z" fill="#3D3D3D"/>
</svg>
