<svg width="16" height="16" viewBox="0 0 16 16" fill="none" xmlns="http://www.w3.org/2000/svg">
<path fill-rule="evenodd" clip-rule="evenodd" d="M7 10.6C8.933 10.6 10.5 9.033 10.5 7.10001C10.5 5.16701 8.933 3.60001 7 3.60001C5.067 3.60001 3.5 5.16701 3.5 7.10001C3.5 9.033 5.067 10.6 7 10.6ZM7 11.6C9.48528 11.6 11.5 9.58529 11.5 7.10001C11.5 4.61472 9.48528 2.60001 7 2.60001C4.51472 2.60001 2.5 4.61472 2.5 7.10001C2.5 9.58529 4.51472 11.6 7 11.6Z" fill="currentColor"/>
<path fill-rule="evenodd" clip-rule="evenodd" d="M13.7035 13.5036C13.5083 13.6988 13.1917 13.6988 12.9964 13.5036L9.46089 9.96803L10.168 9.26092L13.7035 12.7965C13.8988 12.9917 13.8988 13.3083 13.7035 13.5036Z" fill="currentColor"/>
</svg>
