<svg width="20" height="20" viewBox="0 0 20 20" fill="none" xmlns="http://www.w3.org/2000/svg">
<path fill-rule="evenodd" clip-rule="evenodd" d="M8.64192 3.00167L8.5708 3H8.42946L8.35833 3.00167L8.21776 3.00669L8.1475 3.01088L8.07806 3.0159L8.0078 3.02175L7.93836 3.02844L7.86978 3.03597L7.80034 3.04434L7.73171 3.05354L7.66395 3.06358L7.59538 3.07446L7.52762 3.08617L7.45981 3.09872L7.39292 3.1121L7.25904 3.14055L7.19297 3.15644L7.1269 3.17317L7.06077 3.19074L6.93026 3.22755L6.80143 3.26771L6.73705 3.28946L6.67348 3.31121L6.60985 3.3338L6.54715 3.35722L6.48271 3.38232L6.35976 3.43251L6.23757 3.48605L6.1163 3.54294L5.99666 3.60234L5.87871 3.66425L5.76326 3.7295L5.64863 3.79726L5.53655 3.86754L5.42529 3.94032L5.31653 4.01561L5.21027 4.09341L5.10488 4.17372L5.00195 4.25655L4.90156 4.34188L4.80286 4.42972L4.70666 4.51923L4.6121 4.61126L4.52008 4.70579L4.42976 4.80283L4.34188 4.90155L4.25743 5.00194L4.17461 5.10484L4.09342 5.20941L4.01565 5.3165L3.94034 5.42525L3.86758 5.53568L3.79727 5.64862L3.72951 5.76239L3.66512 5.87868L3.60237 5.99664L3.54298 6.11627L3.48692 6.23674L3.43335 6.35971L3.38316 6.48269L3.35809 6.54627L3.33465 6.60901L3.31208 6.6726L3.28946 6.73701L3.26858 6.80059L3.24765 6.86501L3.20915 6.99552L3.19076 7.06077L3.17402 7.12602L3.15732 7.19211L3.14139 7.25904L3.12632 7.32597L3.11213 7.39289L3.09875 7.45982L3.08619 7.52675L3.0745 7.59535L3.06362 7.66311L3.05356 7.73171L3.04437 7.80031L3.036 7.86891L3.02844 7.93834L3.02175 8.00778L3.01593 8.07722L3.00756 8.21776L3.00419 8.28803L3.00169 8.35831L3 8.49969L3.00169 8.64191L3.00419 8.71218L3.00756 8.78245L3.01593 8.92216L3.02175 8.99244L3.02844 9.06104L3.036 9.13047L3.04437 9.19991L3.05356 9.26851L3.06362 9.33627L3.0745 9.40487L3.08619 9.47263L3.09875 9.5404L3.11213 9.60733L3.12632 9.67425L3.14139 9.74118L3.15732 9.80727L3.19076 9.93945L3.20915 10.0047L3.24765 10.1352L3.26858 10.1988L3.28946 10.2632L3.33465 10.3904L3.35809 10.4531L3.38316 10.5175L3.43335 10.6405L3.48692 10.7626L3.54298 10.8839L3.60237 11.0036L3.66512 11.1215L3.72951 11.237L3.79727 11.3516L3.86758 11.4637L3.94034 11.575L4.01565 11.6837L4.09342 11.79L4.17461 11.8954L4.25743 11.9983L4.34188 12.0987L4.42976 12.1974L4.52008 12.2944L4.6121 12.3881L4.70666 12.4801L4.80286 12.5705L4.90156 12.6583L5.00195 12.7428L5.10488 12.8257L5.21027 12.9068L5.31653 12.9846L5.42529 13.0599L5.53655 13.1327L5.64863 13.203L5.76326 13.2707L5.87871 13.3351L5.99666 13.3979L6.1163 13.4573L6.23757 13.5133L6.35976 13.5669L6.48271 13.6171L6.54715 13.6422L6.60985 13.6656L6.67348 13.689L6.73705 13.7108L6.86587 13.7526L6.93026 13.7718L6.99552 13.7911L7.06077 13.8095L7.19297 13.8429L7.25904 13.8588L7.32598 13.8739L7.39292 13.8881L7.45981 13.9015L7.52762 13.914L7.59538 13.9258L7.66395 13.9366L7.73171 13.9467L7.80034 13.9559L7.86978 13.9642L7.93836 13.9718L8.0078 13.9785L8.07806 13.9843L8.21776 13.9927L8.28807 13.996L8.35833 13.9985L8.50054 14.0002L8.64192 13.9985L8.71218 13.996L8.7825 13.9927L8.92302 13.9843L8.99246 13.9785L9.0619 13.9718L9.13134 13.9642L9.19992 13.9559L9.26854 13.9467L9.33712 13.9366L9.40488 13.9258L9.47263 13.914L9.54039 13.9015L9.6082 13.8881L9.67509 13.8739L9.74121 13.8588L9.8081 13.8429L9.87423 13.8262L9.93948 13.8095L10.0056 13.7911L10.07 13.7718L10.1353 13.7526L10.2641 13.7108L10.3276 13.689L10.3904 13.6656L10.454 13.6422L10.5175 13.6171L10.6405 13.5669L10.7635 13.5133L10.884 13.4573L11.0036 13.3979L11.1215 13.3351L11.2379 13.2707L11.3516 13.203L11.4646 13.1327L11.575 13.0599L11.6837 12.9846L11.7908 12.9068L11.8954 12.8257L11.9983 12.7428L12.0188 12.7257L16.1462 16.8532L16.1682 16.8732L16.1912 16.8922L16.2152 16.9102L16.2392 16.9262L16.2652 16.9412L16.2922 16.9542L16.3192 16.9662L16.3472 16.9762L16.3752 16.9842L16.4042 16.9902L16.4342 16.9952L16.4632 16.9982L16.4932 17.0002L16.5222 16.9992L16.5522 16.9972L16.5812 16.9932L16.6102 16.9872L16.6392 16.9802L16.6672 16.9712L16.6952 16.9602L16.7222 16.9482L16.7482 16.9342L16.7732 16.9182L16.7972 16.9012L16.8212 16.8832L16.8432 16.8632L16.8642 16.8432L16.8842 16.8202L16.9022 16.7972L16.9192 16.7732L16.9342 16.7472L16.9482 16.7212L16.9612 16.6942L16.9712 16.6672L16.9802 16.6392L16.9882 16.6102L16.9932 16.5812L16.9972 16.5512L17.0002 16.5222V16.4922L16.9992 16.4632L16.9962 16.4332L16.9912 16.4042L16.9842 16.3752L16.9762 16.3472L16.9662 16.3192L16.9552 16.2912L16.9412 16.2652L16.9272 16.2392L16.9112 16.2142L16.8932 16.1902L16.8742 16.1682L16.8542 16.1462L12.7261 12.019L12.7437 11.9983L12.8265 11.8954L12.9068 11.79L12.9846 11.6837L13.0599 11.575L13.1327 11.4637L13.203 11.3516L13.2707 11.237L13.336 11.1215L13.3979 11.0036L13.4573 10.8839L13.5142 10.7626L13.5677 10.6405L13.6179 10.5175L13.643 10.4531L13.6664 10.3904L13.689 10.3268L13.7108 10.2632L13.7325 10.1988L13.7526 10.1352L13.7727 10.07L13.8095 9.93945L13.8271 9.87336L13.8438 9.80727L13.8597 9.74118L13.8747 9.67425L13.9015 9.5404L13.9141 9.47263L13.9258 9.40487L13.9366 9.33627L13.9467 9.26851L13.9559 9.19991L13.9643 9.13047L13.9718 9.06104L13.9785 8.99244L13.9843 8.92216L13.9894 8.85273L13.9936 8.78245L13.9986 8.64191L14.0003 8.5708V8.42942L13.9986 8.35831L13.9936 8.21776L13.9894 8.14749L13.9843 8.07722L13.9785 8.00778L13.9718 7.93834L13.9643 7.86891L13.9559 7.80031L13.9467 7.73171L13.9366 7.66311L13.9258 7.59535L13.9141 7.52675L13.9015 7.45982L13.8747 7.32597L13.8597 7.25904L13.8438 7.19211L13.8271 7.12602L13.8095 7.06077L13.7727 6.93026L13.7526 6.86501L13.7325 6.80059L13.7108 6.73701L13.689 6.6726L13.6664 6.60901L13.643 6.54627L13.6179 6.48269L13.5677 6.35971L13.5142 6.23674L13.4573 6.11627L13.3979 5.99664L13.336 5.87868L13.2707 5.76239L13.203 5.64862L13.1327 5.53568L13.0599 5.42525L12.9846 5.3165L12.9068 5.20941L12.8265 5.10484L12.7437 5.00194L12.6584 4.90155L12.5705 4.80283L12.481 4.70579L12.389 4.61126L12.2945 4.51923L12.1974 4.42972L12.0995 4.34188L11.9983 4.25655L11.8954 4.17372L11.7908 4.09341L11.6837 4.01561L11.575 3.94032L11.4646 3.86754L11.3516 3.79726L11.2379 3.7295L11.1215 3.66425L11.0036 3.60234L10.884 3.54294L10.7635 3.48605L10.6405 3.43251L10.5175 3.38232L10.454 3.35722L10.3904 3.3338L10.3276 3.31121L10.2641 3.28946L10.1996 3.26771L10.1353 3.24763L10.07 3.22755L10.0056 3.20915L9.93948 3.19074L9.87423 3.17317L9.8081 3.15644L9.74121 3.14055L9.67509 3.12632L9.6082 3.1121L9.54039 3.09872L9.47263 3.08617L9.40488 3.07446L9.33712 3.06358L9.26854 3.05354L9.19992 3.04434L9.13134 3.03597L9.0619 3.02844L8.99246 3.02175L8.92302 3.0159L8.85276 3.01088L8.7825 3.00669L8.64192 3.00167ZM8.38427 4.00139L8.50054 3.99972L8.61685 4.00139L8.67455 4.00306L8.7323 4.00557L8.78918 4.00892L8.84688 4.0131L8.96065 4.02314L9.01753 4.029L9.18572 4.05158L9.24174 4.06079L9.29699 4.06999L9.40738 4.09174L9.46176 4.10261L9.57052 4.12771L9.6249 4.14193L9.73197 4.17038L9.78472 4.18627L9.83823 4.20217L9.89011 4.2189L9.9428 4.23647L9.99468 4.25404L10.0984 4.29252L10.1478 4.31176L10.2506 4.35359L10.3511 4.39709L10.4498 4.44394L10.5477 4.49246L10.6439 4.54349L10.7393 4.5962L10.8321 4.65141L10.9241 4.70914L11.0153 4.76853L11.104 4.83044L11.1918 4.89402L11.2772 4.96011L11.3616 5.02787L11.4445 5.09815L11.5248 5.16926L11.6043 5.24288L11.6812 5.31901L11.7574 5.39597L11.831 5.47545L11.9021 5.55576L11.9724 5.63858L12.0401 5.72307L12.1062 5.80841L12.1698 5.89625L12.2317 5.98492L12.2911 6.07611L12.3488 6.16814L12.404 6.261L12.4567 6.35637L12.5078 6.45257L12.5563 6.55045L12.6023 6.64917L12.6466 6.74956L12.6885 6.85246L12.7077 6.90182L12.7462 7.00555L12.7638 7.05742L12.7813 7.11013L12.7981 7.16283L12.8298 7.26824L12.8441 7.32178L12.8583 7.37616L12.8725 7.4297L12.8976 7.53846L12.9085 7.59284L12.9302 7.70326L12.9395 7.75848L12.9487 7.81453L12.9712 7.98268L12.9771 8.03957L12.9872 8.15335L12.9913 8.21023L12.9947 8.26796L12.9972 8.32568L12.9988 8.38341L12.9997 8.44197L13.0005 8.49969L12.9988 8.61598L12.9972 8.6737L12.9947 8.73226L12.9913 8.78915L12.9872 8.84604L12.9771 8.96065L12.9712 9.0167L12.9637 9.07359L12.9487 9.18569L12.9302 9.29612L12.8976 9.46176L12.8725 9.57052L12.8298 9.73114L12.814 9.78468L12.7981 9.83738L12.7813 9.89009L12.7638 9.94279L12.7462 9.99466L12.727 10.0465L12.7077 10.0976L12.6885 10.1478L12.6466 10.2507L12.6023 10.351L12.5563 10.4498L12.5078 10.5476L12.4567 10.6438L12.404 10.7384L12.3488 10.8321L12.2911 10.9241L12.2317 11.0145L12.1698 11.104L12.1062 11.191L12.0401 11.2771L11.9724 11.3616L11.9021 11.4436L11.831 11.5248L11.7574 11.6042L11.6812 11.6812L11.6043 11.7565L11.5248 11.8301L11.4445 11.9021L11.3616 11.9723L11.2772 12.0401L11.1918 12.1054L11.104 12.1698L11.0153 12.2308L10.9241 12.2911L10.8321 12.348L10.7393 12.404L10.6439 12.4567L10.5477 12.5078L10.4498 12.5563L10.3511 12.6023L10.2506 12.6466L10.1478 12.6885L10.0984 12.7077L10.0466 12.7269L9.9428 12.7637L9.89011 12.7805L9.83823 12.7972L9.78472 12.8139L9.73197 12.829L9.67846 12.8441L9.6249 12.8583L9.51614 12.8851L9.40738 12.9085L9.35218 12.9194L9.24174 12.9394L9.12966 12.9562L9.07359 12.9637L9.01753 12.9704L8.96065 12.9771L8.84688 12.9871L8.7323 12.9938L8.61685 12.9988L8.55829 12.9997H8.44197L8.38427 12.9988L8.26882 12.9938L8.15419 12.9871L8.09649 12.9821L8.03961 12.9771L7.98355 12.9704L7.92666 12.9637L7.8706 12.9562L7.81453 12.9478L7.75934 12.9394L7.70327 12.9294L7.64889 12.9194L7.5937 12.9085L7.5385 12.8968L7.48412 12.8851L7.42974 12.8717L7.37618 12.8583L7.32261 12.8441L7.21554 12.8139L7.05745 12.7637L6.9537 12.7269L6.90269 12.7077L6.85249 12.6885L6.74956 12.6466L6.64917 12.6023L6.55047 12.5563L6.45259 12.5078L6.35639 12.4567L6.26187 12.404L6.16818 12.348L6.07611 12.2911L5.98579 12.2308L5.89628 12.1698L5.80927 12.1054L5.72308 12.0401L5.63862 11.9723L5.55662 11.9021L5.47548 11.8301L5.39598 11.7565L5.31903 11.6812L5.24372 11.6042L5.17009 11.5248L5.09814 11.4436L5.02875 11.3616L4.96013 11.2771L4.89487 11.191L4.83048 11.104L4.76941 11.0145L4.70916 10.9241L4.65228 10.8321L4.59622 10.7384L4.54352 10.6438L4.49246 10.5476L4.44395 10.4498L4.39795 10.351L4.35362 10.2507L4.31175 10.1478L4.29256 10.0976L4.27331 10.0465L4.23649 9.94279L4.1863 9.78468L4.15617 9.6776L4.14198 9.62406L4.12855 9.57052L4.11517 9.51614L4.10348 9.46176L4.09173 9.40655L4.08086 9.35133L4.06079 9.2409L4.05242 9.18569L4.04409 9.12964L4.03654 9.07359L4.02985 9.0167L4.02316 8.96065L4.0131 8.84604L4.00641 8.73226L4.00141 8.61598L4.00059 8.55825V8.44197L4.00141 8.38341L4.00641 8.26796L4.0131 8.15335L4.02316 8.03957L4.02985 7.98268L4.03654 7.92663L4.04409 7.87058L4.06079 7.75848L4.08086 7.64805L4.09173 7.59284L4.11517 7.48408L4.12855 7.4297L4.14198 7.37616L4.15617 7.32178L4.17124 7.26824L4.1863 7.21554L4.23649 7.05742L4.27331 6.95369L4.29256 6.90182L4.31175 6.85246L4.35362 6.74956L4.39795 6.64917L4.44395 6.55045L4.49246 6.45257L4.54352 6.35637L4.59622 6.261L4.65228 6.16814L4.70916 6.07611L4.76941 5.98492L4.83048 5.89625L4.89487 5.80841L4.96013 5.72307L5.02875 5.63858L5.09814 5.55576L5.17009 5.47545L5.24372 5.39597L5.31903 5.31901L5.39598 5.24288L5.47548 5.16926L5.55662 5.09815L5.63862 5.02787L5.72308 4.96011L5.80927 4.89402L5.89628 4.83044L5.98579 4.76853L6.07611 4.70914L6.16818 4.65141L6.26187 4.5962L6.35639 4.54349L6.45259 4.49246L6.55047 4.44394L6.64917 4.39709L6.74956 4.35359L6.85249 4.31176L6.90269 4.29252L6.9537 4.27328L7.00558 4.25404L7.05745 4.23647L7.11015 4.2189L7.16284 4.20217L7.21554 4.18627L7.2691 4.17038L7.42974 4.12771L7.5385 4.10261L7.64889 4.08086L7.70327 4.06999L7.75934 4.06079L7.81453 4.05158L7.92666 4.03653L7.98355 4.029L8.03961 4.02314L8.09649 4.01812L8.15419 4.0131L8.21107 4.00892L8.26882 4.00557L8.32652 4.00306L8.38427 4.00139Z" fill="#3D3D3D"/>
</svg>
