<svg width="20" height="20" viewBox="0 0 20 20" fill="none" xmlns="http://www.w3.org/2000/svg">
<path fill-rule="evenodd" clip-rule="evenodd" d="M5.48602 3.49603L5.53802 3.50703L5.58801 3.52403L5.63599 3.54603L5.68103 3.57303L7.28998 4.64603L7.35101 4.61603L7.43701 4.57403L7.52399 4.53403L7.61102 4.49503L7.70001 4.45703L7.789 4.42103L7.87799 4.38603L7.96899 4.35303L8.06 4.32103L8.13098 4.29703L8.51001 2.40203L8.52301 2.35003L8.54102 2.30103L8.565 2.25403L8.59302 2.20903L8.62598 2.16803L8.66302 2.13003L8.70398 2.09703L8.74799 2.06803L8.79498 2.04403L8.84399 2.02503L8.89502 2.01103L8.94702 2.00203L9 2.00003H11L11.053 2.00203L11.105 2.01103L11.156 2.02503L11.205 2.04403L11.252 2.06803L11.296 2.09703L11.337 2.13003L11.374 2.16803L11.407 2.20903L11.435 2.25403L11.459 2.30103L11.477 2.35003L11.49 2.40203L11.869 4.29703L11.94 4.32103L12.031 4.35303L12.122 4.38603L12.211 4.42103L12.3 4.45703L12.389 4.49503L12.476 4.53403L12.563 4.57403L12.649 4.61603L12.71 4.64603L14.319 3.57303L14.364 3.54603L14.412 3.52403L14.462 3.50703L14.514 3.49603L14.566 3.49003H14.619L14.672 3.49503L14.723 3.50603L14.774 3.52203L14.822 3.54303L14.868 3.56903L14.91 3.60003L14.95 3.63603L16.364 5.05003L16.399 5.08903L16.43 5.13203L16.457 5.17803L16.478 5.22603L16.494 5.27603L16.505 5.32803L16.51 5.38003V5.43303L16.504 5.48603L16.492 5.53703L16.475 5.58703L16.453 5.63503L16.426 5.68103L15.354 7.29003L15.384 7.35003L15.426 7.43603L15.466 7.52303L15.505 7.61103L15.542 7.69903L15.579 7.78803L15.613 7.87803L15.647 7.96903L15.679 8.06003L15.702 8.13003L17.598 8.50903L17.649 8.52203L17.699 8.54103L17.746 8.56403L17.791 8.59303L17.832 8.62603L17.869 8.66303L17.903 8.70303L17.932 8.74803L17.956 8.79503L17.975 8.84403L17.989 8.89503L17.997 8.94703L18 9.00003V11L17.997 11.052L17.989 11.104L17.975 11.155L17.956 11.205L17.932 11.252L17.903 11.296L17.869 11.337L17.832 11.374L17.791 11.407L17.746 11.435L17.699 11.458L17.649 11.477L17.598 11.49L15.702 11.869L15.679 11.939L15.647 12.031L15.613 12.121L15.579 12.211L15.542 12.3L15.505 12.388L15.466 12.476L15.426 12.563L15.384 12.649L15.354 12.709L16.426 14.318L16.453 14.364L16.475 14.412L16.492 14.462L16.504 14.513L16.51 14.566V14.619L16.505 14.671L16.494 14.723L16.478 14.773L16.457 14.822L16.43 14.867L16.399 14.91L16.364 14.949L14.95 16.364L14.91 16.399L14.868 16.43L14.822 16.456L14.774 16.477L14.723 16.494L14.672 16.504L14.619 16.509H14.566L14.514 16.503L14.462 16.492L14.412 16.475L14.364 16.453L14.319 16.426L12.71 15.353L12.649 15.384L12.563 15.425L12.476 15.465L12.389 15.504L12.3 15.542L12.211 15.578L12.122 15.613L12.031 15.646L11.94 15.678L11.869 15.702L11.49 17.598L11.477 17.649L11.459 17.698L11.435 17.746L11.407 17.79L11.374 17.831L11.337 17.869L11.296 17.902L11.252 17.931L11.205 17.956L11.156 17.975L11.105 17.988L11.053 17.997L11 18H9L8.94702 17.997L8.89502 17.988L8.84399 17.975L8.79498 17.956L8.74799 17.931L8.70398 17.902L8.66302 17.869L8.62598 17.831L8.59302 17.79L8.565 17.746L8.54102 17.698L8.52301 17.649L8.51001 17.598L8.13098 15.702L8.06 15.678L7.96899 15.646L7.87799 15.613L7.789 15.578L7.70001 15.542L7.61102 15.504L7.52399 15.465L7.43701 15.425L7.35101 15.384L7.28998 15.353L5.68103 16.426L5.63599 16.453L5.58801 16.475L5.53802 16.492L5.48602 16.503L5.43402 16.509H5.38098L5.328 16.504L5.27698 16.494L5.22601 16.477L5.17798 16.456L5.13202 16.43L5.09003 16.399L5.04999 16.364L3.63599 14.949L3.60101 14.91L3.57001 14.867L3.54303 14.822L3.52197 14.773L3.50598 14.723L3.495 14.671L3.48999 14.619V14.566L3.49597 14.513L3.508 14.462L3.52502 14.412L3.547 14.364L3.57397 14.318L4.646 12.709L4.61603 12.649L4.57397 12.563L4.534 12.476L4.495 12.388L4.45801 12.3L4.42102 12.211L4.38702 12.121L4.35303 12.031L4.32098 11.939L4.29797 11.869L2.40198 11.49L2.35101 11.477L2.30103 11.458L2.25403 11.435L2.20898 11.407L2.16803 11.374L2.13098 11.337L2.09698 11.296L2.06799 11.252L2.04401 11.205L2.02502 11.155L2.01099 11.104L2.00299 11.052L2 11V9.00003L2.00299 8.94703L2.01099 8.89503L2.02502 8.84403L2.04401 8.79503L2.06799 8.74803L2.09698 8.70303L2.13098 8.66303L2.16803 8.62603L2.20898 8.59303L2.25403 8.56403L2.30103 8.54103L2.35101 8.52203L2.40198 8.50903L4.29797 8.13003L4.32098 8.06003L4.35303 7.96903L4.38702 7.87803L4.42102 7.78803L4.45801 7.69903L4.495 7.61103L4.534 7.52303L4.57397 7.43603L4.61603 7.35003L4.646 7.29003L3.57397 5.68103L3.547 5.63503L3.52502 5.58703L3.508 5.53703L3.49597 5.48603L3.48999 5.43303V5.38003L3.495 5.32803L3.50598 5.27603L3.52197 5.22603L3.54303 5.17803L3.57001 5.13203L3.60101 5.08903L3.63599 5.05003L5.04999 3.63603L5.09003 3.60003L5.13202 3.56903L5.17798 3.54303L5.22601 3.52203L5.27698 3.50603L5.328 3.49503L5.38098 3.49003H5.43402L5.48602 3.49603ZM12.83 14.279L12.879 14.291L12.926 14.308L12.971 14.329L13.014 14.354L14.532 15.367L15.367 14.532L14.355 13.014L14.329 12.971L14.308 12.925L14.291 12.878L14.28 12.83L14.273 12.78L14.271 12.73L14.274 12.68L14.282 12.631L14.295 12.582L14.313 12.535L14.335 12.491L14.376 12.418L14.414 12.348L14.451 12.278L14.487 12.207L14.522 12.135L14.555 12.063L14.588 11.99L14.619 11.916L14.649 11.842L14.678 11.767L14.706 11.692L14.733 11.616L14.758 11.539L14.782 11.463L14.805 11.385L14.828 11.303L14.844 11.256L14.865 11.21L14.89 11.167L14.919 11.126L14.952 11.089L14.989 11.055L15.028 11.024L15.071 10.998L15.116 10.977L15.163 10.96L15.212 10.947L17 10.59V9.41003L15.212 9.05203L15.163 9.04003L15.116 9.02303L15.071 9.00103L15.028 8.97503L14.988 8.94503L14.952 8.91103L14.919 8.87303L14.89 8.83303L14.865 8.78903L14.844 8.74403L14.828 8.69603L14.805 8.61403L14.782 8.53703L14.758 8.46003L14.733 8.38303L14.706 8.30703L14.678 8.23203L14.649 8.15703L14.619 8.08303L14.588 8.01003L14.555 7.93703L14.522 7.86403L14.487 7.79303L14.451 7.72203L14.414 7.65103L14.376 7.58103L14.335 7.50903L14.313 7.46403L14.295 7.41703L14.282 7.36903L14.274 7.31903L14.271 7.26903L14.273 7.21903L14.28 7.17003L14.291 7.12103L14.308 7.07403L14.329 7.02803L14.355 6.98503L15.367 5.46703L14.532 4.63303L13.014 5.64503L12.971 5.67003L12.926 5.69203L12.879 5.70803L12.83 5.72003L12.78 5.72703L12.73 5.72903L12.68 5.72603L12.631 5.71703L12.583 5.70403L12.536 5.68703L12.491 5.66403L12.418 5.62303L12.349 5.58503L12.278 5.54803L12.207 5.51303L12.135 5.47803L12.063 5.44403L11.99 5.41203L11.916 5.38103L11.842 5.35003L11.768 5.32103L11.692 5.29403L11.616 5.26703L11.54 5.24203L11.463 5.21703L11.385 5.19403L11.304 5.17103L11.256 5.15603L11.21 5.13503L11.167 5.11003L11.126 5.08103L11.089 5.04803L11.055 5.01103L11.025 4.97103L10.999 4.92903L10.977 4.88303L10.96 4.83603L10.948 4.78803L10.59 3.00003H9.40997L9.052 4.78803L9.03998 4.83603L9.02301 4.88303L9.00098 4.92903L8.97498 4.97103L8.94501 5.01103L8.91101 5.04803L8.87402 5.08103L8.83301 5.11003L8.78998 5.13503L8.74402 5.15603L8.69598 5.17103L8.61499 5.19403L8.53699 5.21703L8.46002 5.24203L8.38397 5.26703L8.30798 5.29403L8.23199 5.32103L8.15802 5.35003L8.08398 5.38103L8.01001 5.41203L7.93701 5.44403L7.86499 5.47803L7.79303 5.51303L7.72198 5.54803L7.651 5.58503L7.58197 5.62303L7.50897 5.66403L7.46399 5.68703L7.41699 5.70403L7.36902 5.71703L7.32001 5.72603L7.27002 5.72903L7.21997 5.72703L7.16998 5.72003L7.12097 5.70803L7.07397 5.69203L7.02899 5.67003L6.98602 5.64503L5.46802 4.63303L4.633 5.46703L5.64502 6.98503L5.67102 7.02803L5.69202 7.07403L5.70898 7.12103L5.71997 7.17003L5.72699 7.21903L5.729 7.26903L5.72601 7.31903L5.71802 7.36903L5.70502 7.41703L5.68701 7.46403L5.66498 7.50903L5.62402 7.58103L5.586 7.65103L5.54901 7.72203L5.513 7.79303L5.47803 7.86403L5.44501 7.93703L5.41199 8.01003L5.38098 8.08303L5.35101 8.15703L5.32202 8.23203L5.29401 8.30703L5.26703 8.38303L5.242 8.46003L5.21802 8.53703L5.19501 8.61403L5.172 8.69603L5.15601 8.74403L5.13501 8.78903L5.10999 8.83303L5.08099 8.87303L5.04797 8.91103L5.01099 8.94503L4.97198 8.97503L4.92902 9.00103L4.88397 9.02303L4.83698 9.04003L4.78802 9.05203L3 9.41003V10.59L4.78802 10.947L4.83698 10.96L4.88397 10.977L4.92902 10.998L4.97198 11.024L5.01202 11.055L5.04797 11.089L5.08099 11.126L5.10999 11.167L5.13501 11.21L5.15601 11.256L5.172 11.303L5.19501 11.385L5.21802 11.463L5.242 11.539L5.26703 11.616L5.29401 11.692L5.32202 11.767L5.35101 11.842L5.38098 11.916L5.41199 11.99L5.44501 12.063L5.47803 12.135L5.513 12.207L5.54901 12.278L5.586 12.348L5.62402 12.418L5.66498 12.491L5.68701 12.535L5.70502 12.582L5.71802 12.63L5.72601 12.68L5.729 12.73L5.72699 12.78L5.71997 12.83L5.70898 12.878L5.69202 12.925L5.67102 12.971L5.64502 13.014L4.633 14.532L5.46802 15.367L6.98602 14.354L7.02899 14.329L7.07397 14.308L7.12097 14.291L7.16998 14.279L7.21997 14.272L7.27002 14.27L7.32001 14.274L7.36902 14.282L7.41699 14.295L7.46399 14.313L7.50897 14.335L7.58197 14.376L7.651 14.414L7.72198 14.451L7.79303 14.487L7.86499 14.521L7.93701 14.555L8.01001 14.587L8.08398 14.619L8.15802 14.649L8.23199 14.678L8.30798 14.706L8.38397 14.732L8.46002 14.758L8.53699 14.782L8.61499 14.805L8.69598 14.828L8.74402 14.844L8.78998 14.864L8.83301 14.889L8.87402 14.918L8.91101 14.951L8.94501 14.988L8.97498 15.028L9.00098 15.071L9.02301 15.116L9.03998 15.163L9.052 15.211L9.40997 17H10.59L10.948 15.211L10.96 15.163L10.977 15.116L10.999 15.071L11.025 15.028L11.055 14.988L11.089 14.951L11.126 14.918L11.167 14.889L11.21 14.864L11.256 14.844L11.304 14.828L11.385 14.805L11.463 14.782L11.54 14.758L11.616 14.732L11.692 14.706L11.768 14.678L11.842 14.649L11.916 14.619L11.99 14.587L12.063 14.555L12.135 14.521L12.207 14.487L12.278 14.451L12.349 14.414L12.418 14.376L12.491 14.335L12.536 14.313L12.583 14.295L12.631 14.282L12.68 14.274L12.73 14.27L12.78 14.272L12.83 14.279ZM10.077 7.00003L10.154 7.00303L10.23 7.00803L10.306 7.01503L10.381 7.02303L10.456 7.03403L10.53 7.04603L10.604 7.06003L10.677 7.07603L10.749 7.09403L10.821 7.11303L10.891 7.13403L10.962 7.15703L11.031 7.18203L11.1 7.20803L11.167 7.23603L11.234 7.26503L11.3 7.29603L11.366 7.32803L11.43 7.36203L11.493 7.39703L11.555 7.43403L11.617 7.47303L11.677 7.51203L11.736 7.55303L11.795 7.59603L11.852 7.64003L11.908 7.68503L11.963 7.73103L12.017 7.77903L12.069 7.82803L12.121 7.87803L12.171 7.93003L12.22 7.98203L12.268 8.03603L12.314 8.09103L12.359 8.14703L12.403 8.20503L12.446 8.26303L12.487 8.32203L12.527 8.38203L12.565 8.44403L12.602 8.50603L12.637 8.56903L12.671 8.63403L12.704 8.69903L12.734 8.76503L12.764 8.83203L12.791 8.89903L12.818 8.96803L12.842 9.03803L12.865 9.10803L12.886 9.17903L12.905 9.25003L12.923 9.32303L12.939 9.39503L12.953 9.46903L12.965 9.54303L12.976 9.61803L12.984 9.69303L12.991 9.76903L12.996 9.84503L12.999 9.92203L13 9.99903L12.999 10.076L12.996 10.153L12.991 10.23L12.984 10.305L12.976 10.381L12.965 10.456L12.953 10.53L12.939 10.603L12.923 10.676L12.905 10.749L12.886 10.82L12.865 10.891L12.842 10.961L12.818 11.031L12.791 11.099L12.764 11.167L12.734 11.234L12.704 11.3L12.671 11.365L12.637 11.429L12.602 11.493L12.565 11.555L12.527 11.616L12.487 11.677L12.446 11.736L12.403 11.794L12.359 11.851L12.314 11.908L12.268 11.963L12.22 12.016L12.171 12.069L12.121 12.12L12.069 12.171L12.017 12.22L11.963 12.267L11.908 12.314L11.852 12.359L11.795 12.403L11.736 12.445L11.677 12.486L11.617 12.526L11.555 12.565L11.493 12.601L11.43 12.637L11.366 12.671L11.3 12.703L11.234 12.734L11.167 12.763L11.1 12.791L11.031 12.817L10.962 12.842L10.891 12.864L10.821 12.885L10.749 12.905L10.677 12.923L10.604 12.938L10.53 12.953L10.456 12.965L10.381 12.975L10.306 12.984L10.23 12.991L10.154 12.996L10.077 12.998L10 12.999L9.92297 12.998L9.84601 12.996L9.77002 12.991L9.69397 12.984L9.61798 12.975L9.54401 12.965L9.46899 12.953L9.396 12.938L9.323 12.923L9.25098 12.905L9.17902 12.885L9.10797 12.864L9.03802 12.842L8.96899 12.817L8.90002 12.791L8.83197 12.763L8.76501 12.734L8.69897 12.703L8.63397 12.671L8.57001 12.637L8.50598 12.601L8.44397 12.565L8.383 12.526L8.32202 12.486L8.263 12.445L8.20502 12.403L8.14801 12.359L8.09198 12.314L8.03699 12.267L7.98297 12.22L7.92999 12.171L7.87903 12.12L7.82898 12.069L7.78003 12.016L7.73199 11.963L7.685 11.907L7.64001 11.851L7.59601 11.794L7.55402 11.736L7.513 11.677L7.47302 11.616L7.435 11.555L7.39801 11.493L7.362 11.429L7.328 11.365L7.29602 11.3L7.26501 11.234L7.23602 11.167L7.20801 11.099L7.18201 11.031L7.15802 10.961L7.13501 10.891L7.11401 10.82L7.09399 10.749L7.07703 10.676L7.06097 10.603L7.047 10.53L7.034 10.456L7.02399 10.381L7.01501 10.305L7.008 10.23L7.00403 10.153L7.00098 10.077L7 9.99903L7.00098 9.92203L7.00403 9.84603L7.008 9.76903L7.01501 9.69303L7.02399 9.61803L7.034 9.54303L7.047 9.46903L7.06097 9.39503L7.07703 9.32303L7.09399 9.25003L7.11401 9.17903L7.13501 9.10803L7.15802 9.03803L7.18201 8.96803L7.20801 8.90003L7.23602 8.83203L7.26501 8.76503L7.29602 8.69903L7.328 8.63403L7.362 8.56903L7.39801 8.50603L7.435 8.44403L7.47302 8.38203L7.513 8.32203L7.55402 8.26303L7.59601 8.20503L7.64001 8.14703L7.685 8.09103L7.73199 8.03603L7.78003 7.98203L7.82898 7.93003L7.87903 7.87803L7.92999 7.82803L7.98297 7.77903L8.03699 7.73103L8.09198 7.68503L8.14801 7.64003L8.20502 7.59603L8.263 7.55303L8.32202 7.51203L8.383 7.47303L8.44397 7.43403L8.50598 7.39703L8.57001 7.36203L8.63397 7.32803L8.69897 7.29603L8.76501 7.26503L8.83197 7.23603L8.90002 7.20803L8.96899 7.18203L9.03802 7.15703L9.10797 7.13403L9.17902 7.11303L9.25098 7.09403L9.323 7.07603L9.396 7.06003L9.46899 7.04603L9.54401 7.03403L9.61798 7.02303L9.69397 7.01503L9.77002 7.00803L9.84601 7.00303L9.92297 7.00003L10 6.99903L10.077 7.00003ZM9.948 8.00003L9.89697 8.00203L9.84601 8.00503L9.79498 8.01003L9.745 8.01603L9.69501 8.02303L9.646 8.03103L9.59698 8.04003L9.54797 8.05103L9.5 8.06203L9.45203 8.07503L9.40503 8.08903L9.35901 8.10403L9.31299 8.12103L9.26703 8.13803L9.22198 8.15603L9.177 8.17603L9.133 8.19703L9.09003 8.21803L9.047 8.24103L9.005 8.26403L8.96399 8.28903L8.92297 8.31403L8.88202 8.34103L8.84302 8.36803L8.80402 8.39703L8.76599 8.42603L8.72803 8.45603L8.69098 8.48703L8.65503 8.51903L8.62 8.55203L8.586 8.58503L8.552 8.62003L8.51898 8.65503L8.48798 8.69103L8.45697 8.72803L8.427 8.76503L8.39697 8.80403L8.36902 8.84203L8.341 8.88203L8.315 8.92203L8.289 8.96303L8.26501 9.00503L8.24103 9.04703L8.21899 9.09003L8.19702 9.13303L8.17603 9.17703L8.15698 9.22203L8.138 9.26703L8.12097 9.31203L8.10498 9.35803L8.09003 9.40503L8.07599 9.45203L8.06299 9.50003L8.05103 9.54803L8.04102 9.59603L8.03101 9.64503L8.02301 9.69503L8.01599 9.74403L8.01001 9.79403L8.00598 9.84503L8.00201 9.89603L8.00098 9.94803L8 9.99903L8.00098 10.051L8.00201 10.103L8.00598 10.154L8.01001 10.204L8.01599 10.255L8.02301 10.304L8.03101 10.354L8.04102 10.403L8.05103 10.451L8.06299 10.499L8.07599 10.547L8.09003 10.594L8.10498 10.64L8.12097 10.687L8.138 10.732L8.15698 10.777L8.17603 10.822L8.19702 10.866L8.21899 10.909L8.24103 10.952L8.26501 10.994L8.289 11.036L8.315 11.076L8.341 11.117L8.36902 11.156L8.39697 11.195L8.427 11.234L8.45697 11.271L8.48798 11.308L8.51898 11.344L8.552 11.379L8.586 11.413L8.62 11.447L8.65503 11.48L8.69098 11.511L8.72803 11.543L8.76599 11.573L8.80402 11.602L8.84302 11.63L8.88202 11.658L8.92297 11.684L8.96399 11.71L9.005 11.735L9.047 11.758L9.09003 11.781L9.133 11.802L9.177 11.823L9.22198 11.842L9.26703 11.861L9.31299 11.878L9.35901 11.894L9.40503 11.909L9.45203 11.924L9.5 11.936L9.54797 11.948L9.59698 11.959L9.646 11.968L9.69501 11.976L9.745 11.983L9.79498 11.989L9.84601 11.994L9.89697 11.997L9.948 11.999H10H10.052L10.103 11.997L10.154 11.994L10.205 11.989L10.255 11.983L10.305 11.976L10.354 11.968L10.403 11.959L10.452 11.948L10.5 11.936L10.547 11.924L10.594 11.909L10.641 11.894L10.687 11.878L10.733 11.861L10.778 11.842L10.822 11.823L10.866 11.802L10.91 11.781L10.952 11.758L10.994 11.735L11.036 11.71L11.077 11.684L11.117 11.658L11.157 11.63L11.196 11.602L11.234 11.573L11.271 11.543L11.308 11.511L11.344 11.48L11.379 11.447L11.414 11.413L11.447 11.379L11.48 11.344L11.512 11.308L11.543 11.271L11.573 11.233L11.602 11.195L11.631 11.156L11.658 11.117L11.685 11.076L11.71 11.036L11.735 10.994L11.759 10.952L11.781 10.909L11.803 10.866L11.823 10.822L11.843 10.777L11.861 10.732L11.879 10.687L11.895 10.64L11.91 10.594L11.924 10.547L11.937 10.499L11.949 10.451L11.959 10.403L11.968 10.354L11.977 10.304L11.984 10.255L11.989 10.204L11.994 10.153L11.997 10.102L11.999 10.051L12 9.99903L11.999 9.94803L11.997 9.89603L11.994 9.84503L11.989 9.79403L11.984 9.74403L11.977 9.69503L11.968 9.64503L11.959 9.59603L11.949 9.54803L11.937 9.50003L11.924 9.45203L11.91 9.40503L11.895 9.35803L11.879 9.31203L11.861 9.26703L11.843 9.22103L11.823 9.17703L11.803 9.13303L11.781 9.09003L11.759 9.04703L11.735 9.00503L11.71 8.96303L11.685 8.92203L11.658 8.88203L11.631 8.84203L11.602 8.80403L11.573 8.76503L11.543 8.72803L11.512 8.69103L11.48 8.65503L11.447 8.62003L11.414 8.58603L11.379 8.55203L11.344 8.51903L11.308 8.48703L11.271 8.45603L11.234 8.42603L11.196 8.39703L11.157 8.36803L11.117 8.34103L11.077 8.31403L11.036 8.28903L10.994 8.26403L10.952 8.24103L10.91 8.21803L10.866 8.19603L10.822 8.17603L10.778 8.15603L10.733 8.13803L10.687 8.12103L10.641 8.10403L10.594 8.08903L10.547 8.07503L10.5 8.06203L10.452 8.05103L10.403 8.04003L10.354 8.03103L10.305 8.02303L10.255 8.01603L10.205 8.01003L10.154 8.00503L10.103 8.00203L10.052 8.00003L10 7.99903L9.948 8.00003Z" fill="currentColor"/>
</svg>
