<svg width="20" height="20" viewBox="0 0 20 20" fill="none" xmlns="http://www.w3.org/2000/svg">
<path d="M9.99988 18C14.4182 18 17.9999 14.4183 17.9999 10C17.9999 5.58172 14.4182 2 9.99988 2C5.5816 2 1.99988 5.58172 1.99988 10C1.99988 14.4183 5.5816 18 9.99988 18Z" fill="#26A5E4"/>
<path fill-rule="evenodd" clip-rule="evenodd" d="M5.61858 9.87444C8.0345 8.60433 9.64548 7.767 10.4515 7.36244C12.753 6.20735 13.2312 6.0067 13.5429 6.00007C13.6115 5.99861 13.7648 6.01911 13.8641 6.11633C13.9479 6.19842 13.971 6.30932 13.982 6.38715C13.9931 6.46498 14.0068 6.64228 13.9959 6.78081C13.8712 8.36205 13.3315 12.1993 13.057 13.9703C12.9408 14.7197 12.7121 14.971 12.4906 14.9955C12.0093 15.049 11.6439 14.6118 11.1778 14.2431C10.4484 13.6661 10.0363 13.307 9.32833 12.744C8.51012 12.0934 9.04053 11.7358 9.50683 11.1514C9.62886 10.9984 11.7493 8.67113 11.7903 8.46001C11.7955 8.4336 11.8002 8.33518 11.7518 8.28321C11.7033 8.23124 11.6318 8.24901 11.5802 8.26314C11.507 8.28318 10.3418 9.21251 8.08457 11.0511C7.75383 11.3252 7.45425 11.4587 7.18584 11.4517C6.88994 11.444 6.32075 11.2498 5.89762 11.0838C5.37863 10.8803 4.96614 10.7727 5.00206 10.4269C5.02077 10.2469 5.22627 10.0627 5.61858 9.87444Z" fill="white"/>
</svg>
