<svg width="20" height="20" viewBox="0 0 20 20" fill="none" xmlns="http://www.w3.org/2000/svg">
<path d="M18 10C18 14.4183 14.4183 18 10 18C5.58172 18 2 14.4183 2 10C2 5.58172 5.58172 2 10 2C14.4183 2 18 5.58172 18 10Z" fill="#25D366"/>
<path d="M3.00008 13.4999L2.00008 17.9999L6.50008 16.9999L3.00008 13.4999Z" fill="#25D366"/>
<path d="M13.3979 11.7209L13.871 11.9535C13.957 12 14 12.0465 14 12.0465V12.3721C13.957 12.6046 13.914 12.8372 13.828 13.0233C13.7849 13.1163 13.6989 13.2093 13.6129 13.3023C13.5699 13.3488 13.5269 13.3837 13.4839 13.4186C13.4409 13.4535 13.3979 13.4884 13.3548 13.5349L13.2688 13.6279C13.2205 13.6801 13.1722 13.703 13.1163 13.7296C13.0726 13.7503 13.0243 13.7732 12.9677 13.814C12.7957 13.907 12.5376 14 12.3226 14H11.8925C11.828 13.9767 11.7527 13.9651 11.6774 13.9535C11.6022 13.9419 11.5269 13.9302 11.4624 13.907C10.3011 13.5814 9.26882 12.9767 8.36559 12.1395C8.30939 12.0484 8.23484 11.9771 8.15391 11.8997C8.11097 11.8586 8.06624 11.8158 8.02151 11.7674L7.84946 11.5814C7.16129 10.8837 6.64516 10.093 6.25806 9.2093L6.21505 9.06977C6.08602 8.74419 6 8.37209 6 8C6 7.48837 6.17204 6.97674 6.47312 6.55814C6.51613 6.51163 6.54839 6.46512 6.58065 6.4186C6.6129 6.37209 6.64516 6.32558 6.68817 6.27907C6.73118 6.25581 6.77419 6.22093 6.8172 6.18605C6.86022 6.15116 6.90323 6.11628 6.94624 6.09302L6.98925 6.04651C7.03226 6.04651 7.07527 6.03488 7.11828 6.02326C7.16129 6.01163 7.2043 6 7.24731 6H7.72043C7.84946 6.04651 7.93548 6.09302 8.02151 6.23256C8.15054 6.51163 8.66667 7.76744 8.70968 8C8.75269 8.13954 8.70968 8.32558 8.62366 8.46512C8.58065 8.51163 8.54839 8.56977 8.51613 8.62791C8.48387 8.68605 8.45161 8.74419 8.4086 8.7907C8.27957 8.93023 8.10753 9.16279 8.10753 9.16279C8.06452 9.2093 8.06452 9.30233 8.06452 9.39535C8.08095 9.43088 8.0911 9.45963 8.09977 9.48418C8.1138 9.5239 8.12396 9.55265 8.15054 9.5814L8.19355 9.67442C8.4086 10.093 8.70968 10.4651 9.01075 10.7907C9.05376 10.8372 9.10753 10.8837 9.16129 10.9302C9.21505 10.9767 9.26882 11.0233 9.31183 11.0698C9.65591 11.4419 10.086 11.7209 10.5591 11.9535L10.7742 12.0465C10.8172 12.093 10.9032 12.1395 10.9462 12.1395H10.9892C11.0753 12.1395 11.1613 12.093 11.2043 12C11.8065 11.2558 11.8495 11.2093 11.8495 11.2093C11.9355 11.1628 12.0215 11.1163 12.1505 11.1163C12.172 11.1163 12.1935 11.1279 12.2151 11.1395C12.2366 11.1512 12.2581 11.1628 12.2796 11.1628C12.7097 11.3953 13.3979 11.7209 13.3979 11.7209Z" fill="white"/>
</svg>
