<svg width="20" height="20" viewBox="0 0 20 20" fill="none" xmlns="http://www.w3.org/2000/svg">
<path d="M10 18C14.4183 18 18 14.4183 18 10C18 5.58172 14.4183 2 10 2C5.58172 2 2 5.58172 2 10C2 14.4183 5.58172 18 10 18Z" fill="#EBB03B"/>
<path d="M5.00078 8.83328C5.03646 8.85107 5.06249 8.86324 5.08775 8.87678C6.60941 9.69446 8.13071 10.5124 9.65168 11.3306C9.88602 11.4569 10.1145 11.4569 10.349 11.3306C11.8773 10.508 13.4062 9.68612 14.9356 8.86508C14.9521 8.85624 14.9689 8.84774 14.994 8.83477C14.9962 8.85566 14.9992 8.87116 14.9992 8.88677C14.9992 9.99241 15.0014 11.0979 14.9984 12.2041C14.9969 12.7793 14.5804 13.275 13.956 13.4396C13.8061 13.478 13.6508 13.4973 13.4947 13.497C11.1648 13.5005 8.83478 13.5009 6.50473 13.4983C5.93008 13.4976 5.48626 13.2773 5.19242 12.8382C5.05624 12.6348 4.99961 12.4111 5 12.1744C5.00139 11.0841 5.00139 9.9936 5 8.90296L5.00078 8.83328Z" fill="white"/>
<path d="M9.99949 6.50092C11.1719 6.50092 12.3442 6.50092 13.5165 6.50092C14.0627 6.50169 14.4968 6.71914 14.7981 7.16184C14.8823 7.28543 14.927 7.43401 14.9909 7.57074C15.0131 7.61831 14.9928 7.64127 14.9505 7.66627C14.4377 7.96871 13.9256 8.27196 13.4142 8.57602C12.2987 9.23694 11.1833 9.89811 10.0681 10.5595C10.0191 10.5887 9.9845 10.5928 9.93295 10.5622C8.30646 9.59639 6.67904 8.63197 5.05071 7.66894C5.0031 7.64076 4.99008 7.61589 5.00718 7.56296C5.18339 7.0195 5.55304 6.6731 6.12415 6.53855C6.24605 6.50985 6.37584 6.50271 6.50208 6.50245C7.66789 6.49982 8.83369 6.49931 9.99949 6.50092Z" fill="white"/>
</svg>
