<svg width="20" height="20" viewBox="0 0 20 20" fill="none" xmlns="http://www.w3.org/2000/svg">
<path fill-rule="evenodd" clip-rule="evenodd" d="M10.845 6.8369L9.99998 4.23608L9.15492 6.8369C8.88717 7.66094 8.11926 8.21886 7.25281 8.21886H4.51815L6.73053 9.82625C7.43151 10.3355 7.72482 11.2383 7.45708 12.0623L6.61202 14.6631L8.82441 13.0557C9.52538 12.5465 10.4746 12.5465 11.1755 13.0557L13.3879 14.6631L12.5429 12.0623C12.2751 11.2383 12.5684 10.3355 13.2694 9.82625L15.4818 8.21886H12.7471C11.8807 8.21886 11.1128 7.66094 10.845 6.8369ZM10.951 3.92707C10.6517 3.00576 9.34827 3.00576 9.04892 3.92707L8.20386 6.52788C8.06999 6.9399 7.68603 7.21886 7.25281 7.21886H4.51815C3.54943 7.21886 3.14665 8.45848 3.93037 9.02788L6.14275 10.6353C6.49324 10.8899 6.63989 11.3413 6.50602 11.7533L5.66097 14.3541C5.36161 15.2754 6.41609 16.0416 7.19981 15.4722L9.41219 13.8648C9.76268 13.6101 10.2373 13.6101 10.5878 13.8648L12.8001 15.4722C13.5839 16.0416 14.6383 15.2754 14.339 14.3541L13.4939 11.7533C13.3601 11.3413 13.5067 10.8899 13.8572 10.6353L16.0696 9.02788C16.8533 8.45848 16.4505 7.21886 15.4818 7.21886H12.7471C12.3139 7.21886 11.93 6.9399 11.7961 6.52788L10.951 3.92707Z" fill="currentColor"/>
</svg>
