<svg width="20" height="20" viewBox="0 0 20 20" fill="none" xmlns="http://www.w3.org/2000/svg">
<path fill-rule="evenodd" clip-rule="evenodd" d="M4 4.70588C4 4.31603 3.77614 4 3.5 4C3.22386 4 3 4.31603 3 4.70588V15.2941C3 15.684 3.22386 16 3.5 16C3.77614 16 4 15.684 4 15.2941V4.70588ZM5.5 10.5H15.2925L13.1462 12.6463C12.9513 12.8423 12.9513 13.1583 13.1462 13.3543C13.3413 13.5493 13.6583 13.5493 13.8533 13.3543L16.8533 10.3543C17.0483 10.1583 17.0483 9.84225 16.8533 9.64625L13.8533 6.64625C13.6583 6.45125 13.3413 6.45125 13.1462 6.64625C12.9513 6.84225 12.9513 7.15826 13.1462 7.35426L15.292 9.5H5.5C5.224 9.5 5 9.724 5 10C5 10.276 5.224 10.5 5.5 10.5Z" fill="#3D3D3D"/>
</svg>
