<svg width="20" height="20" viewBox="0 0 20 20" fill="none" xmlns="http://www.w3.org/2000/svg">
<path fill-rule="evenodd" clip-rule="evenodd" d="M10 2C5.5848 2 2 5.584 2 10C2 14.4152 5.5848 18 10 18C14.4152 18 18 14.4152 18 10C18 5.584 14.4152 2 10 2ZM10.0387 3C14.0123 3 17 6.05244 17 10.0268C17 14.0004 13.9736 17 10 17C6.0264 17 3 13.9736 3 10C3 6.0256 6.06508 3 10.0387 3Z" fill="#3D3D3D"/>
<path fill-rule="evenodd" clip-rule="evenodd" d="M8.96659 12.2594L13.6156 6.68008C13.7925 6.46794 14.1083 6.43901 14.3199 6.61579C14.5321 6.79258 14.5611 7.10822 14.3843 7.32037L9.38407 13.3202C9.29439 13.4282 9.16301 13.4931 9.02279 13.4995C8.88258 13.5059 8.74553 13.4526 8.64637 13.3536L5.64637 10.3534C5.45121 10.1586 5.45121 9.84165 5.64637 9.64622C5.84153 9.45144 6.15858 9.45144 6.35373 9.64622L8.96659 12.2594Z" fill="#3D3D3D"/>
</svg>
