<svg width="16" height="16" viewBox="0 0 16 16" fill="none" xmlns="http://www.w3.org/2000/svg">
<path fill-rule="evenodd" clip-rule="evenodd" d="M13.4 7.99998C13.4 10.9823 10.9823 13.4 7.99998 13.4C5.01764 13.4 2.59998 10.9823 2.59998 7.99998C2.59998 5.01764 5.01764 2.59998 7.99998 2.59998C10.9823 2.59998 13.4 5.01764 13.4 7.99998ZM14.4 7.99998C14.4 11.5346 11.5346 14.4 7.99998 14.4C4.46535 14.4 1.59998 11.5346 1.59998 7.99998C1.59998 4.46535 4.46535 1.59998 7.99998 1.59998C11.5346 1.59998 14.4 4.46535 14.4 7.99998ZM8 5C8 4.72386 7.77614 4.5 7.5 4.5C7.22386 4.5 7 4.72386 7 5V8C7 8.55228 7.44772 9 8 9H11C11.2761 9 11.5 8.77614 11.5 8.5C11.5 8.22386 11.2761 8 11 8H8V5Z" fill="#3D3D3D"/>
</svg>
