<svg width="20" height="20" viewBox="0 0 20 20" fill="none" xmlns="http://www.w3.org/2000/svg">
<path fill-rule="evenodd" clip-rule="evenodd" d="M9.797 2.002L9.89401 2H10.106L10.203 2.002H10.209L10.306 2.005L10.312 2.006L10.408 2.01H10.414L10.51 2.016H10.516L10.612 2.023H10.618L10.713 2.031L10.719 2.032L10.814 2.041H10.82L10.914 2.051L10.921 2.052L11.015 2.064H11.021L11.115 2.077L11.121 2.078L11.214 2.091L11.22 2.092L11.313 2.107L11.319 2.108L11.412 2.124L11.418 2.125L11.51 2.142L11.516 2.143L11.608 2.162L11.614 2.163L11.705 2.182L11.712 2.184L11.802 2.204L11.809 2.205L11.899 2.227L11.905 2.228L11.995 2.251L12.001 2.252L12.091 2.276L12.097 2.278L12.186 2.303L12.192 2.304L12.281 2.33L12.287 2.332L12.375 2.359L12.381 2.361L12.469 2.388L12.568 2.421L12.655 2.451L12.66 2.453L12.747 2.485L12.752 2.487L12.838 2.519L12.844 2.521L12.93 2.554L13.02 2.59L13.026 2.593L13.11 2.628L13.116 2.63L13.2 2.666L13.205 2.669L13.289 2.706L13.294 2.708L13.377 2.746L13.383 2.749L13.465 2.788L13.47 2.791L13.552 2.831L13.557 2.833L13.638 2.874L13.644 2.877L13.724 2.919L13.73 2.922L13.81 2.965L13.815 2.968L13.895 3.011L13.9 3.014L13.979 3.059L13.984 3.062L14.062 3.108L14.067 3.111L14.145 3.157L14.15 3.16L14.227 3.208L14.232 3.211L14.309 3.259L14.314 3.263L14.389 3.312L14.394 3.315L14.47 3.365L14.475 3.369L14.549 3.42L14.554 3.423L14.628 3.475L14.633 3.478L14.706 3.531L14.711 3.535L14.783 3.588L14.788 3.592L14.86 3.646L14.865 3.65L14.936 3.705L15.016 3.769L15.086 3.826L15.09 3.829L15.159 3.887L15.164 3.891L15.232 3.95L15.237 3.953L15.304 4.013L15.309 4.017L15.376 4.077L15.38 4.081L15.447 4.142L15.451 4.146L15.516 4.208L15.521 4.212L15.585 4.274L15.59 4.278L15.658 4.346L15.721 4.41L15.725 4.414L15.788 4.479L15.792 4.483L15.854 4.549L15.858 4.553L15.919 4.619L15.923 4.624L15.983 4.691L15.987 4.695L16.046 4.763L16.05 4.767L16.109 4.836L16.112 4.84L16.17 4.909L16.174 4.914L16.231 4.984L16.291 5.059L16.294 5.064L16.35 5.135L16.353 5.14L16.408 5.212L16.411 5.216L16.465 5.289L16.468 5.294L16.521 5.367L16.525 5.372L16.577 5.446L16.58 5.451L16.631 5.525L16.634 5.53L16.684 5.605L16.688 5.61L16.737 5.686L16.74 5.691L16.789 5.767L16.792 5.773L16.839 5.85L16.842 5.855L16.889 5.932L16.892 5.937L16.938 6.016L16.941 6.021L16.985 6.1L16.988 6.105L17.032 6.184L17.035 6.19L17.078 6.27L17.081 6.275L17.123 6.356L17.125 6.361L17.166 6.442L17.169 6.448L17.209 6.529L17.212 6.535L17.251 6.617L17.253 6.623L17.291 6.705L17.294 6.711L17.331 6.794L17.333 6.8L17.369 6.884L17.372 6.889L17.407 6.974L17.409 6.98L17.443 7.064L17.446 7.07L17.479 7.155L17.481 7.161L17.513 7.247L17.515 7.253L17.546 7.339L17.548 7.345L17.578 7.432L17.58 7.438L17.609 7.525L17.611 7.531L17.639 7.619L17.641 7.625L17.668 7.713L17.67 7.719L17.695 7.808L17.697 7.814L17.722 7.903L17.723 7.909L17.747 7.998L17.749 8.004L17.771 8.095L17.773 8.101L17.794 8.191L17.796 8.197L17.816 8.288L17.817 8.294L17.837 8.385L17.838 8.392L17.856 8.483L17.857 8.49L17.874 8.582L17.876 8.588L17.891 8.68L17.892 8.686L17.907 8.779L17.908 8.786L17.922 8.879L17.923 8.885L17.935 8.979L17.936 8.985L17.947 9.079L17.948 9.085L17.958 9.179L17.959 9.186L17.968 9.281L17.969 9.287L17.976 9.382L17.977 9.388L17.984 9.483V9.49L17.989 9.586L17.99 9.592L17.994 9.688V9.694L17.997 9.79V9.796L17.999 9.893V9.9L18 9.996V10.003L17.999 10.1V10.106L17.997 10.203V10.209L17.994 10.305V10.312L17.99 10.408L17.989 10.414L17.984 10.509V10.516L17.977 10.611L17.976 10.618L17.969 10.713L17.968 10.719L17.959 10.813L17.958 10.82L17.948 10.914L17.947 10.92L17.936 11.014L17.935 11.021L17.923 11.114L17.922 11.12L17.908 11.214L17.907 11.22L17.892 11.313L17.891 11.319L17.876 11.411L17.874 11.418L17.857 11.51L17.856 11.516L17.838 11.608L17.837 11.614L17.817 11.705L17.816 11.711L17.796 11.802L17.794 11.808L17.773 11.899L17.771 11.905L17.749 11.995L17.747 12.001L17.723 12.09L17.722 12.096L17.697 12.186L17.695 12.192L17.67 12.28L17.668 12.286L17.641 12.375L17.639 12.38L17.611 12.468L17.609 12.474L17.58 12.561L17.578 12.567L17.548 12.654L17.546 12.66L17.515 12.747L17.513 12.752L17.481 12.838L17.479 12.844L17.446 12.929L17.443 12.935L17.409 13.02L17.407 13.026L17.372 13.11L17.369 13.115L17.333 13.199L17.331 13.205L17.294 13.288L17.291 13.294L17.253 13.377L17.251 13.382L17.212 13.464L17.209 13.47L17.169 13.551L17.166 13.557L17.125 13.638L17.123 13.644L17.081 13.724L17.078 13.729L17.035 13.809L17.032 13.815L16.988 13.894L16.985 13.899L16.941 13.978L16.938 13.984L16.892 14.062L16.889 14.067L16.842 14.145L16.839 14.15L16.792 14.227L16.789 14.232L16.74 14.308L16.737 14.313L16.688 14.389L16.684 14.394L16.634 14.469L16.631 14.474L16.58 14.549L16.577 14.554L16.525 14.628L16.521 14.632L16.468 14.706L16.465 14.71L16.411 14.783L16.408 14.788L16.353 14.859L16.35 14.864L16.294 14.935L16.291 14.94L16.235 15.011L16.231 15.015L16.174 15.085L16.17 15.09L16.112 15.159L16.109 15.163L16.05 15.232L16.046 15.236L15.987 15.304L15.983 15.308L15.923 15.375L15.919 15.38L15.858 15.446L15.854 15.45L15.792 15.516L15.788 15.52L15.725 15.585L15.721 15.589L15.658 15.653L15.654 15.658L15.59 15.721L15.585 15.725L15.521 15.787L15.516 15.791L15.451 15.853L15.447 15.857L15.38 15.918L15.376 15.922L15.309 15.982L15.304 15.986L15.237 16.046L15.232 16.05L15.164 16.108L15.159 16.112L15.09 16.17L15.086 16.174L14.936 16.294L14.865 16.349L14.86 16.353L14.788 16.407L14.783 16.411L14.711 16.465L14.706 16.468L14.633 16.521L14.628 16.524L14.554 16.576L14.549 16.58L14.475 16.631L14.47 16.634L14.394 16.684L14.389 16.687L14.314 16.737L14.309 16.74L14.232 16.788L14.227 16.791L14.15 16.839L14.145 16.842L14.062 16.892L13.984 16.937L13.979 16.94L13.9 16.985L13.895 16.988L13.815 17.032L13.81 17.035L13.73 17.077L13.724 17.08L13.644 17.122L13.638 17.125L13.557 17.166L13.552 17.169L13.47 17.209L13.465 17.211L13.383 17.25L13.377 17.253L13.294 17.291L13.289 17.293L13.205 17.331L13.2 17.333L13.116 17.369L13.11 17.371L13.026 17.407L13.02 17.409L12.93 17.445L12.844 17.478L12.838 17.481L12.752 17.513L12.747 17.515L12.66 17.546L12.655 17.548L12.568 17.578L12.469 17.611L12.381 17.639L12.375 17.64L12.287 17.667L12.281 17.669L12.192 17.695L12.186 17.697L12.097 17.721L12.091 17.723L12.001 17.747L11.995 17.748L11.905 17.771L11.899 17.772L11.809 17.794L11.802 17.795L11.712 17.816L11.705 17.817L11.614 17.836L11.608 17.838L11.516 17.856L11.51 17.857L11.418 17.874L11.412 17.875L11.319 17.891L11.313 17.892L11.22 17.907L11.214 17.908L11.121 17.921L11.115 17.922L11.021 17.935L11.015 17.936L10.921 17.947L10.914 17.948L10.82 17.958L10.814 17.959L10.719 17.968H10.713L10.618 17.976H10.612L10.516 17.983L10.51 17.984L10.414 17.989H10.408L10.312 17.994H10.306L10.209 17.997H10.203L10.106 17.999H10.1L10.003 18H9.99701L9.89999 17.999H9.89401L9.797 17.997H9.79099L9.694 17.994H9.68799L9.59201 17.989H9.586L9.48999 17.984L9.48401 17.983L9.388 17.976H9.38199L9.28699 17.968H9.28101L9.186 17.959L9.17999 17.958L9.086 17.948L9.07901 17.947L8.98499 17.936L8.979 17.935L8.88501 17.922L8.879 17.921L8.78601 17.908L8.78 17.907L8.68701 17.892L8.681 17.891L8.58801 17.875L8.582 17.874L8.48999 17.857L8.48401 17.856L8.392 17.838L8.38599 17.836L8.29501 17.817L8.28799 17.816L8.198 17.795L8.19101 17.794L8.10101 17.772L8.095 17.771L8.005 17.748L7.99899 17.747L7.909 17.723L7.90302 17.721L7.814 17.697L7.80801 17.695L7.71899 17.669L7.71301 17.667L7.625 17.64L7.61899 17.639L7.53101 17.611L7.43201 17.578L7.345 17.548L7.34 17.546L7.25299 17.515L7.24701 17.513L7.16199 17.481L7.15601 17.478L7.07001 17.445L6.98001 17.409L6.974 17.407L6.89001 17.371L6.884 17.369L6.79999 17.333L6.79501 17.331L6.711 17.293L6.70599 17.291L6.62299 17.253L6.617 17.25L6.535 17.211L6.53 17.209L6.448 17.169L6.44299 17.166L6.362 17.125L6.35599 17.122L6.27499 17.08L6.26999 17.077L6.19 17.035L6.185 17.032L6.10501 16.988L6.10001 16.985L6.021 16.94L6.01599 16.937L5.93799 16.892L5.85501 16.842L5.85001 16.839L5.77301 16.791L5.76801 16.788L5.69101 16.74L5.686 16.737L5.61099 16.687L5.60599 16.684L5.53 16.634L5.52499 16.631L5.45099 16.58L5.44601 16.576L5.37201 16.524L5.367 16.521L5.29401 16.468L5.289 16.465L5.21701 16.411L5.21201 16.407L5.14001 16.353L5.13501 16.349L5.064 16.294L4.98901 16.234L4.98401 16.231L4.91501 16.174L4.91 16.17L4.841 16.112L4.836 16.108L4.76801 16.05L4.763 16.046L4.69601 15.986L4.69101 15.982L4.62399 15.922L4.62 15.918L4.55399 15.857L4.54901 15.853L4.48401 15.792L4.479 15.787L4.41501 15.725L4.41 15.721L4.34201 15.653L4.27899 15.589L4.27499 15.585L4.21201 15.52L4.20801 15.516L4.146 15.45L4.142 15.446L4.08099 15.38L4.077 15.375L4.017 15.308L4.013 15.304L3.95401 15.236L3.95001 15.232L3.89099 15.163L3.888 15.159L3.82999 15.09L3.82599 15.085L3.76901 15.015L3.76501 15.011L3.70901 14.94L3.70599 14.935L3.64999 14.864L3.647 14.86L3.59201 14.788L3.58899 14.783L3.535 14.71L3.53201 14.706L3.479 14.632L3.47501 14.627L3.423 14.553L3.42001 14.549L3.36899 14.474L3.366 14.469L3.31601 14.394L3.31201 14.389L3.263 14.313L3.26001 14.308L3.211 14.232L3.20801 14.227L3.16101 14.15L3.15799 14.145L3.11099 14.067L3.108 14.062L3.06201 13.983L3.05899 13.978L3.01501 13.899L3.01199 13.894L2.96799 13.815L2.965 13.809L2.922 13.729L2.91901 13.724L2.87701 13.644L2.875 13.638L2.83401 13.557L2.83099 13.552L2.79099 13.47L2.78799 13.464L2.74899 13.382L2.74701 13.377L2.70901 13.294L2.70599 13.288L2.66901 13.205L2.66699 13.199L2.63101 13.115L2.62799 13.11L2.59299 13.026L2.591 13.02L2.55701 12.935L2.55399 12.929L2.521 12.844L2.51901 12.838L2.487 12.752L2.48499 12.746L2.45401 12.66L2.452 12.654L2.422 12.567L2.42001 12.561L2.39099 12.474L2.38901 12.468L2.36099 12.38L2.35901 12.374L2.332 12.286L2.32999 12.28L2.30499 12.192L2.30301 12.186L2.27802 12.096L2.27701 12.09L2.25299 12.001L2.25101 11.995L2.229 11.905L2.22699 11.899L2.20599 11.808L2.20401 11.802L2.18399 11.711L2.18301 11.705L2.16299 11.614L2.16199 11.608L2.14401 11.516L2.14301 11.51L2.12601 11.418L2.125 11.411L2.10901 11.319L2.108 11.313L2.09299 11.22L2.09201 11.214L2.078 11.121L2.077 11.114L2.065 11.021L2.064 11.014L2.05301 10.92L2.052 10.914L2.04199 10.82L2.04099 10.813L2.03201 10.719L2.03101 10.712L2.02399 10.617L2.02301 10.611L2.01599 10.516V10.51L2.01099 10.414L2.01001 10.408L2.00601 10.312V10.305L2.00299 10.209V10.203L2.00101 10.106V10.1L2 10.003V9.996L2.00101 9.9V9.893L2.00299 9.797V9.79L2.00601 9.694V9.688L2.01001 9.592L2.01099 9.585L2.01599 9.49V9.483L2.02301 9.388L2.02399 9.382L2.03101 9.287L2.03201 9.281L2.04099 9.186L2.04199 9.179L2.052 9.085L2.05301 9.079L2.064 8.985L2.065 8.979L2.077 8.885L2.078 8.879L2.09201 8.785L2.09299 8.779L2.108 8.686L2.10901 8.68L2.125 8.588L2.12601 8.582L2.14301 8.49L2.14401 8.483L2.16199 8.392L2.16299 8.386L2.18301 8.294L2.18399 8.288L2.20401 8.197L2.20599 8.191L2.22699 8.101L2.229 8.095L2.25101 8.004L2.25299 7.998L2.27701 7.909L2.27802 7.903L2.30301 7.814L2.30499 7.808L2.32999 7.719L2.332 7.713L2.35901 7.625L2.36099 7.619L2.38901 7.531L2.39099 7.525L2.42001 7.438L2.422 7.432L2.452 7.345L2.45401 7.339L2.48499 7.253L2.487 7.247L2.51901 7.161L2.521 7.155L2.55399 7.07L2.55701 7.064L2.591 6.979L2.59299 6.974L2.62799 6.889L2.63101 6.884L2.66699 6.8L2.66901 6.794L2.70599 6.711L2.70901 6.705L2.74701 6.623L2.74899 6.617L2.78799 6.535L2.79099 6.529L2.83099 6.448L2.83401 6.442L2.875 6.361L2.87701 6.356L2.91901 6.275L2.922 6.27L2.965 6.19L2.96799 6.184L3.01199 6.105L3.01501 6.1L3.05899 6.021L3.06201 6.016L3.108 5.938L3.11099 5.932L3.15799 5.855L3.16101 5.85L3.20801 5.773L3.211 5.767L3.26001 5.691L3.263 5.686L3.31201 5.61L3.31601 5.605L3.366 5.53L3.36899 5.525L3.42001 5.451L3.423 5.446L3.47501 5.372L3.479 5.367L3.53201 5.294L3.535 5.289L3.58899 5.216L3.59201 5.211L3.647 5.14L3.64999 5.135L3.70599 5.064L3.70901 5.059L3.76901 4.984L3.82599 4.914L3.82999 4.909L3.888 4.84L3.89099 4.836L3.95001 4.767L3.95401 4.763L4.013 4.695L4.017 4.691L4.077 4.624L4.08099 4.619L4.142 4.553L4.146 4.549L4.20801 4.483L4.21201 4.479L4.27499 4.414L4.27899 4.41L4.34201 4.346L4.34601 4.342L4.41 4.279L4.41501 4.274L4.479 4.212L4.48401 4.208L4.54901 4.146L4.55399 4.142L4.62 4.081L4.62399 4.077L4.69101 4.017L4.69601 4.013L4.763 3.953L4.76801 3.95L4.836 3.891L4.841 3.887L4.91 3.829L4.91501 3.826L4.98401 3.769L5.064 3.705L5.13501 3.65L5.14001 3.646L5.21201 3.592L5.21701 3.588L5.289 3.535L5.29401 3.531L5.367 3.478L5.37201 3.475L5.44601 3.423L5.45099 3.42L5.52499 3.369L5.53 3.365L5.60599 3.315L5.61099 3.312L5.686 3.263L5.69101 3.259L5.76801 3.211L5.77301 3.208L5.85001 3.16L5.85501 3.157L5.93301 3.111L5.93799 3.108L6.01599 3.062L6.021 3.059L6.10001 3.014L6.10501 3.011L6.185 2.968L6.19 2.965L6.26999 2.922L6.27499 2.919L6.35599 2.877L6.362 2.874L6.44299 2.833L6.448 2.831L6.53 2.791L6.535 2.788L6.617 2.749L6.62299 2.746L6.70599 2.708L6.711 2.706L6.79501 2.669L6.79999 2.666L6.884 2.63L6.89001 2.628L6.974 2.593L6.98001 2.59L7.07001 2.554L7.15601 2.521L7.16199 2.519L7.24701 2.487L7.25299 2.484L7.34 2.453L7.345 2.451L7.43201 2.421L7.53101 2.388L7.61899 2.361L7.625 2.359L7.71301 2.332L7.71899 2.33L7.80801 2.304L7.814 2.303L7.90302 2.278L7.909 2.276L7.99899 2.252L8.005 2.251L8.095 2.228L8.10101 2.227L8.19101 2.205L8.198 2.204L8.28799 2.184L8.29501 2.182L8.38599 2.163L8.392 2.162L8.48401 2.143L8.48999 2.142L8.582 2.125L8.58801 2.124L8.681 2.108L8.68701 2.107L8.78 2.092L8.78601 2.091L8.879 2.078L8.88501 2.077L8.979 2.064H8.98499L9.07901 2.052L9.086 2.051L9.17999 2.041H9.186L9.28101 2.032L9.28699 2.031L9.38199 2.023H9.388L9.48401 2.016H9.48999L9.586 2.01H9.59201L9.68799 2.006L9.694 2.005L9.79099 2.002H9.797ZM9.909 3L9.819 3.002L9.729 3.005L9.64001 3.009L9.54999 3.014L9.461 3.02L9.37299 3.027L9.284 3.036L9.19601 3.045L9.108 3.056L8.93399 3.08L8.84698 3.094L8.76099 3.109L8.67499 3.125L8.59 3.142L8.504 3.16L8.42001 3.179L8.33499 3.199L8.25101 3.22L8.168 3.242L8.08499 3.265L8.00201 3.289L7.91901 3.314L7.83701 3.34L7.59399 3.424L7.51401 3.454L7.435 3.485L7.35501 3.517L7.27701 3.55L7.121 3.618L6.96701 3.69L6.89099 3.727L6.815 3.766L6.73999 3.805L6.66501 3.845L6.517 3.927L6.444 3.97L6.37201 4.013L6.29999 4.058L6.229 4.103L6.15799 4.149L6.08801 4.195L6.01801 4.243L5.94901 4.292L5.88101 4.341L5.81299 4.391L5.746 4.442L5.67999 4.493L5.61401 4.546L5.54901 4.599L5.48401 4.653L5.42001 4.707L5.35699 4.763L5.29501 4.819L5.233 4.876L5.17099 4.934L5.11099 4.992L5.05099 5.051L4.992 5.111L4.93399 5.171L4.87601 5.232L4.819 5.294L4.763 5.357L4.70801 5.42L4.65302 5.484L4.599 5.548L4.54599 5.614L4.49399 5.679L4.44199 5.746L4.39099 5.813L4.341 5.881L4.29199 5.949L4.24399 6.018L4.19601 6.088L4.14899 6.158L4.103 6.228L4.05801 6.3L3.97 6.444L3.92801 6.517L3.88599 6.591L3.845 6.665L3.80499 6.739L3.76599 6.815L3.728 6.89L3.69 6.966L3.65399 7.043L3.61899 7.12L3.58401 7.198L3.54999 7.276L3.517 7.355L3.48599 7.434L3.45499 7.514L3.42499 7.594L3.396 7.675L3.36801 7.756L3.341 7.837L3.315 7.919L3.29001 8.001L3.26599 8.084L3.24301 8.167L3.19901 8.335L3.17899 8.419L3.16 8.504L3.142 8.589L3.125 8.675L3.10901 8.761L3.095 8.847L3.08099 8.934L3.06799 9.021L3.056 9.108L3.03601 9.284L3.01999 9.461L3.01401 9.55L3.009 9.639L3.005 9.729L3.00201 9.819L3 10L3.00201 10.18L3.005 10.27L3.009 10.36L3.01401 10.449L3.01999 10.538L3.03601 10.715L3.056 10.891L3.06799 10.978L3.08099 11.065L3.10901 11.239L3.125 11.324L3.142 11.41L3.16 11.495L3.17899 11.58L3.19901 11.664L3.24301 11.832L3.26599 11.915L3.29001 11.998L3.315 12.08L3.341 12.162L3.36801 12.244L3.396 12.325L3.42499 12.405L3.45499 12.485L3.48599 12.565L3.517 12.644L3.54999 12.723L3.58401 12.801L3.61899 12.879L3.65399 12.956L3.69 13.033L3.76599 13.185L3.80499 13.26L3.845 13.335L3.88599 13.409L3.97 13.555L4.01401 13.628L4.05801 13.7L4.103 13.771L4.14899 13.842L4.19601 13.912L4.29199 14.05L4.341 14.119L4.39099 14.186L4.44199 14.253L4.49399 14.32L4.54599 14.386L4.599 14.451L4.65302 14.515L4.763 14.643L4.819 14.705L4.87601 14.767L4.93399 14.828L4.992 14.888L5.05099 14.948L5.17099 15.066L5.29501 15.18L5.35699 15.236L5.42001 15.292L5.48401 15.347L5.54901 15.4L5.61401 15.454L5.746 15.558L5.81299 15.608L5.94901 15.708L6.01801 15.756L6.08801 15.804L6.15799 15.851L6.229 15.896L6.29999 15.942L6.37201 15.986L6.444 16.029L6.517 16.072L6.591 16.114L6.66501 16.155L6.73999 16.195L6.815 16.234L6.89099 16.272L6.96701 16.309L7.04401 16.346L7.121 16.381L7.19901 16.416L7.35501 16.482L7.435 16.514L7.51401 16.545L7.59399 16.575L7.67499 16.604L7.75601 16.632L7.83701 16.659L7.91901 16.685L8.00201 16.71L8.08499 16.734L8.168 16.757L8.25101 16.779L8.33499 16.8L8.42001 16.82L8.504 16.839L8.59 16.857L8.67499 16.874L8.76099 16.89L8.84698 16.905L8.93399 16.919L9.021 16.932L9.108 16.943L9.19601 16.954L9.284 16.963L9.37299 16.972L9.461 16.979L9.54999 16.985L9.64001 16.99L9.729 16.994L9.819 16.997L9.909 16.999L10 17L10.091 16.999L10.181 16.997L10.271 16.994L10.36 16.99L10.45 16.985L10.539 16.979L10.627 16.972L10.716 16.963L10.804 16.954L10.892 16.943L10.979 16.932L11.066 16.919L11.153 16.905L11.239 16.89L11.325 16.874L11.41 16.857L11.496 16.839L11.58 16.82L11.665 16.8L11.749 16.779L11.832 16.757L11.916 16.734L11.998 16.71L12.081 16.685L12.163 16.659L12.244 16.632L12.325 16.604L12.406 16.575L12.486 16.545L12.565 16.514L12.645 16.482L12.723 16.449L12.802 16.416L12.956 16.346L13.033 16.309L13.109 16.272L13.185 16.234L13.26 16.195L13.335 16.155L13.409 16.114L13.483 16.072L13.556 16.029L13.628 15.986L13.7 15.942L13.771 15.896L13.842 15.851L13.912 15.804L13.982 15.756L14.051 15.708L14.187 15.608L14.254 15.558L14.386 15.454L14.451 15.4L14.516 15.347L14.58 15.292L14.643 15.236L14.705 15.18L14.767 15.123L14.828 15.066L14.889 15.007L14.949 14.948L15.008 14.889L15.124 14.767L15.181 14.705L15.237 14.643L15.347 14.515L15.401 14.451L15.454 14.386L15.506 14.32L15.558 14.253L15.609 14.186L15.659 14.119L15.757 13.981L15.804 13.912L15.851 13.842L15.897 13.771L15.942 13.7L15.986 13.628L16.03 13.555L16.114 13.409L16.155 13.335L16.195 13.26L16.234 13.185L16.31 13.033L16.382 12.879L16.45 12.723L16.483 12.644L16.514 12.565L16.545 12.485L16.575 12.405L16.604 12.325L16.632 12.244L16.659 12.162L16.685 12.08L16.71 11.998L16.734 11.915L16.757 11.832L16.78 11.748L16.801 11.664L16.821 11.58L16.84 11.495L16.858 11.41L16.875 11.324L16.891 11.239L16.905 11.152L16.919 11.066L16.932 10.979L16.944 10.891L16.964 10.715L16.98 10.538L16.986 10.449L16.991 10.36L16.995 10.27L16.998 10.18L17 10L16.998 9.819L16.995 9.729L16.991 9.639L16.986 9.55L16.98 9.461L16.964 9.284L16.944 9.108L16.932 9.021L16.919 8.934L16.905 8.847L16.891 8.761L16.875 8.675L16.858 8.589L16.84 8.504L16.821 8.419L16.801 8.335L16.78 8.251L16.757 8.167L16.734 8.084L16.71 8.001L16.685 7.919L16.659 7.837L16.632 7.756L16.604 7.675L16.575 7.594L16.545 7.514L16.514 7.434L16.483 7.355L16.45 7.276L16.382 7.12L16.31 6.966L16.272 6.89L16.234 6.815L16.195 6.739L16.155 6.665L16.114 6.591L16.072 6.517L16.03 6.444L15.942 6.3L15.897 6.228L15.851 6.158L15.804 6.087L15.757 6.018L15.708 5.949L15.659 5.881L15.609 5.813L15.558 5.746L15.506 5.679L15.454 5.614L15.401 5.548L15.347 5.484L15.292 5.42L15.237 5.357L15.181 5.294L15.124 5.232L15.066 5.171L15.008 5.111L14.949 5.051L14.889 4.992L14.828 4.933L14.767 4.876L14.705 4.819L14.643 4.763L14.58 4.707L14.516 4.653L14.451 4.599L14.386 4.546L14.32 4.493L14.254 4.442L14.187 4.391L14.119 4.341L14.051 4.292L13.982 4.243L13.912 4.195L13.842 4.149L13.771 4.103L13.7 4.058L13.628 4.013L13.556 3.97L13.483 3.927L13.335 3.845L13.26 3.805L13.185 3.766L13.109 3.727L13.033 3.69L12.879 3.618L12.802 3.584L12.723 3.55L12.645 3.517L12.565 3.485L12.486 3.454L12.406 3.424L12.244 3.368L12.162 3.34L12.081 3.314L11.998 3.289L11.916 3.265L11.832 3.242L11.749 3.22L11.665 3.199L11.58 3.179L11.496 3.16L11.41 3.142L11.325 3.125L11.239 3.109L11.153 3.094L11.066 3.08L10.892 3.056L10.804 3.045L10.716 3.036L10.627 3.027L10.539 3.02L10.45 3.014L10.36 3.009L10.271 3.005L10.181 3.002L10.091 3H9.909ZM10 6.5C10 6.22386 9.77614 6 9.5 6C9.22386 6 9 6.22386 9 6.5V11H13.5C13.7761 11 14 10.7761 14 10.5C14 10.2239 13.7761 10 13.5 10H10V6.5Z" fill="#3D3D3D"/>
</svg>
