<svg width="20" height="20" viewBox="0 0 20 20" fill="none" xmlns="http://www.w3.org/2000/svg">
<path d="M10.1533 1.99747L10.0769 1.99481L9.99998 1.99414L9.92362 1.99481L9.8478 1.99747L9.77197 2.00147L9.69668 2.00747L9.62196 2.01547L9.54725 2.02481L9.47307 2.03547L9.39942 2.04814L9.32635 2.06281L9.25384 2.07947L9.1813 2.09747L9.10987 2.11747L9.03901 2.13947L8.96865 2.16281L8.8989 2.18814L8.82965 2.21547L8.76154 2.24481L8.69393 2.27547L8.62746 2.30814L8.56207 2.34281L8.49724 2.37947L8.43295 2.41747L8.37031 2.45747L8.30823 2.49947L8.2478 2.54347L8.18791 2.58881L8.12912 2.63681L8.07197 2.68547L8.01593 2.73681L7.96097 2.78947L7.90714 2.84347L7.85493 2.90014L7.80439 2.95747L7.75492 3.01747L7.70657 3.07814L7.65988 3.14147L7.61481 3.20547L7.57088 3.27147L7.52909 3.33947L7.48845 3.40814L7.44888 3.47947L7.41152 3.55147L7.37527 3.62481L7.34119 3.70014L7.30823 3.77681L7.27691 3.85547L7.24723 3.93481L7.21976 4.01548L7.1934 4.09814L7.16865 4.18214L7.14558 4.26748L7.12415 4.35347L7.1044 4.44147L7.08625 4.53081L7.07032 4.62214L7.05547 4.71414L7.04286 4.80748L7.03129 4.90214L7.02197 4.99814L7.01372 5.09614L7.00768 5.19481L7.00329 5.29481L7.00107 5.39681L7 5.49948L7.00107 5.65614L7.00382 5.81414L7.00879 5.97148L7.01593 6.13014L7.02525 6.28814L7.03625 6.44681L7.04943 6.60481L7.06536 6.76281L7.08297 6.92014L7.10272 7.07681L7.12472 7.23281L7.14944 7.38814L7.17636 7.54281L7.20547 7.69614L7.23733 7.84748L7.27141 7.99814L7.30769 8.14681L7.34669 8.29414L7.38845 8.43948L7.43295 8.58148L7.45659 8.65348L7.4802 8.72348L7.50492 8.79348L7.5302 8.86281L7.55659 8.93148L7.58349 8.99948L7.61099 9.06681L7.66813 9.19881L7.69835 9.26414L7.7291 9.32881L7.76043 9.39281L7.79285 9.45614L7.82582 9.51814L7.85989 9.57948L7.89504 9.64081L7.93075 9.70081L7.96758 9.75948L8.00493 9.81748L8.0434 9.87481L8.08294 9.93148L8.12362 9.98681L8.16483 10.0408L8.20384 10.0901L8.22966 10.1201L8.25712 10.1475L8.28734 10.1728L8.31923 10.1961L8.35273 10.2161L8.38791 10.2341L8.42417 10.2488L8.46152 10.2608L8.49942 10.2701L8.53846 10.2761L8.57746 10.2788H8.61703L8.65603 10.2755L8.6945 10.2695L8.73296 10.2601L8.77032 10.2475L8.80657 10.2321L8.84118 10.2148L8.87472 10.1941L8.90658 10.1708L8.93626 10.1448L8.96372 10.1175L8.98901 10.0875L9.01208 10.0555L9.03241 10.0215L9.04998 9.98681L9.06483 9.95014L9.07691 9.91281L9.08626 9.87481L9.0923 9.83614L9.09505 9.79681V9.75748L9.09173 9.71881L9.08516 9.67948L9.0758 9.64148L9.06373 9.60414L9.04833 9.56814L9.03076 9.53348L9.00987 9.49948L8.9868 9.46814L8.95383 9.42681L8.92472 9.38881L8.89615 9.34948L8.86811 9.30881L8.84011 9.26748L8.81207 9.22414L8.78461 9.18014L8.75768 9.13481L8.73132 9.08881L8.70493 9.04148L8.67911 8.99281L8.65382 8.94348L8.6291 8.89281L8.60439 8.84148L8.58074 8.78948L8.55714 8.73548L8.53349 8.68081L8.51099 8.62548L8.48899 8.56948L8.46702 8.51281L8.4456 8.45481L8.42527 8.39614L8.40492 8.33614L8.38516 8.27748L8.3467 8.15281L8.31098 8.02748L8.27637 7.89881L8.24448 7.76814L8.21427 7.63548L8.18626 7.50014L8.15987 7.36348L8.13626 7.22481L8.11372 7.08481L8.09394 6.94348L8.0758 6.80148L8.05987 6.65814L8.04558 6.51414L8.03351 6.36881L8.02308 6.22414L8.01483 6.07881L8.00822 5.93348L8.00383 5.78881L8.00108 5.64414L7.99997 5.50014L8.00054 5.41414L8.00272 5.32948L8.00658 5.24748L8.01154 5.16681L8.01758 5.08748L8.02526 5.01081L8.03461 4.93481L8.04451 4.86081L8.05604 4.78881L8.06865 4.71881L8.08294 4.64948L8.0978 4.58281L8.11372 4.51748L8.1313 4.45347L8.14944 4.39147L8.16866 4.33081L8.18901 4.27214L8.21044 4.21481L8.23241 4.15947L8.25548 4.10547L8.27966 4.05281L8.30438 4.00147L8.3302 3.95214L8.35659 3.90414L8.38406 3.85747L8.41206 3.81281L8.4412 3.76881L8.47088 3.72681L8.5011 3.68547L8.53242 3.64614L8.56428 3.60814L8.59667 3.57081L8.62967 3.53547L8.66371 3.50081L8.69835 3.46747L8.7335 3.43547L8.76922 3.40481L8.80604 3.37547L8.8434 3.34681L8.88129 3.31947L8.91976 3.29347L8.95933 3.26814L8.99944 3.24414L9.04008 3.22147L9.0813 3.19947L9.12362 3.17881L9.16648 3.15947L9.20988 3.14081L9.25384 3.12347L9.29888 3.10681L9.34449 3.09147L9.39064 3.07747L9.43789 3.06414L9.48571 3.05214L9.53407 3.04147L9.58296 3.03147L9.63297 3.02281L9.6835 3.01547L9.73461 3.00881L9.78626 3.00347L9.83901 2.99947L9.89176 2.99681L9.94559 2.99481L9.99998 2.99414L10.0538 2.99481L10.1071 2.99681L10.1599 2.99947L10.2115 3.00414L10.2632 3.00947L10.3137 3.01614L10.3643 3.02347L10.4137 3.03281L10.4626 3.04281L10.5104 3.05414L10.5582 3.06614L10.6049 3.08014L10.6511 3.09414L10.6967 3.11014L10.7418 3.12681L10.7857 3.14481L10.8297 3.16414L10.872 3.18414L10.9143 3.20547L10.956 3.22747L10.9967 3.25147L11.0368 3.27547L11.0763 3.30147L11.1154 3.32814L11.1533 3.35614L11.1906 3.38547L11.2275 3.41547L11.2637 3.44747L11.2994 3.47947L11.3341 3.51347L11.3681 3.54881L11.4016 3.58481L11.434 3.62281L11.4665 3.66147L11.4978 3.70147L11.528 3.74281L11.5582 3.78614L11.5868 3.83014L11.6154 3.87547L11.6428 3.92281L11.6698 3.97081L11.6956 4.02081L11.7203 4.07147L11.7445 4.12414L11.7676 4.17881L11.7901 4.23414L11.811 4.29081L11.8318 4.35014L11.8511 4.41014L11.8692 4.47148L11.8862 4.53481L11.9027 4.59948L11.9176 4.66614L11.9313 4.73414L11.944 4.80348L11.9555 4.87414L11.9654 4.94681L11.9747 5.02148L11.9824 5.09681L11.9885 5.17414L11.9934 5.25348L11.9972 5.33414L11.9995 5.41614L12 5.50014L11.9983 5.67748L11.9945 5.85614L11.9873 6.03614L11.983 6.12481L11.978 6.21414L11.972 6.30348L11.9577 6.48214L11.9495 6.57081L11.9406 6.65948L11.9308 6.74814L11.9209 6.83614L11.8978 7.01081L11.8852 7.09748L11.8714 7.18414L11.8577 7.26948L11.8428 7.35481L11.811 7.52281L11.7934 7.60614L11.7758 7.68814L11.7571 7.76948L11.7373 7.85014L11.7176 7.93014L11.6967 8.00881L11.6747 8.08681L11.6522 8.16348L11.6291 8.23881L11.6055 8.31348L11.5808 8.38681L11.5555 8.45881L11.5291 8.53014L11.5022 8.59948L11.4747 8.66814L11.4467 8.73481L11.4176 8.80014L11.3879 8.86414L11.3577 8.92681L11.3269 8.98748L11.2956 9.04681L11.2632 9.10481L11.2307 9.16081L11.1972 9.21481L11.1637 9.26748L11.1291 9.31814L11.0945 9.36748L11.0593 9.41414L11.0236 9.45948L10.9868 9.50281L10.9506 9.54481L10.9137 9.58414L10.8764 9.62214L10.8384 9.65748L10.8005 9.69148L10.7621 9.72414L10.7236 9.75414L10.6846 9.78281L10.6456 9.80881L10.6055 9.83348L10.5577 9.86148L10.5242 9.88214L10.4929 9.90614L10.4632 9.93148L10.4357 9.95948L10.4104 9.99014L10.3879 10.0221L10.3681 10.0555L10.3505 10.0908L10.3357 10.1275L10.3242 10.1648L10.3154 10.2028L10.3099 10.2421L10.3071 10.2808L10.3077 10.3201L10.311 10.3595L10.3176 10.3981L10.3275 10.4361L10.3401 10.4735L10.3555 10.5095L10.3736 10.5441L10.3945 10.5775L10.4181 10.6088L10.4439 10.6388L10.472 10.6661L10.5022 10.6908L10.534 10.7135L10.5676 10.7341L10.6027 10.7515L10.6395 10.7661L10.6769 10.7775L10.7148 10.7861L10.7538 10.7921L10.7928 10.7948L10.8324 10.7941L10.8714 10.7908L10.9099 10.7841L10.9483 10.7741L10.9852 10.7621L11.0214 10.7461L11.056 10.7281L11.1203 10.6915L11.1225 10.6901L11.1333 10.7415L11.174 10.9182L11.2133 11.0828L11.2494 11.2395L11.2607 11.2828L11.2767 11.3248L11.296 11.3648L11.3247 11.4182L11.358 11.4762L11.3927 11.5328L11.4287 11.5888L11.4667 11.6435L11.506 11.6968L11.546 11.7495L11.588 11.8008L11.6314 11.8502L11.676 11.8988L11.722 11.9462L11.7687 11.9922L11.8173 12.0368L11.8667 12.0802L11.9173 12.1222L11.9687 12.1628L12.022 12.2022L12.0753 12.2395L12.1307 12.2755L12.186 12.3102L12.2433 12.3435L12.3007 12.3748L12.3593 12.4048L12.4194 12.4335L12.4793 12.4602L12.5407 12.4855L12.6027 12.5088L12.666 12.5308L12.7293 12.5515L12.7933 12.5695L12.858 12.5862L12.92 12.6002L14.5553 12.9495L14.5973 12.9588L14.6367 12.9688L14.6753 12.9788L14.7133 12.9902L14.7513 13.0022L14.7887 13.0148L14.862 13.0428L14.898 13.0582L14.9334 13.0735L14.9687 13.0902L15.0033 13.1075L15.038 13.1255L15.072 13.1442L15.1054 13.1635L15.138 13.1835L15.1707 13.2042L15.2027 13.2248L15.234 13.2468L15.2653 13.2695L15.2953 13.2928L15.3253 13.3168L15.3547 13.3408L15.384 13.3662L15.412 13.3915L15.44 13.4175L15.4673 13.4442L15.494 13.4715L15.52 13.4995L15.5453 13.5275L15.5947 13.5862L15.618 13.6155L15.6413 13.6462L15.6633 13.6768L15.6853 13.7082L15.7267 13.7722L15.7467 13.8048L15.784 13.8715L15.802 13.9048L15.8353 13.9742L15.8507 14.0088L15.8653 14.0442L15.8934 14.1162L15.9053 14.1528L15.9173 14.1895L15.9287 14.2262L15.9393 14.2635L15.9487 14.3008L15.9573 14.3388L15.9653 14.3775L15.9727 14.4155L15.9787 14.4542L15.9847 14.4935L15.9893 14.5328L15.9933 14.5722L15.996 14.6115L15.998 14.6515L15.9994 14.6915L16 14.7348V16.9995H4V14.7348L4.00065 14.6915L4.00199 14.6515L4.00399 14.6115L4.00667 14.5722L4.01066 14.5328L4.01534 14.4935L4.02132 14.4542L4.02734 14.4155L4.03467 14.3775L4.04268 14.3388L4.05135 14.3008L4.06067 14.2635L4.07133 14.2262L4.08268 14.1895L4.09469 14.1528L4.10665 14.1162L4.13468 14.0442L4.14933 14.0088L4.16467 13.9742L4.18132 13.9395L4.198 13.9055L4.21598 13.8715L4.25334 13.8048L4.27332 13.7722L4.29334 13.7402L4.31466 13.7082L4.33667 13.6768L4.35868 13.6462L4.382 13.6155L4.40531 13.5862L4.45467 13.5275L4.47998 13.4995L4.50598 13.4715L4.53267 13.4442L4.56002 13.4175L4.58801 13.3915L4.61601 13.3662L4.64535 13.3408L4.67468 13.3168L4.70467 13.2928L4.73466 13.2695L4.76599 13.2468L4.79732 13.2248L4.82935 13.2042L4.86202 13.1835L4.89465 13.1635L4.92802 13.1442L4.962 13.1255L4.99666 13.1075L5.03133 13.0902L5.066 13.0742L5.10201 13.0582L5.13798 13.0428L5.21135 13.0148L5.24866 13.0022L5.28666 12.9902L5.32467 12.9788L5.40202 12.9588L5.44466 12.9495L7.60466 12.4888L7.65332 12.4755L7.70069 12.4575L7.74601 12.4348L7.78866 12.4075L7.82866 12.3762L7.86532 12.3415L7.89799 12.3028L7.92599 12.2608L7.95069 12.2162L7.97001 12.1695L7.98466 12.1215L7.99467 12.0715L7.99935 12.0208V11.9702L7.99333 11.9202L7.98332 11.8708L7.96733 11.8222L7.94735 11.7762L7.922 11.7322L7.89335 11.6902L7.85999 11.6522L7.82267 11.6175L7.78268 11.5868L7.73934 11.5608L7.69401 11.5388L7.646 11.5215L7.59668 11.5088L7.54667 11.5015L7.49601 11.4995L7.44536 11.5022L7.39535 11.5108L5.22998 11.9728L5.17265 11.9855L5.11202 12.0008L5.05265 12.0168L4.99333 12.0342L4.93534 12.0528L4.87732 12.0728L4.81999 12.0935L4.76335 12.1155L4.70732 12.1388L4.65202 12.1635L4.59733 12.1895L4.54334 12.2162L4.48999 12.2435L4.43734 12.2728L4.38599 12.3022L4.33468 12.3335L4.28402 12.3655L4.23466 12.3982L4.18599 12.4322L4.13798 12.4675L4.09066 12.5035L4.04399 12.5402L3.99866 12.5775L3.95402 12.6168L3.90999 12.6562L3.86735 12.6968L3.82532 12.7382L3.78402 12.7802L3.74333 12.8228L3.70402 12.8668L3.66532 12.9115L3.62801 12.9568L3.59135 13.0028L3.55599 13.0502L3.52132 13.0975L3.488 13.1462L3.45532 13.1948L3.42334 13.2448L3.39266 13.2955L3.36332 13.3468L3.33468 13.3982L3.30733 13.4508L3.28133 13.5042L3.25598 13.5575L3.23132 13.6122L3.20866 13.6668L3.18669 13.7222L3.16602 13.7782L3.146 13.8342L3.12801 13.8915L3.11068 13.9488L3.09469 14.0068L3.07935 14.0648L3.066 14.1242L3.05334 14.1828L3.04268 14.2428L3.03267 14.3028L3.02401 14.3628L3.01668 14.4235L3.01066 14.4848L3.00598 14.5462L3.00269 14.6082L3.00065 14.6695L3 14.7295V17.4995L3.00269 17.5488L3.00932 17.5968L3.02132 17.6448L3.038 17.6908L3.05933 17.7355L3.08398 17.7775L3.11332 17.8168L3.14665 17.8528L3.18266 17.8862L3.22201 17.9155L3.264 17.9402L3.30868 17.9615L3.35466 17.9782L3.40267 17.9902L3.45068 17.9968L3.5 17.9995H16.5L16.5487 17.9968L16.5973 17.9902L16.6454 17.9782L16.6913 17.9615L16.736 17.9402L16.778 17.9155L16.8173 17.8862L16.8534 17.8528L16.8867 17.8168L16.916 17.7775L16.9407 17.7355L16.962 17.6908L16.9787 17.6448L16.9907 17.5968L16.9973 17.5488L17 17.4995V14.7295L16.9994 14.6695L16.9973 14.6082L16.994 14.5462L16.9893 14.4848L16.9833 14.4235L16.976 14.3628L16.9673 14.3028L16.9573 14.2428L16.9467 14.1828L16.934 14.1242L16.9207 14.0648L16.9053 14.0068L16.8893 13.9488L16.872 13.8915L16.854 13.8342L16.834 13.7782L16.8133 13.7222L16.7913 13.6668L16.7687 13.6115L16.744 13.5575L16.7193 13.5042L16.6927 13.4508L16.6653 13.3982L16.6367 13.3468L16.6073 13.2955L16.5767 13.2448L16.5447 13.1955L16.512 13.1462L16.4787 13.0975L16.444 13.0502L16.4087 13.0035L16.372 12.9568L16.334 12.9115L16.296 12.8668L16.2567 12.8228L16.216 12.7802L16.1747 12.7382L16.1327 12.6968L16.09 12.6562L16.046 12.6168L16.0013 12.5782L15.9553 12.5402L15.9093 12.5035L15.862 12.4675L15.814 12.4322L15.7653 12.3982L15.716 12.3655L15.6653 12.3335L15.614 12.3022L15.5627 12.2728L15.51 12.2435L15.4567 12.2162L15.4027 12.1895L15.348 12.1635L15.2927 12.1388L15.2367 12.1155L15.18 12.0935L15.1227 12.0728L15.0647 12.0528L15.0067 12.0342L14.9474 12.0168L14.888 12.0008L14.828 11.9855L14.77 11.9728L13.1353 11.6242L13.094 11.6142L13.056 11.6048L13.0187 11.5942L12.9813 11.5822L12.9447 11.5695L12.9087 11.5555L12.8727 11.5408L12.838 11.5255L12.8027 11.5088L12.7687 11.4908L12.7354 11.4728L12.702 11.4535L12.6694 11.4328L12.6373 11.4122L12.606 11.3902L12.5747 11.3675L12.5447 11.3435L12.5153 11.3188L12.4867 11.2942L12.458 11.2675L12.4307 11.2408L12.404 11.2135L12.378 11.1848L12.3527 11.1562L12.3287 11.1262L12.3047 11.0955L12.282 11.0642L12.26 11.0322L12.2387 10.9995C12.225 10.9774 12.2145 10.9534 12.2075 10.9284L12.1873 10.8562L12.148 10.6908L12.1093 10.5235L12.092 10.4415L12.0747 10.3582L12.0587 10.2735L12.0447 10.1888L12.032 10.1035L12.0213 10.0168L12.012 9.92949L12.0053 9.83949L12.0039 9.80938L12.044 9.74681L12.089 9.67414L12.1319 9.60014L12.1742 9.52481L12.2143 9.44814L12.2538 9.37081L12.2918 9.29214L12.3291 9.21214L12.3648 9.13148L12.3994 9.04948L12.4324 8.96614L12.4648 8.88281L12.4962 8.79814L12.5264 8.71214L12.5555 8.62548L12.5835 8.53814L12.6104 8.45014L12.6363 8.36081L12.6615 8.27148L12.6852 8.18148L12.7082 8.09014L12.7308 7.99881L12.7516 7.90614L12.772 7.81348L12.7912 7.72014L12.8093 7.62614L12.8269 7.53148L12.8434 7.43681L12.8593 7.34148L12.8742 7.24614L12.8879 7.15014L12.9011 7.05414L12.9132 6.95748L12.9247 6.86081L12.9352 6.76348L12.945 6.66681L12.9538 6.56948L12.9621 6.47214L12.9692 6.37414L12.9758 6.27681L12.9813 6.17948L12.9862 6.08081L12.994 5.88748L12.9984 5.69281L13 5.49948L12.9989 5.39881L12.9967 5.29814L12.9923 5.19948L12.9857 5.10214L12.978 5.00614L12.9687 4.91148L12.9571 4.81748L12.9445 4.72548L12.9297 4.63414L12.9132 4.54414L12.895 4.45614L12.8758 4.36881L12.8544 4.28281L12.8313 4.19814L12.8066 4.11481L12.7802 4.03281L12.7522 3.95281L12.7225 3.87347L12.6917 3.79547L12.6588 3.71947L12.6247 3.64414L12.5884 3.57081L12.5511 3.49881L12.5121 3.42747L12.4714 3.35881L12.4297 3.29081L12.3857 3.22481L12.3412 3.16014L12.2945 3.09747L12.2467 3.03547L12.1972 2.97614L12.1467 2.91814L12.0945 2.86147L12.0412 2.80681L11.9868 2.75347L11.9308 2.70214L11.8736 2.65214L11.8154 2.60414L11.756 2.55814L11.695 2.51347L11.6335 2.47081L11.5709 2.43014L11.5071 2.39081L11.4423 2.35414L11.3769 2.31881L11.3104 2.28481L11.2429 2.25347L11.1747 2.22347L11.1055 2.19547L11.0357 2.16947L10.9654 2.14481L10.8945 2.12214L10.8225 2.10147L10.75 2.08281L10.6769 2.06614L10.6038 2.05081L10.5296 2.03747L10.4555 2.02614L10.3802 2.01614L10.3049 2.00814L10.2291 2.00214L10.1533 1.99747Z" fill="#3D3D3D"/>
</svg>
