<svg width="20" height="20" viewBox="0 0 20 20" fill="none" xmlns="http://www.w3.org/2000/svg">
<path fill-rule="evenodd" clip-rule="evenodd" d="M4.18182 2C2.97683 2 2 3.03788 2 4.31818V13.5909C2 14.8712 2.97683 15.9091 4.18182 15.9091H10.1552L13.1471 18.799C13.3602 19.0048 13.6673 19.0577 13.9306 18.9339C14.1938 18.8102 14.3636 18.5331 14.3636 18.2273V15.9091H15.8182C17.0232 15.9091 18 14.8712 18 13.5909V4.31818C18 3.03788 17.0232 2 15.8182 2H4.18182ZM10.05 5.30005C9.79753 5.30005 9.3 5.5563 9.3 5.80667L9.55 10.3067C9.55 10.557 9.79753 10.7401 10.05 10.7401C10.3025 10.7401 10.55 10.557 10.55 10.3067L10.8 5.80667C10.8 5.5563 10.3025 5.30005 10.05 5.30005ZM10.05 11.8002C9.63579 11.8002 9.3 12.136 9.3 12.5502C9.3 12.9644 9.63579 13.3002 10.05 13.3002C10.4642 13.3002 10.8 12.9644 10.8 12.5502C10.8 12.136 10.4642 11.8002 10.05 11.8002Z" fill="#3D3D3D"/>
</svg>
